<?xml version="1.0" encoding="utf-8"?>
<!-- Generator: Adobe Illustrator 16.0.0, SVG Export Plug-In . SVG Version: 6.00 Build 0)  -->
<!DOCTYPE svg PUBLIC "-//W3C//DTD SVG 1.1//EN" "http://www.w3.org/Graphics/SVG/1.1/DTD/svg11.dtd">
<svg version="1.1" id="Capa_1" xmlns="http://www.w3.org/2000/svg" xmlns:xlink="http://www.w3.org/1999/xlink" x="0px" y="0px"
	 width="1585.421px" height="165.078px" viewBox="0 0 1585.421 165.078" enable-background="new 0 0 1585.421 165.078"
	 xml:space="preserve">
<g>
	<path fill="#1A171B" d="M1576.378,41.198c0-1.665-0.603-3.075-1.756-4.241l-3.672-3.651c-1.127-1.147-2.504-1.697-4.063-1.665
		h-6.582c-1.571,0-2.963,0.577-4.142,1.744l-4.824,4.818l-1.573-6.562h-4.838l1.665,6.896v32.677h4.746V45.197
		c0-0.473,0.17-0.859,0.498-1.167l7.234-7.237c0.369-0.334,0.788-0.498,1.233-0.498h6.412c0.432,0,0.825,0.164,1.166,0.498
		l3.252,3.251c0.313,0.296,0.498,0.682,0.498,1.154v5.906h4.745V41.198z M1525.235,61.105V41.172c0-0.472-0.17-0.845-0.498-1.155
		l-3.237-3.224c-0.366-0.334-0.746-0.498-1.181-0.498h-14.97c-0.42,0-0.8,0.164-1.154,0.498l-3.251,3.224
		c-0.328,0.31-0.498,0.683-0.498,1.155v20.346c0,0.472,0.17,0.846,0.498,1.16l3.251,3.219c0.354,0.335,0.734,0.498,1.154,0.498
		h14.97c0.435,0,0.814-0.163,1.181-0.498l3.237-3.219C1525.065,62.232,1525.235,61.709,1525.235,61.105 M1529.97,61.348
		c0,1.716-0.577,3.178-1.73,4.385l-3.672,3.657c-1.152,1.141-2.49,1.691-4.063,1.664h-15.312c-1.548,0.027-2.924-0.523-4.064-1.664
		l-3.671-3.657c-1.166-1.154-1.743-2.563-1.743-4.215V41.172c0-1.653,0.577-3.062,1.743-4.215l3.671-3.651
		c1.141-1.147,2.517-1.697,4.064-1.665h15.312c1.573-0.032,2.911,0.518,4.063,1.665l3.672,3.651c1.153,1.153,1.73,2.562,1.73,4.215
		V61.348z M1479.183,31.68h-13.15v4.654h8.405v34.918h4.745V31.68z M1480.179,15.797h-6.987v6.981h6.987V15.797z M1458.561,47.104
		h-4.732v-5.906c0-0.472-0.171-0.858-0.498-1.154l-3.251-3.251c-0.343-0.334-0.734-0.498-1.153-0.498h-6.412
		c-0.457,0-0.878,0.164-1.244,0.498l-7.237,7.237c-0.341,0.308-0.498,0.694-0.498,1.167v26.017h-4.745V38.537l-1.652-6.896h4.81
		l1.588,6.562l4.825-4.818c1.18-1.167,2.556-1.744,4.154-1.744h6.569c1.572-0.032,2.924,0.518,4.076,1.665l3.658,3.651
		c1.153,1.166,1.743,2.576,1.743,4.241V47.104z M1382.653,47.359v-6.187c0-0.433,0.172-0.82,0.5-1.173l3.238-3.206
		c0.314-0.334,0.694-0.498,1.167-0.498h14.957c0.472,0,0.866,0.164,1.18,0.498l3.227,3.206c0.341,0.353,0.498,0.74,0.498,1.173
		v6.187H1382.653z M1412.179,41.172c0-1.653-0.591-3.062-1.771-4.215l-3.644-3.651c-1.154-1.147-2.518-1.697-4.077-1.665h-15.299
		c-1.6-0.032-2.962,0.518-4.076,1.665l-3.659,3.651c-1.152,1.193-1.755,2.601-1.755,4.215v20.346c0,1.613,0.603,3.022,1.755,4.215
		l3.659,3.657c1.166,1.141,2.503,1.691,4.076,1.664h15.299c1.613,0.027,2.963-0.523,4.077-1.664l5.166-5.146l-3.33-3.304
		l-4.904,4.956c-0.313,0.335-0.708,0.498-1.18,0.498h-14.957c-0.473,0-0.853-0.163-1.167-0.498l-3.238-3.219
		c-0.328-0.354-0.5-0.727-0.5-1.16v-9.42h29.525V41.172z M1359.045,61.518V41.584c0-0.603-0.158-1.127-0.499-1.567l-3.25-3.224
		c-0.341-0.334-0.734-0.498-1.168-0.498h-10.894c-0.499,0-0.905,0.164-1.232,0.498l-7.236,7.197
		c-0.341,0.334-0.498,0.721-0.498,1.154v12.402c0,0.432,0.157,0.819,0.498,1.153l7.236,7.197c0.327,0.335,0.733,0.498,1.232,0.498
		h10.894c0.434,0,0.827-0.163,1.168-0.498l3.25-3.219C1358.887,62.364,1359.045,61.99,1359.045,61.518 M1363.791,61.518
		c0,1.652-0.577,3.061-1.759,4.215l-3.669,3.657c-1.129,1.141-2.491,1.691-4.065,1.664h-11.063c-1.6,0-2.963-0.576-4.155-1.749
		l-4.812-4.818v22.444h-4.747V38.203l-1.337-6.562h4.668l1.416,6.562l4.812-4.818c1.192-1.167,2.556-1.744,4.155-1.744h11.063
		c1.574-0.032,2.937,0.518,4.065,1.665l3.669,3.651c1.182,1.205,1.759,2.667,1.759,4.386V61.518z M1310.578,64.206V31.68h-4.732
		v25.905c0,0.472-0.184,0.846-0.512,1.16l-7.225,7.19c-0.379,0.334-0.785,0.498-1.258,0.498h-8.81c-0.433,0-0.813-0.164-1.166-0.498
		l-3.238-3.219c-0.341-0.307-0.498-0.701-0.498-1.153V31.68h-4.747v29.884c0,1.653,0.577,3.061,1.758,4.215l3.645,3.649
		c1.153,1.142,2.517,1.692,4.09,1.667h8.967c1.6,0,2.977-0.579,4.156-1.751l4.838-4.818l1.573,6.569h4.812L1310.578,64.206z
		 M1260.694,58.391c0,1.6-0.576,2.982-1.743,4.15l-6.83,6.804c-1.18,1.172-2.556,1.751-4.143,1.751h-19.298
		c-1.599,0-2.988-0.579-4.168-1.751l-8.561-8.548l3.656-3.56l8.233,8.208c0.315,0.334,0.709,0.49,1.18,0.49h18.616
		c0.472,0,0.853-0.156,1.166-0.49l6.241-6.221c0.328-0.348,0.498-0.721,0.498-1.153v-8.378c-0.118-0.911-0.643-1.474-1.587-1.652
		l-32.852-4.051c-1.469-0.203-2.702-0.846-3.672-1.908c-0.943-1.074-1.441-2.379-1.48-3.893v-9.695c0-1.592,0.589-2.963,1.756-4.143
		l6.805-6.81c1.18-1.166,2.569-1.744,4.168-1.744h19.298c1.587,0,2.963,0.578,4.143,1.744l8.573,8.554l-3.671,3.561l-8.22-8.208
		c-0.313-0.334-0.694-0.498-1.166-0.498h-18.616c-0.471,0-0.864,0.164-1.18,0.498l-6.227,6.214
		c-0.328,0.354-0.511,0.728-0.511,1.154v8.377c0.104,0.93,0.603,1.481,1.506,1.652l32.933,4.057c1.48,0.203,2.713,0.846,3.658,1.908
		c0.97,1.074,1.455,2.372,1.493,3.893V58.391z M1164.652,60.195l-5.74,5.702c-0.343,0.335-0.723,0.498-1.154,0.498h-12.481
		c-0.432,0-0.812-0.163-1.153-0.498l-3.251-3.219c-0.341-0.314-0.498-0.688-0.498-1.173v-6.522c0-0.426,0.157-0.82,0.498-1.167
		l3.251-3.225c0.289-0.334,0.683-0.492,1.153-0.492h19.875v8.941C1165.151,59.506,1164.994,59.886,1164.652,60.195 M1170.395,64.985
		c-0.341-0.295-0.498-0.688-0.498-1.152V41.159c-0.052-1.653-0.629-3.049-1.756-4.202l-3.657-3.651
		c-1.102-1.102-2.452-1.652-4.077-1.665h-15.287c-1.625-0.032-2.976,0.518-4.091,1.665l-3.722,3.73l3.225,3.304l3.592-3.547
		c0.289-0.334,0.683-0.498,1.153-0.498h14.973c0.471,0,0.851,0.164,1.152,0.498l3.251,3.206c0.342,0.353,0.499,0.727,0.499,1.16
		v4.279h-20.124c-1.586,0-2.976,0.591-4.155,1.744l-3.487,3.495c-1.181,1.166-1.756,2.549-1.756,4.129v6.699
		c0,1.626,0.575,3.021,1.756,4.229l3.644,3.657c1.155,1.141,2.518,1.691,4.091,1.664h12.795c1.652,0.027,3.016-0.523,4.065-1.664
		l3.172-3.159l4.825,4.823l3.251-3.25L1170.395,64.985z M1120.237,71.096h-4.745V20.458h-8.391v-4.661h13.136V71.096z
		 M1093.729,62.678l-3.251,3.219c-0.341,0.335-0.734,0.498-1.153,0.498h-14.973c-0.432,0-0.812-0.163-1.166-0.498l-3.252-3.219
		c-0.327-0.314-0.498-0.688-0.498-1.16V41.172c0-0.472,0.171-0.845,0.498-1.155l3.252-3.224c0.354-0.334,0.734-0.498,1.166-0.498
		h14.973c0.419,0,0.812,0.164,1.153,0.498l3.251,3.224c0.328,0.31,0.498,0.683,0.498,1.155v19.933
		C1094.228,61.709,1094.058,62.232,1093.729,62.678 M1098.96,41.172c0-1.653-0.576-3.062-1.742-4.215l-3.658-3.651
		c-1.153-1.147-2.504-1.697-4.077-1.665h-15.312c-1.548-0.032-2.91,0.518-4.064,1.665l-3.67,3.651
		c-1.155,1.153-1.73,2.562-1.73,4.215v20.346c0,1.652,0.575,3.061,1.73,4.215l3.67,3.657c1.154,1.141,2.517,1.691,4.064,1.664
		h15.312c1.573,0.027,2.924-0.523,4.077-1.664l3.658-3.657c1.166-1.207,1.742-2.669,1.742-4.385V41.172z M1052.802,64.245
		l-5.152,5.146c-1.103,1.141-2.451,1.691-4.065,1.664h-15.298c-1.573,0.027-2.938-0.523-4.077-1.664l-3.658-3.657
		c-1.18-1.193-1.756-2.603-1.756-4.215V41.172c0-1.614,0.576-3.01,1.756-4.215l3.658-3.651c1.101-1.147,2.451-1.697,4.077-1.665
		h15.298c1.614-0.032,2.963,0.518,4.065,1.665l5.152,5.138l-3.304,3.304l-4.93-4.955c-0.302-0.334-0.682-0.498-1.154-0.498h-14.958
		c-0.485,0-0.853,0.164-1.166,0.498l-3.252,3.224c-0.315,0.348-0.498,0.735-0.498,1.155v20.346c0,0.433,0.183,0.806,0.498,1.16
		l3.252,3.219c0.313,0.335,0.681,0.498,1.166,0.498h14.958c0.473,0,0.853-0.163,1.154-0.498l4.93-4.956L1052.802,64.245z
		 M1004.688,55.979c-0.053-1.521-0.525-2.819-1.469-3.893c-0.93-1.062-2.137-1.691-3.618-1.895l-20.608-2.563
		c-0.944-0.189-1.429-0.741-1.521-1.652v-4.804c0-0.472,0.171-0.845,0.498-1.155l3.252-3.224c0.302-0.334,0.681-0.498,1.18-0.498
		h12.624c0.434,0,0.827,0.164,1.168,0.498l5.243,5.211l3.252-3.317l-5.428-5.381c-1.154-1.147-2.504-1.697-4.064-1.665h-12.979
		c-1.547-0.032-2.923,0.518-4.065,1.665l-3.669,3.651c-1.166,1.153-1.744,2.562-1.744,4.215v5.381
		c0.038,1.514,0.512,2.793,1.455,3.842c0.944,1.041,2.177,1.664,3.697,1.86l20.544,2.394c0.917,0.189,1.401,0.74,1.507,1.664v4.792
		c0.039,0.563-0.131,1.088-0.511,1.573l-3.238,3.219c-0.341,0.335-0.734,0.498-1.168,0.498h-12.624c-0.499,0-0.878-0.163-1.18-0.498
		l-5.323-5.29l-3.238,3.303l5.492,5.48c1.143,1.141,2.519,1.691,4.065,1.664h12.979c1.6-0.012,2.963-0.563,4.064-1.664l3.67-3.657
		c1.207-1.207,1.783-2.669,1.758-4.385V55.979z M956.051,71.096h-34.426V15.797h34.426v5.153h-29.274v19.868h29.274v5.158h-29.274
		v19.959h29.274V71.096z M1346.643,109.702l-12.061,32.763l-11.982-32.763h-5.06l14.444,39.5l-5.806,15.876h4.995l20.372-55.376
		H1346.643z M1304.481,149.229h-4.731V119.22c0-0.471-0.171-0.851-0.498-1.166l-3.252-3.238c-0.327-0.327-0.722-0.511-1.154-0.511
		h-8.822c-0.446,0-0.864,0.184-1.247,0.511l-7.234,7.224c-0.328,0.313-0.498,0.694-0.498,1.167v26.022h-4.733v-32.67l-1.665-6.908
		h4.812l1.587,6.568l4.823-4.812c1.18-1.166,2.558-1.757,4.156-1.757h8.993c1.56-0.039,2.91,0.537,4.064,1.666l3.657,3.67
		c1.165,1.153,1.743,2.569,1.743,4.233V149.229z M1226.164,125.368v-6.187c0-0.433,0.156-0.812,0.498-1.153l3.251-3.226
		c0.289-0.314,0.683-0.498,1.155-0.498h14.971c0.471,0,0.863,0.184,1.166,0.498l3.238,3.226c0.341,0.341,0.498,0.721,0.498,1.153
		v6.187H1226.164z M1255.687,119.182c0-1.651-0.589-3.042-1.743-4.223l-3.657-3.643c-1.153-1.129-2.517-1.705-4.077-1.666h-15.3
		c-1.612-0.039-2.964,0.537-4.091,1.666l-3.643,3.643c-1.168,1.207-1.744,2.61-1.744,4.223v20.346c0,1.612,0.576,3.016,1.744,4.222
		l3.643,3.671c1.155,1.127,2.518,1.678,4.091,1.652h15.3c1.6,0.025,2.977-0.525,4.077-1.652l5.139-5.165l-3.329-3.304l-4.891,4.969
		c-0.303,0.327-0.695,0.498-1.166,0.498h-14.971c-0.473,0-0.866-0.171-1.155-0.498l-3.251-3.238
		c-0.342-0.341-0.498-0.721-0.498-1.154v-9.412h29.522V119.182z M1207.286,139.37c0.053,1.705-0.524,3.173-1.73,4.379l-3.657,3.671
		c-1.114,1.075-2.479,1.625-4.078,1.652h-12.978c-1.574,0.025-2.924-0.525-4.077-1.652l-5.467-5.48l3.225-3.329l5.323,5.31
		c0.3,0.327,0.693,0.498,1.152,0.498h12.665c0.419,0,0.799-0.171,1.153-0.498l3.237-3.238c0.38-0.473,0.539-0.998,0.498-1.573
		v-4.786c-0.077-0.931-0.575-1.48-1.48-1.65l-20.557-2.4c-1.521-0.183-2.752-0.826-3.697-1.86c-0.943-1.049-1.416-2.334-1.441-3.854
		v-5.361c0-1.653,0.577-3.056,1.73-4.209l3.658-3.67c1.153-1.129,2.503-1.705,4.077-1.666h12.978
		c1.574-0.039,2.925,0.537,4.078,1.666l5.388,5.4l-3.226,3.303l-5.243-5.217c-0.354-0.314-0.734-0.498-1.153-0.498h-12.665
		c-0.459,0-0.853,0.184-1.152,0.498l-3.238,3.237c-0.341,0.303-0.499,0.683-0.499,1.155v4.783c0.079,0.933,0.577,1.482,1.481,1.653
		l20.635,2.569c1.482,0.21,2.701,0.839,3.618,1.914c0.944,1.049,1.416,2.358,1.442,3.88V139.37z M1161.074,133.995
		c-0.026-1.521-0.511-2.831-1.455-3.88c-0.918-1.075-2.124-1.704-3.618-1.914l-20.622-2.569c-0.905-0.171-1.429-0.721-1.508-1.653
		v-4.783c0-0.473,0.184-0.853,0.512-1.155l3.238-3.237c0.315-0.314,0.695-0.498,1.166-0.498h12.626c0.445,0,0.825,0.184,1.18,0.498
		l5.23,5.217l3.251-3.303l-5.414-5.4c-1.141-1.129-2.505-1.705-4.064-1.666h-12.979c-1.561-0.039-2.911,0.537-4.064,1.666
		l-3.67,3.67c-1.154,1.153-1.744,2.556-1.744,4.209v5.361c0.026,1.521,0.512,2.806,1.456,3.854c0.943,1.034,2.176,1.678,3.697,1.86
		l20.541,2.4c0.932,0.17,1.43,0.72,1.508,1.65v4.786c0.027,0.575-0.13,1.101-0.498,1.573l-3.25,3.238
		c-0.354,0.327-0.734,0.498-1.18,0.498h-12.626c-0.471,0-0.851-0.171-1.166-0.498l-5.323-5.31l-3.251,3.329l5.506,5.48
		c1.153,1.127,2.504,1.678,4.064,1.652h12.979c1.612-0.027,2.963-0.577,4.064-1.652l3.671-3.671
		c1.205-1.206,1.782-2.674,1.743-4.379V133.995z M1112.437,149.281h-4.732v-34.925h-8.417v-4.654h13.149V149.281z M1113.421,100.802
		h-6.975v-6.975h6.975V100.802z M1082.586,137.247l-6.239,6.214c-0.315,0.327-0.695,0.498-1.181,0.498h-21.355V98.966h21.355
		c0.485,0,0.865,0.17,1.181,0.499l6.239,6.213c0.328,0.34,0.498,0.734,0.498,1.168v29.234
		C1083.084,136.513,1082.914,136.905,1082.586,137.247 M1088.223,106.505c0-1.587-0.575-2.963-1.73-4.143l-6.816-6.806
		c-1.18-1.152-2.569-1.755-4.168-1.755h-26.85v55.322h26.85c1.599,0,2.988-0.604,4.168-1.757l6.816-6.805
		c1.155-1.179,1.73-2.556,1.73-4.155V106.505z M997.281,125.368v-6.187c0-0.433-0.172-0.812-0.498-1.153l-3.238-3.226
		c-0.314-0.314-0.708-0.498-1.18-0.498h-14.972c-0.473,0-0.852,0.184-1.154,0.498l-3.252,3.226
		c-0.327,0.341-0.483,0.721-0.483,1.153v6.187H997.281z M1002.015,130.115h-29.511v9.412c0,0.434,0.156,0.813,0.483,1.154
		l3.252,3.238c0.303,0.327,0.682,0.498,1.154,0.498h14.972c0.472,0,0.865-0.171,1.18-0.498l4.891-4.969l3.329,3.304l-5.152,5.165
		c-1.101,1.127-2.465,1.678-4.063,1.652h-15.312c-1.574,0.025-2.924-0.525-4.079-1.652l-3.656-3.671
		c-1.154-1.206-1.73-2.609-1.73-4.222v-20.346c0-1.612,0.576-3.016,1.73-4.223l3.656-3.643c1.114-1.129,2.479-1.705,4.079-1.666
		h15.312c1.546-0.039,2.91,0.537,4.063,1.666l3.67,3.643c1.154,1.181,1.732,2.571,1.732,4.223V130.115z M945.982,136.762
		l-7.236,7.197c-0.328,0.312-0.747,0.498-1.245,0.498h-10.895c-0.434,0-0.813-0.186-1.18-0.498l-3.226-3.225
		c-0.341-0.445-0.498-0.971-0.498-1.573v-19.928c0-0.471,0.157-0.864,0.498-1.166l3.226-3.225c0.366-0.329,0.746-0.499,1.18-0.499
		h10.895c0.498,0,0.917,0.17,1.245,0.499l7.236,7.196c0.327,0.342,0.485,0.734,0.485,1.153v12.403
		C946.468,136.027,946.31,136.407,945.982,136.762 M951.228,142.543V93.802h-4.76v22.443l-4.811-4.799
		c-1.181-1.167-2.569-1.744-4.156-1.744h-11.053c-1.572-0.039-2.936,0.524-4.089,1.653l-3.645,3.657
		c-1.181,1.153-1.758,2.569-1.758,4.221v20.176c0,1.705,0.577,3.16,1.758,4.393l3.645,3.645c1.153,1.128,2.517,1.704,4.089,1.678
		h11.053c1.587,0,2.976-0.604,4.156-1.771l4.811-4.81l1.429,6.581h4.654L951.228,142.543z M737.092,98.913h51.868l-25.747-68.164
		L737.092,98.913z M768.706,15.797l53.205,133.694h-13.817l-15.338-40.339h-59.84l-15.142,40.339H703.57L758.1,15.797H768.706z
		 M679.593,15.797l-42.22,116.271L596.47,15.797h-14.015l49.051,133.694h11.359l50.178-133.694H679.593z M486.859,98.913h51.876
		l-25.748-68.164L486.859,98.913z M518.473,15.797l53.213,133.694h-13.824l-15.332-40.339h-59.846l-15.141,40.339h-14.205
		l54.53-133.694H518.473z M420.328,30.769c-2.885-4.581-7.506-8.744-13.864-12.5c-6.352-3.75-15.188-5.749-26.489-5.958
		c-7.098-0.072-14,1.003-20.687,3.179c-6.699,2.176-12.244,5.814-16.616,10.926c-4.392,5.1-6.647,12.016-6.811,20.727
		c0.151,8.174,2.229,14.657,6.247,19.455c4.024,4.805,9.086,8.495,15.207,11.084c6.123,2.59,12.415,4.648,18.872,6.202
		c8.633,2.15,15.319,4.004,20.046,5.565c4.738,1.546,8.54,3.552,11.398,5.978c1.908,1.39,3.716,3.539,5.421,6.449
		c1.691,2.898,2.608,6.752,2.713,11.537c0.013,4.824-1.278,9.386-3.893,13.686c-2.616,4.302-6.674,7.801-12.147,10.515
		c-5.479,2.728-12.499,4.117-21.067,4.222c-7.073,0.053-13.667-1.258-19.77-3.945c-6.096-2.688-10.755-7.12-13.936-13.308
		c-2.215-4.876-3.29-10.068-3.224-15.508l-12.683,6.619c2.078,12.403,8.133,22.064,18.176,28.973
		c3.488,2.335,7.827,4.248,13.018,5.768c5.198,1.522,11.334,2.322,18.419,2.374c11.399-0.145,20.799-2.216,28.193-6.188
		c7.381-3.984,12.874-9.006,16.446-15.075c3.586-6.07,5.369-12.297,5.342-18.682c-0.242-8.39-2.379-15.051-6.404-19.967
		c-4.012-4.915-8.43-8.553-13.247-10.899c-4.838-2.354-8.567-3.868-11.209-4.557c-1.573-0.55-4.261-1.338-8.029-2.386
		c-3.79-1.037-7.533-2.058-11.276-3.048c-3.736-1.01-6.325-1.718-7.774-2.137c-2.66-0.708-5.735-1.849-9.209-3.436
		c-3.481-1.586-6.523-3.944-9.17-7.084c-2.628-3.147-4.012-7.401-4.163-12.77c0.139-5.905,1.776-10.605,4.956-14.092
		c3.18-3.507,7.17-6.017,11.95-7.532c4.777-1.534,9.622-2.268,14.538-2.23c5.853-0.025,11.287,1.057,16.335,3.233
		c5.034,2.177,9.25,5.585,12.631,10.205c1.494,2.026,2.674,4.078,3.559,6.176c0.873,2.09,1.587,4.011,2.118,5.755l11.746-6.444
		C425.106,38.969,423.218,35.331,420.328,30.769 M283.147,149.491h-12.69V15.797h12.69V149.491z M167.493,137.929V15.988h-12.874
		v133.687h86.721v-11.746H167.493z M104.402,137.745v11.746H12.378V15.797h87.285v11.747H25.062v47.523h67.594v11.745H25.062v50.933
		H104.402z"/>
</g>
</svg>
