<?xml version="1.0" encoding="utf-8"?>
<!-- Generator: Adobe Illustrator 16.0.0, SVG Export Plug-In . SVG Version: 6.00 Build 0)  -->
<!DOCTYPE svg PUBLIC "-//W3C//DTD SVG 1.1 Tiny//EN" "http://www.w3.org/Graphics/SVG/1.1/DTD/svg11-tiny.dtd">
<svg version="1.1" baseProfile="tiny" id="Layer_1" xmlns="http://www.w3.org/2000/svg" xmlns:xlink="http://www.w3.org/1999/xlink"
	 x="0px" y="0px" width="800px" height="597.789px" viewBox="0 0 800 597.789" xml:space="preserve">
<g>
	<path fill="none" d="M8.44,595.789h780.798c3.011,0,5.46-2.45,5.46-5.461V8.46c0-3.011-2.449-5.46-5.46-5.46H8.44
		C5.43,3,2.98,5.449,2.98,8.46v581.868C2.98,593.339,5.43,595.789,8.44,595.789z"/>
	<path fill="#FFFFFF" d="M8.44,597.789h780.798c4.12,0,7.46-3.341,7.46-7.461V8.46c0-4.12-3.34-7.46-7.46-7.46H8.44
		C4.32,1,0.98,4.34,0.98,8.46v581.868C0.98,594.448,4.32,597.789,8.44,597.789z M2.98,8.46C2.98,5.449,5.43,3,8.44,3h780.798
		c3.011,0,5.46,2.449,5.46,5.46v581.868c0,3.011-2.449,5.461-5.46,5.461H8.44c-3.011,0-5.46-2.45-5.46-5.461V8.46z"/>
</g>
<g>
	<path fill="none" d="M777.753,585.385c0.587-0.558,0.566-1.562,0.566-2.497c0-0.936,0.021-1.94-0.566-2.497
		c-0.199-0.189-0.488-0.318-0.856-0.318c-0.367,0-0.656,0.129-0.855,0.318c-0.587,0.557-0.566,1.562-0.566,2.497
		c0,0.935-0.021,1.939,0.566,2.497c0.199,0.188,0.488,0.318,0.855,0.318C777.265,585.703,777.554,585.573,777.753,585.385z"/>
	<path fill="none" d="M738.991,585.385c0.587-0.558,0.566-1.562,0.566-2.497c0-0.936,0.021-1.94-0.566-2.497
		c-0.199-0.189-0.488-0.318-0.856-0.318c-0.367,0-0.656,0.129-0.855,0.318c-0.587,0.557-0.566,1.562-0.566,2.497
		c0,0.935-0.021,1.939,0.566,2.497c0.199,0.188,0.488,0.318,0.855,0.318C738.503,585.703,738.792,585.573,738.991,585.385z"/>
	<path fill="none" d="M745.557,585.385c0.587-0.558,0.566-1.562,0.566-2.497c0-0.936,0.021-1.94-0.566-2.497
		c-0.199-0.189-0.488-0.318-0.855-0.318c-0.368,0-0.657,0.129-0.856,0.318c-0.587,0.557-0.566,1.562-0.566,2.497
		c0,0.935-0.021,1.939,0.566,2.497c0.199,0.188,0.488,0.318,0.856,0.318C745.068,585.703,745.357,585.573,745.557,585.385z"/>
	<path fill="none" d="M731.69,585.713c0.438,0,0.736-0.159,0.955-0.398c0.269-0.288,0.407-0.696,0.407-1.184
		s-0.148-0.896-0.407-1.184c-0.209-0.239-0.537-0.398-0.976-0.398c-0.438,0-0.756,0.18-0.965,0.418
		c-0.259,0.289-0.388,0.677-0.388,1.164s0.14,0.876,0.408,1.164C730.944,585.534,731.252,585.713,731.69,585.713z"/>
	<path fill="none" d="M783.461,580.072c-0.367,0-0.656,0.129-0.855,0.318c-0.587,0.557-0.566,1.562-0.566,2.497
		c0,0.935-0.021,1.939,0.566,2.497c0.199,0.188,0.488,0.318,0.855,0.318c0.368,0,0.657-0.13,0.856-0.318
		c0.587-0.558,0.566-1.562,0.566-2.497c0-0.936,0.021-1.94-0.566-2.497C784.118,580.201,783.829,580.072,783.461,580.072z"/>
	<path fill="#FFFFFF" d="M739.628,585.892c0.696-0.706,0.815-1.671,0.815-3.004s-0.119-2.309-0.815-3.015
		c-0.339-0.338-0.807-0.577-1.493-0.577c-0.686,0-1.153,0.239-1.492,0.577c-0.696,0.706-0.815,1.682-0.815,3.015
		s0.119,2.298,0.815,3.004c0.339,0.339,0.807,0.587,1.492,0.587C738.821,586.479,739.289,586.23,739.628,585.892z M736.713,582.888
		c0-0.936-0.021-1.94,0.566-2.497c0.199-0.189,0.488-0.318,0.855-0.318c0.368,0,0.657,0.129,0.856,0.318
		c0.587,0.557,0.566,1.562,0.566,2.497c0,0.935,0.021,1.939-0.566,2.497c-0.199,0.188-0.488,0.318-0.856,0.318
		c-0.367,0-0.656-0.13-0.855-0.318C736.692,584.827,736.713,583.822,736.713,582.888z"/>
	<path fill="#FFFFFF" d="M746.193,585.892c0.696-0.706,0.815-1.671,0.815-3.004s-0.119-2.309-0.815-3.015
		c-0.339-0.338-0.807-0.577-1.492-0.577c-0.687,0-1.154,0.239-1.493,0.577c-0.696,0.706-0.815,1.682-0.815,3.015
		s0.119,2.298,0.815,3.004c0.339,0.339,0.807,0.587,1.493,0.587C745.387,586.479,745.854,586.23,746.193,585.892z M743.278,582.888
		c0-0.936-0.021-1.94,0.566-2.497c0.199-0.189,0.488-0.318,0.856-0.318c0.367,0,0.656,0.129,0.855,0.318
		c0.587,0.557,0.566,1.562,0.566,2.497c0,0.935,0.021,1.939-0.566,2.497c-0.199,0.188-0.488,0.318-0.855,0.318
		c-0.368,0-0.657-0.13-0.856-0.318C743.258,584.827,743.278,583.822,743.278,582.888z"/>
	<polygon fill="#FFFFFF" points="752.896,586.35 754.209,584.37 755.532,586.35 756.547,586.35 754.796,583.783 756.497,581.315 
		755.522,581.315 754.259,583.216 752.945,581.315 751.951,581.315 753.642,583.783 751.931,586.35 	"/>
	<polygon fill="#FFFFFF" points="725.882,586.35 725.882,579.436 725.066,579.436 723.375,580.659 723.375,581.604 725.017,580.4 
		725.017,586.35 	"/>
	<path fill="#FFFFFF" d="M731.66,580.062c0.328,0,0.577,0.099,0.776,0.269c0.209,0.179,0.368,0.438,0.388,0.775h0.855
		c-0.02-0.507-0.248-0.935-0.557-1.243c-0.349-0.349-0.846-0.567-1.433-0.567c-0.876,0-1.473,0.418-1.801,0.936
		c-0.468,0.746-0.518,1.771-0.518,2.756c0,0.984,0.09,1.949,0.587,2.636c0.338,0.468,0.915,0.855,1.691,0.855
		c0.717,0,1.264-0.269,1.632-0.666c0.388-0.428,0.627-0.995,0.627-1.691c0-0.727-0.249-1.363-0.697-1.791
		c-0.328-0.318-0.825-0.537-1.452-0.537c-0.656,0-1.313,0.328-1.532,0.806c0.01-0.726,0.05-1.621,0.487-2.119
		C730.924,580.241,731.223,580.062,731.66,580.062z M730.705,582.967c0.209-0.238,0.527-0.418,0.965-0.418
		c0.438,0,0.767,0.159,0.976,0.398c0.259,0.288,0.407,0.696,0.407,1.184s-0.139,0.896-0.407,1.184
		c-0.219,0.239-0.518,0.398-0.955,0.398c-0.438,0-0.746-0.179-0.965-0.418c-0.269-0.288-0.408-0.677-0.408-1.164
		S730.446,583.256,730.705,582.967z"/>
	<polygon fill="#FFFFFF" points="764.652,586.35 764.652,579.436 763.837,579.436 762.146,580.659 762.146,581.604 763.787,580.4 
		763.787,586.35 	"/>
	<path fill="#FFFFFF" d="M778.39,585.892c0.696-0.706,0.815-1.671,0.815-3.004s-0.119-2.309-0.815-3.015
		c-0.339-0.338-0.807-0.577-1.493-0.577c-0.686,0-1.153,0.239-1.492,0.577c-0.696,0.706-0.815,1.682-0.815,3.015
		s0.119,2.298,0.815,3.004c0.339,0.339,0.807,0.587,1.492,0.587C777.583,586.479,778.051,586.23,778.39,585.892z M775.475,582.888
		c0-0.936-0.021-1.94,0.566-2.497c0.199-0.189,0.488-0.318,0.855-0.318c0.368,0,0.657,0.129,0.856,0.318
		c0.587,0.557,0.566,1.562,0.566,2.497c0,0.935,0.021,1.939-0.566,2.497c-0.199,0.188-0.488,0.318-0.856,0.318
		c-0.367,0-0.656-0.13-0.855-0.318C775.454,584.827,775.475,583.822,775.475,582.888z"/>
	<path fill="#FFFFFF" d="M772.302,581.166c0-0.438-0.109-0.775-0.318-1.074c-0.349-0.487-0.936-0.796-1.691-0.796
		c-1.224,0-2.04,0.815-2.04,2.02h0.876c0-0.915,0.557-1.253,1.174-1.253c0.727,0,1.134,0.407,1.134,1.113
		c0,0.358-0.119,0.667-0.378,0.995l-2.796,3.452v0.727h4.149v-0.796h-3.045l2.349-2.915
		C772.093,582.171,772.302,581.714,772.302,581.166z"/>
	<path fill="#FFFFFF" d="M783.461,579.296c-0.686,0-1.153,0.239-1.492,0.577c-0.696,0.706-0.815,1.682-0.815,3.015
		s0.119,2.298,0.815,3.004c0.339,0.339,0.807,0.587,1.492,0.587c0.687,0,1.154-0.248,1.493-0.587
		c0.696-0.706,0.815-1.671,0.815-3.004s-0.119-2.309-0.815-3.015C784.615,579.535,784.147,579.296,783.461,579.296z
		 M784.317,585.385c-0.199,0.188-0.488,0.318-0.856,0.318c-0.367,0-0.656-0.13-0.855-0.318c-0.587-0.558-0.566-1.562-0.566-2.497
		c0-0.936-0.021-1.94,0.566-2.497c0.199-0.189,0.488-0.318,0.855-0.318c0.368,0,0.657,0.129,0.856,0.318
		c0.587,0.557,0.566,1.562,0.566,2.497C784.884,583.822,784.904,584.827,784.317,585.385z"/>
</g>
<g>
	<path fill="none" d="M8.44,446.591h581.868c3.011,0,5.461-2.449,5.461-5.459V8.46c0-3.011-2.45-5.46-5.461-5.46H8.44
		C5.43,3,2.98,5.449,2.98,8.46v432.672C2.98,444.142,5.43,446.591,8.44,446.591z"/>
	<path fill="#FFFFFF" d="M8.44,448.591h581.868c4.12,0,7.461-3.339,7.461-7.459V8.46c0-4.12-3.341-7.46-7.461-7.46H8.44
		C4.32,1,0.98,4.34,0.98,8.46v432.672C0.98,445.252,4.32,448.591,8.44,448.591z M2.98,8.46C2.98,5.449,5.43,3,8.44,3h581.868
		c3.011,0,5.461,2.449,5.461,5.46v432.672c0,3.01-2.45,5.459-5.461,5.459H8.44c-3.011,0-5.46-2.449-5.46-5.459V8.46z"/>
</g>
<g>
	<path fill="none" d="M553.192,436.188c0.587-0.558,0.566-1.562,0.566-2.497c0-0.936,0.021-1.94-0.566-2.497
		c-0.199-0.189-0.488-0.318-0.856-0.318c-0.367,0-0.656,0.129-0.855,0.318c-0.587,0.557-0.566,1.562-0.566,2.497
		c0,0.935-0.021,1.939,0.566,2.497c0.199,0.188,0.488,0.318,0.855,0.318C552.704,436.506,552.993,436.376,553.192,436.188z"/>
	<path fill="none" d="M571.333,430.865c-0.438,0-0.736,0.158-0.955,0.397c-0.269,0.288-0.408,0.696-0.408,1.184
		s0.149,0.896,0.408,1.185c0.209,0.238,0.537,0.397,0.975,0.397c0.438,0,0.757-0.179,0.966-0.418
		c0.258-0.288,0.388-0.677,0.388-1.164s-0.14-0.875-0.408-1.164C572.079,431.044,571.771,430.865,571.333,430.865z"/>
	<path fill="none" d="M546.627,436.188c0.587-0.558,0.566-1.562,0.566-2.497c0-0.936,0.021-1.94-0.566-2.497
		c-0.199-0.189-0.488-0.318-0.855-0.318c-0.368,0-0.657,0.129-0.856,0.318c-0.587,0.557-0.566,1.562-0.566,2.497
		c0,0.935-0.021,1.939,0.566,2.497c0.199,0.188,0.488,0.318,0.856,0.318C546.139,436.506,546.428,436.376,546.627,436.188z"/>
	<path fill="none" d="M584.523,430.875c-0.368,0-0.657,0.129-0.856,0.318c-0.587,0.557-0.566,1.562-0.566,2.497
		c0,0.935-0.021,1.939,0.566,2.497c0.199,0.188,0.488,0.318,0.856,0.318c0.367,0,0.656-0.13,0.855-0.318
		c0.587-0.558,0.566-1.562,0.566-2.497c0-0.936,0.021-1.94-0.566-2.497C585.18,431.004,584.891,430.875,584.523,430.875z"/>
	<path fill="none" d="M578.823,436.188c0.587-0.558,0.566-1.562,0.566-2.497c0-0.936,0.021-1.94-0.566-2.497
		c-0.199-0.189-0.488-0.318-0.856-0.318c-0.367,0-0.656,0.129-0.855,0.318c-0.587,0.557-0.566,1.562-0.566,2.497
		c0,0.935-0.021,1.939,0.566,2.497c0.199,0.188,0.488,0.318,0.855,0.318C578.335,436.506,578.624,436.376,578.823,436.188z"/>
	<polygon fill="#F7F8F8" points="560.531,437.152 561.845,435.173 563.168,437.152 564.183,437.152 562.432,434.586 
		564.133,432.118 563.158,432.118 561.895,434.019 560.581,432.118 559.587,432.118 561.277,434.586 559.566,437.152 	"/>
	<polygon fill="#F7F8F8" points="533.518,437.152 533.518,430.238 532.702,430.238 531.011,431.462 531.011,432.407 
		532.652,431.203 532.652,437.152 	"/>
	<path fill="#F7F8F8" d="M547.264,436.694c0.696-0.706,0.815-1.671,0.815-3.004s-0.119-2.309-0.815-3.015
		c-0.339-0.338-0.807-0.577-1.492-0.577c-0.687,0-1.154,0.239-1.493,0.577c-0.696,0.706-0.815,1.682-0.815,3.015
		s0.119,2.298,0.815,3.004c0.339,0.339,0.807,0.587,1.493,0.587C546.457,437.281,546.925,437.033,547.264,436.694z M544.349,433.69
		c0-0.936-0.021-1.94,0.566-2.497c0.199-0.189,0.488-0.318,0.856-0.318c0.367,0,0.656,0.129,0.855,0.318
		c0.587,0.557,0.566,1.562,0.566,2.497c0,0.935,0.021,1.939-0.566,2.497c-0.199,0.188-0.488,0.318-0.855,0.318
		c-0.368,0-0.657-0.13-0.856-0.318C544.328,435.63,544.349,434.625,544.349,433.69z"/>
	<path fill="#F7F8F8" d="M553.829,436.694c0.696-0.706,0.815-1.671,0.815-3.004s-0.119-2.309-0.815-3.015
		c-0.339-0.338-0.807-0.577-1.493-0.577c-0.686,0-1.153,0.239-1.492,0.577c-0.696,0.706-0.815,1.682-0.815,3.015
		s0.119,2.298,0.815,3.004c0.339,0.339,0.807,0.587,1.492,0.587C553.022,437.281,553.49,437.033,553.829,436.694z M550.914,433.69
		c0-0.936-0.021-1.94,0.566-2.497c0.199-0.189,0.488-0.318,0.855-0.318c0.368,0,0.657,0.129,0.856,0.318
		c0.587,0.557,0.566,1.562,0.566,2.497c0,0.935,0.021,1.939-0.566,2.497c-0.199,0.188-0.488,0.318-0.856,0.318
		c-0.367,0-0.656-0.13-0.855-0.318C550.894,435.63,550.914,434.625,550.914,433.69z"/>
	<path fill="#F7F8F8" d="M541.177,431.969c0-0.438-0.109-0.775-0.318-1.074c-0.349-0.487-0.936-0.796-1.691-0.796
		c-1.224,0-2.04,0.815-2.04,2.02h0.876c0-0.915,0.557-1.253,1.174-1.253c0.727,0,1.134,0.407,1.134,1.113
		c0,0.358-0.119,0.667-0.378,0.995l-2.796,3.452v0.727h4.149v-0.796h-3.045l2.349-2.915
		C540.968,432.974,541.177,432.517,541.177,431.969z"/>
	<path fill="#F7F8F8" d="M571.363,436.516c-0.329,0-0.577-0.09-0.776-0.269c-0.209-0.179-0.368-0.438-0.388-0.776h-0.855
		c0.02,0.508,0.248,0.936,0.557,1.244c0.349,0.357,0.846,0.566,1.433,0.566c0.876,0,1.473-0.417,1.801-0.935
		c0.468-0.746,0.518-1.771,0.518-2.756c0-0.976-0.09-1.95-0.587-2.637c-0.339-0.457-0.916-0.855-1.691-0.855
		c-0.717,0-1.264,0.269-1.632,0.667c-0.388,0.428-0.627,0.994-0.627,1.691c0,0.735,0.249,1.362,0.696,1.79
		c0.328,0.318,0.826,0.537,1.453,0.537c0.656,0,1.312-0.328,1.532-0.806c-0.011,0.727-0.05,1.622-0.488,2.119
		C572.099,436.337,571.801,436.516,571.363,436.516z M572.318,433.61c-0.209,0.239-0.527,0.418-0.966,0.418
		c-0.438,0-0.766-0.159-0.975-0.397c-0.259-0.289-0.408-0.697-0.408-1.185s0.14-0.896,0.408-1.184
		c0.219-0.239,0.518-0.397,0.955-0.397s0.746,0.179,0.965,0.417c0.269,0.289,0.408,0.677,0.408,1.164
		S572.576,433.322,572.318,433.61z"/>
	<path fill="#F7F8F8" d="M579.46,436.694c0.696-0.706,0.815-1.671,0.815-3.004s-0.119-2.309-0.815-3.015
		c-0.339-0.338-0.807-0.577-1.493-0.577c-0.686,0-1.153,0.239-1.492,0.577c-0.696,0.706-0.815,1.682-0.815,3.015
		s0.119,2.298,0.815,3.004c0.339,0.339,0.807,0.587,1.492,0.587C578.653,437.281,579.121,437.033,579.46,436.694z M576.545,433.69
		c0-0.936-0.021-1.94,0.566-2.497c0.199-0.189,0.488-0.318,0.855-0.318c0.368,0,0.657,0.129,0.856,0.318
		c0.587,0.557,0.566,1.562,0.566,2.497c0,0.935,0.021,1.939-0.566,2.497c-0.199,0.188-0.488,0.318-0.856,0.318
		c-0.367,0-0.656-0.13-0.855-0.318C576.524,435.63,576.545,434.625,576.545,433.69z"/>
	<path fill="#F7F8F8" d="M584.523,430.099c-0.687,0-1.154,0.239-1.493,0.577c-0.696,0.706-0.815,1.682-0.815,3.015
		s0.119,2.298,0.815,3.004c0.339,0.339,0.807,0.587,1.493,0.587c0.686,0,1.153-0.248,1.492-0.587
		c0.696-0.706,0.815-1.671,0.815-3.004s-0.119-2.309-0.815-3.015C585.677,430.338,585.209,430.099,584.523,430.099z
		 M585.379,436.188c-0.199,0.188-0.488,0.318-0.855,0.318c-0.368,0-0.657-0.13-0.856-0.318c-0.587-0.558-0.566-1.562-0.566-2.497
		c0-0.936-0.021-1.94,0.566-2.497c0.199-0.189,0.488-0.318,0.856-0.318c0.367,0,0.656,0.129,0.855,0.318
		c0.587,0.557,0.566,1.562,0.566,2.497C585.945,434.625,585.966,435.63,585.379,436.188z"/>
</g>
<g>
	<path fill="none" d="M8.44,380.944h494.34c3.011,0,5.46-2.449,5.46-5.46V8.46c0-3.011-2.449-5.46-5.46-5.46H8.44
		C5.43,3,2.98,5.449,2.98,8.46v367.024C2.98,378.495,5.43,380.944,8.44,380.944z"/>
	<path fill="#FFFFFF" d="M8.44,382.944h494.34c4.12,0,7.46-3.34,7.46-7.46V8.46c0-4.12-3.34-7.46-7.46-7.46H8.44
		C4.32,1,0.98,4.34,0.98,8.46v367.024C0.98,379.604,4.32,382.944,8.44,382.944z M2.98,8.46C2.98,5.449,5.43,3,8.44,3h494.34
		c3.011,0,5.46,2.449,5.46,5.46v367.024c0,3.011-2.449,5.46-5.46,5.46H8.44c-3.011,0-5.46-2.449-5.46-5.46V8.46z"/>
</g>
<g>
	<path fill="none" d="M496.992,367.536c0.797,0,1.244-0.557,1.244-1.194c0-0.706-0.558-1.144-1.244-1.144
		c-0.686,0-1.243,0.438-1.243,1.144C495.749,366.979,496.197,367.536,496.992,367.536z"/>
	<path fill="none" d="M490.557,370.869c0.438,0,0.736-0.159,0.955-0.398c0.269-0.289,0.407-0.696,0.407-1.184
		c0-0.487-0.148-0.895-0.407-1.184c-0.209-0.239-0.537-0.398-0.976-0.398c-0.438,0-0.756,0.179-0.965,0.417
		c-0.259,0.289-0.388,0.677-0.388,1.164c0,0.488,0.139,0.875,0.408,1.164C489.811,370.69,490.119,370.869,490.557,370.869z"/>
	<path fill="none" d="M452.532,370.541c0.587-0.557,0.566-1.562,0.566-2.497c0-0.936,0.021-1.94-0.566-2.498
		c-0.199-0.189-0.488-0.318-0.856-0.318c-0.367,0-0.656,0.129-0.855,0.318c-0.587,0.557-0.566,1.562-0.566,2.498
		c0,0.935-0.021,1.94,0.566,2.497c0.199,0.189,0.488,0.318,0.855,0.318C452.044,370.859,452.333,370.73,452.532,370.541z"/>
	<path fill="none" d="M496.992,368.272c-0.875,0-1.383,0.557-1.383,1.293c0,0.816,0.577,1.323,1.383,1.323
		c0.807,0,1.384-0.507,1.384-1.323C498.376,368.83,497.868,368.272,496.992,368.272z"/>
	<polygon fill="#FFFFFF" points="464.945,364.591 462.319,369.148 462.319,370.033 465.492,370.033 465.492,371.506 
		466.349,371.506 466.349,370.033 467.283,370.033 467.283,369.268 466.349,369.268 466.349,367.208 465.492,367.208 
		465.492,369.268 463.135,369.268 465.841,364.591 	"/>
	<polygon fill="#FFFFFF" points="473.001,371.506 474.314,369.526 475.638,371.506 476.652,371.506 474.901,368.939 
		476.603,366.472 475.628,366.472 474.364,368.372 473.051,366.472 472.057,366.472 473.747,368.939 472.036,371.506 	"/>
	<polygon fill="#FFFFFF" points="445.987,371.506 445.987,364.591 445.172,364.591 443.48,365.815 443.48,366.76 445.122,365.557 
		445.122,371.506 	"/>
	<path fill="#FFFFFF" d="M453.169,371.048c0.696-0.707,0.815-1.671,0.815-3.004c0-1.333-0.119-2.309-0.815-3.015
		c-0.339-0.338-0.807-0.577-1.493-0.577c-0.686,0-1.153,0.239-1.492,0.577c-0.696,0.706-0.815,1.681-0.815,3.015
		c0,1.333,0.119,2.298,0.815,3.004c0.339,0.338,0.807,0.587,1.492,0.587C452.362,371.635,452.83,371.387,453.169,371.048z
		 M450.254,368.044c0-0.936-0.021-1.94,0.566-2.498c0.199-0.189,0.488-0.318,0.855-0.318c0.368,0,0.657,0.129,0.856,0.318
		c0.587,0.557,0.566,1.562,0.566,2.498c0,0.935,0.021,1.94-0.566,2.497c-0.199,0.189-0.488,0.318-0.856,0.318
		c-0.367,0-0.656-0.129-0.855-0.318C450.233,369.984,450.254,368.979,450.254,368.044z"/>
	<path fill="#FFFFFF" d="M460.211,366.323c0-0.438-0.109-0.776-0.318-1.075c-0.349-0.487-0.936-0.796-1.691-0.796
		c-1.224,0-2.04,0.816-2.04,2.02h0.876c0-0.915,0.557-1.253,1.174-1.253c0.727,0,1.134,0.408,1.134,1.114
		c0,0.358-0.119,0.667-0.378,0.995l-2.795,3.453v0.726h4.148v-0.796h-3.045l2.349-2.915
		C460.002,367.327,460.211,366.87,460.211,366.323z"/>
	<polygon fill="#FFFFFF" points="483.176,371.506 486.031,365.357 486.031,364.591 481.594,364.591 481.594,365.357 
		485.136,365.357 482.261,371.506 	"/>
	<path fill="#FFFFFF" d="M490.526,365.218c0.328,0,0.577,0.1,0.776,0.269c0.209,0.179,0.368,0.438,0.388,0.776h0.855
		c-0.02-0.507-0.248-0.935-0.557-1.243c-0.349-0.349-0.846-0.567-1.433-0.567c-0.876,0-1.473,0.418-1.801,0.935
		c-0.468,0.747-0.518,1.771-0.518,2.756s0.09,1.95,0.587,2.637c0.339,0.467,0.915,0.855,1.691,0.855
		c0.716,0,1.264-0.269,1.632-0.667c0.388-0.428,0.627-0.995,0.627-1.691c0-0.726-0.249-1.363-0.697-1.791
		c-0.328-0.318-0.825-0.537-1.452-0.537c-0.656,0-1.313,0.329-1.532,0.806c0.01-0.727,0.05-1.622,0.487-2.119
		C489.79,365.397,490.089,365.218,490.526,365.218z M489.571,368.123c0.209-0.238,0.527-0.417,0.965-0.417
		c0.438,0,0.767,0.159,0.976,0.398c0.259,0.289,0.407,0.696,0.407,1.184c0,0.488-0.139,0.896-0.407,1.184
		c-0.219,0.239-0.518,0.398-0.955,0.398s-0.746-0.179-0.965-0.418c-0.27-0.289-0.408-0.676-0.408-1.164
		C489.184,368.8,489.312,368.412,489.571,368.123z"/>
	<path fill="#FFFFFF" d="M498.146,367.904c0.567-0.298,0.945-0.896,0.945-1.562c0-0.567-0.229-1.015-0.567-1.333
		c-0.388-0.358-0.925-0.557-1.532-0.557c-0.606,0-1.144,0.199-1.531,0.557c-0.339,0.318-0.567,0.766-0.567,1.333
		c0,0.667,0.378,1.264,0.945,1.562c-0.637,0.289-1.085,0.945-1.085,1.701c0,0.527,0.18,0.945,0.458,1.273
		c0.408,0.488,1.055,0.756,1.78,0.756c0.727,0,1.373-0.269,1.781-0.756c0.278-0.328,0.458-0.746,0.458-1.273
		C499.231,368.85,498.783,368.193,498.146,367.904z M495.749,366.342c0-0.706,0.558-1.144,1.243-1.144
		c0.687,0,1.244,0.438,1.244,1.144c0,0.637-0.447,1.194-1.244,1.194C496.197,367.536,495.749,366.979,495.749,366.342z
		 M496.992,370.889c-0.806,0-1.383-0.507-1.383-1.323c0-0.736,0.508-1.293,1.383-1.293c0.876,0,1.384,0.557,1.384,1.293
		C498.376,370.382,497.799,370.889,496.992,370.889z"/>
</g>
<g>
	<path fill="none" d="M8.44,357.073h223.795c3.011,0,5.46-2.449,5.46-5.46V8.46c0-3.011-2.449-5.46-5.46-5.46H8.44
		C5.43,3,2.98,5.449,2.98,8.46v343.153C2.98,354.624,5.43,357.073,8.44,357.073z"/>
	<path fill="#FFFFFF" d="M8.44,359.073h223.795c4.12,0,7.46-3.34,7.46-7.46V8.46c0-4.12-3.34-7.46-7.46-7.46H8.44
		C4.32,1,0.98,4.34,0.98,8.46v343.153C0.98,355.733,4.32,359.073,8.44,359.073z M2.98,8.46C2.98,5.449,5.43,3,8.44,3h223.795
		c3.011,0,5.46,2.449,5.46,5.46v343.153c0,3.011-2.449,5.46-5.46,5.46H8.44c-3.011,0-5.46-2.449-5.46-5.46V8.46z"/>
</g>
<g>
	<path fill="none" d="M187.199,347.019c0.806,0,1.383-0.507,1.383-1.323c0-0.736-0.507-1.293-1.383-1.293s-1.383,0.557-1.383,1.293
		C185.816,346.511,186.394,347.019,187.199,347.019z"/>
	<path fill="none" d="M187.199,343.666c0.796,0,1.244-0.557,1.244-1.194c0-0.706-0.557-1.144-1.244-1.144s-1.244,0.438-1.244,1.144
		C185.956,343.108,186.403,343.666,187.199,343.666z"/>
	<path fill="none" d="M194.62,346.67c0.587-0.557,0.567-1.562,0.567-2.498c0-0.935,0.02-1.94-0.567-2.497
		c-0.199-0.189-0.487-0.318-0.855-0.318s-0.657,0.129-0.855,0.318c-0.587,0.557-0.567,1.562-0.567,2.497
		c0,0.936-0.02,1.94,0.567,2.498c0.199,0.189,0.487,0.318,0.855,0.318S194.421,346.859,194.62,346.67z"/>
	<path fill="none" d="M225.96,341.357c-0.368,0-0.657,0.129-0.855,0.318c-0.587,0.557-0.567,1.562-0.567,2.497
		c0,0.936-0.02,1.94,0.567,2.498c0.199,0.189,0.487,0.318,0.855,0.318s0.657-0.129,0.855-0.318c0.587-0.557,0.567-1.562,0.567-2.498
		c0-0.935,0.02-1.94-0.567-2.497C226.617,341.487,226.329,341.357,225.96,341.357z"/>
	<polygon fill="#FFFFFF" points="180.774,340.721 178.147,345.277 178.147,346.163 181.321,346.163 181.321,347.635 
		182.177,347.635 182.177,346.163 183.112,346.163 183.112,345.397 182.177,345.397 182.177,343.337 181.321,343.337 
		181.321,345.397 178.963,345.397 181.669,340.721 	"/>
	<polygon fill="#FFFFFF" points="212.135,347.635 214.99,341.487 214.99,340.721 210.553,340.721 210.553,341.487 214.095,341.487 
		211.22,347.635 	"/>
	<polygon fill="#FFFFFF" points="201.959,347.635 203.272,345.655 204.596,347.635 205.61,347.635 203.859,345.068 205.561,342.601 
		204.586,342.601 203.322,344.501 202.009,342.601 201.014,342.601 202.706,345.068 200.994,347.635 	"/>
	<path fill="#FFFFFF" d="M195.256,347.178c0.697-0.707,0.816-1.671,0.816-3.005c0-1.333-0.119-2.308-0.816-3.014
		c-0.338-0.338-0.806-0.577-1.492-0.577s-1.154,0.239-1.492,0.577c-0.697,0.707-0.816,1.681-0.816,3.014
		c0,1.333,0.119,2.298,0.816,3.005c0.338,0.338,0.806,0.587,1.492,0.587S194.918,347.516,195.256,347.178z M192.341,344.173
		c0-0.935-0.02-1.94,0.567-2.497c0.199-0.189,0.487-0.318,0.855-0.318s0.657,0.129,0.855,0.318c0.587,0.557,0.567,1.562,0.567,2.497
		c0,0.936,0.02,1.94-0.567,2.498c-0.199,0.189-0.487,0.318-0.855,0.318s-0.657-0.129-0.855-0.318
		C192.322,346.113,192.341,345.108,192.341,344.173z"/>
	<path fill="#FFFFFF" d="M184.961,345.735c0,0.527,0.179,0.945,0.458,1.273c0.408,0.488,1.055,0.756,1.781,0.756
		s1.373-0.269,1.781-0.756c0.279-0.328,0.458-0.746,0.458-1.273c0-0.756-0.447-1.413-1.084-1.701
		c0.567-0.298,0.945-0.895,0.945-1.562c0-0.567-0.229-1.015-0.567-1.333c-0.388-0.358-0.925-0.557-1.532-0.557
		s-1.144,0.199-1.532,0.557c-0.338,0.318-0.567,0.766-0.567,1.333c0,0.667,0.378,1.264,0.945,1.562
		C185.408,344.322,184.961,344.979,184.961,345.735z M185.956,342.472c0-0.706,0.557-1.144,1.244-1.144s1.244,0.438,1.244,1.144
		c0,0.637-0.448,1.194-1.244,1.194S185.956,343.108,185.956,342.472z M187.199,344.402c0.875,0,1.383,0.557,1.383,1.293
		c0,0.816-0.577,1.323-1.383,1.323s-1.383-0.507-1.383-1.323C185.816,344.959,186.324,344.402,187.199,344.402z"/>
	<path fill="#FFFFFF" d="M221.375,342.452c0-0.438-0.109-0.776-0.318-1.075c-0.348-0.487-0.935-0.796-1.691-0.796
		c-1.224,0-2.04,0.816-2.04,2.02h0.875c0-0.915,0.557-1.253,1.174-1.253c0.726,0,1.134,0.408,1.134,1.114
		c0,0.358-0.12,0.667-0.378,0.995l-2.795,3.452v0.726h4.148v-0.796h-3.044l2.348-2.915
		C221.167,343.457,221.375,342.999,221.375,342.452z"/>
	<path fill="#FFFFFF" d="M225.96,340.582c-0.687,0-1.154,0.239-1.492,0.577c-0.697,0.707-0.816,1.681-0.816,3.014
		c0,1.333,0.119,2.298,0.816,3.005c0.338,0.338,0.806,0.587,1.492,0.587s1.154-0.249,1.492-0.587
		c0.697-0.707,0.816-1.671,0.816-3.005c0-1.333-0.119-2.308-0.816-3.014C227.114,340.82,226.647,340.582,225.96,340.582z
		 M226.816,346.67c-0.199,0.189-0.487,0.318-0.855,0.318s-0.657-0.129-0.855-0.318c-0.587-0.557-0.567-1.562-0.567-2.498
		c0-0.935-0.02-1.94,0.567-2.497c0.199-0.189,0.487-0.318,0.855-0.318s0.657,0.129,0.855,0.318c0.587,0.557,0.567,1.562,0.567,2.497
		C227.383,345.108,227.403,346.113,226.816,346.67z"/>
</g>
<g>
	<path fill="none" d="M8.44,237.715h144.224c3.011,0,5.46-2.449,5.46-5.46V8.46c0-3.011-2.449-5.46-5.46-5.46H8.44
		C5.43,3,2.98,5.449,2.98,8.46v223.795C2.98,235.266,5.43,237.715,8.44,237.715z"/>
	<path fill="#F7F8F8" d="M8.44,239.715h144.224c4.12,0,7.46-3.34,7.46-7.46V8.46c0-4.12-3.34-7.46-7.46-7.46H8.44
		C4.32,1,0.98,4.34,0.98,8.46v223.795C0.98,236.375,4.32,239.715,8.44,239.715z M2.98,8.46C2.98,5.449,5.43,3,8.44,3h144.224
		c3.011,0,5.46,2.449,5.46,5.46v223.795c0,3.011-2.449,5.46-5.46,5.46H8.44c-3.011,0-5.46-2.449-5.46-5.46V8.46z"/>
</g>
<g>
	<path fill="none" d="M139.834,224.308c0.796,0,1.244-0.557,1.244-1.194c0-0.706-0.557-1.144-1.244-1.144s-1.244,0.438-1.244,1.144
		C138.591,223.75,139.039,224.308,139.834,224.308z"/>
	<path fill="none" d="M115.048,227.312c0.587-0.557,0.567-1.562,0.567-2.497c0-0.936,0.02-1.94-0.567-2.498
		c-0.199-0.189-0.487-0.318-0.855-0.318s-0.657,0.129-0.855,0.318c-0.587,0.557-0.567,1.562-0.567,2.498
		c0,0.935-0.02,1.94,0.567,2.497c0.199,0.189,0.487,0.318,0.855,0.318S114.85,227.501,115.048,227.312z"/>
	<path fill="none" d="M139.834,227.661c0.806,0,1.383-0.507,1.383-1.323c0-0.736-0.507-1.293-1.383-1.293s-1.383,0.557-1.383,1.293
		C138.452,227.153,139.029,227.661,139.834,227.661z"/>
	<path fill="none" d="M146.389,222c-0.368,0-0.657,0.129-0.855,0.318c-0.587,0.557-0.567,1.562-0.567,2.498
		c0,0.935-0.02,1.94,0.567,2.497c0.199,0.189,0.487,0.318,0.855,0.318s0.657-0.129,0.855-0.318c0.587-0.557,0.567-1.562,0.567-2.497
		c0-0.936,0.02-1.94-0.567-2.498C147.046,222.129,146.757,222,146.389,222z"/>
	<polygon fill="#FFFFFF" points="133.409,221.363 130.783,225.919 130.783,226.805 133.957,226.805 133.957,228.277 
		134.812,228.277 134.812,226.805 135.747,226.805 135.747,226.039 134.812,226.039 134.812,223.979 133.957,223.979 
		133.957,226.039 131.599,226.039 134.305,221.363 	"/>
	<polygon fill="#FFFFFF" points="122.388,228.277 123.701,226.297 125.024,228.277 126.039,228.277 124.288,225.71 125.989,223.243 
		125.015,223.243 123.751,225.144 122.438,223.243 121.443,223.243 123.134,225.71 121.423,228.277 	"/>
	<path fill="#FFFFFF" d="M115.685,227.82c0.697-0.707,0.816-1.671,0.816-3.004c0-1.333-0.119-2.309-0.816-3.015
		c-0.338-0.338-0.806-0.577-1.492-0.577s-1.154,0.239-1.492,0.577c-0.697,0.706-0.816,1.681-0.816,3.015
		c0,1.333,0.119,2.298,0.816,3.004c0.338,0.338,0.806,0.587,1.492,0.587S115.347,228.158,115.685,227.82z M112.77,224.815
		c0-0.936-0.02-1.94,0.567-2.498c0.199-0.189,0.487-0.318,0.855-0.318s0.657,0.129,0.855,0.318c0.587,0.557,0.567,1.562,0.567,2.498
		c0,0.935,0.02,1.94-0.567,2.497c-0.199,0.189-0.487,0.318-0.855,0.318s-0.657-0.129-0.855-0.318
		C112.75,226.755,112.77,225.75,112.77,224.815z"/>
	<path fill="#FFFFFF" d="M109.598,223.094c0-0.438-0.109-0.776-0.318-1.075c-0.348-0.487-0.935-0.796-1.691-0.796
		c-1.224,0-2.039,0.816-2.039,2.02h0.875c0-0.915,0.557-1.253,1.174-1.253c0.726,0,1.134,0.408,1.134,1.114
		c0,0.358-0.12,0.667-0.378,0.995l-2.795,3.453v0.726h4.148v-0.796h-3.044l2.348-2.915
		C109.389,224.099,109.598,223.641,109.598,223.094z"/>
	<path fill="#FFFFFF" d="M100.994,227.641c-0.438,0-0.736-0.159-0.945-0.388c-0.229-0.239-0.338-0.567-0.358-0.955h-0.865
		c0.01,0.637,0.229,1.125,0.587,1.482c0.388,0.388,0.915,0.627,1.582,0.627c0.776,0,1.303-0.239,1.671-0.627
		c0.338-0.358,0.527-0.855,0.527-1.393c0-0.716-0.418-1.443-1.154-1.691c0.567-0.239,1.015-0.916,1.015-1.562
		c0-0.597-0.209-1.035-0.557-1.353c-0.368-0.348-0.896-0.557-1.473-0.557c-0.597,0-1.094,0.179-1.482,0.498
		c-0.408,0.338-0.657,0.835-0.667,1.522h0.865c0.01-0.418,0.149-0.756,0.418-0.975c0.209-0.169,0.468-0.279,0.846-0.279
		s0.656,0.149,0.846,0.338c0.219,0.209,0.328,0.487,0.328,0.806c0,0.727-0.478,1.164-1.273,1.164h-0.418v0.786h0.418
		c0.846,0,1.423,0.438,1.423,1.283c0,0.378-0.14,0.667-0.329,0.875C101.76,227.511,101.412,227.641,100.994,227.641z"/>
	<path fill="#FFFFFF" d="M137.596,226.377c0,0.527,0.179,0.945,0.458,1.273c0.408,0.488,1.055,0.756,1.781,0.756
		s1.373-0.269,1.781-0.756c0.279-0.328,0.458-0.746,0.458-1.273c0-0.756-0.448-1.413-1.084-1.701
		c0.567-0.298,0.945-0.896,0.945-1.562c0-0.567-0.229-1.015-0.567-1.333c-0.388-0.358-0.925-0.557-1.532-0.557
		s-1.144,0.199-1.532,0.557c-0.338,0.318-0.567,0.766-0.567,1.333c0,0.667,0.378,1.264,0.945,1.562
		C138.044,224.964,137.596,225.621,137.596,226.377z M138.591,223.114c0-0.706,0.557-1.144,1.244-1.144s1.244,0.438,1.244,1.144
		c0,0.637-0.448,1.194-1.244,1.194S138.591,223.75,138.591,223.114z M139.834,225.044c0.875,0,1.383,0.557,1.383,1.293
		c0,0.816-0.577,1.323-1.383,1.323s-1.383-0.507-1.383-1.323C138.452,225.601,138.959,225.044,139.834,225.044z"/>
	<path fill="#FFFFFF" d="M146.389,221.224c-0.687,0-1.154,0.239-1.492,0.577c-0.697,0.706-0.816,1.681-0.816,3.015
		c0,1.333,0.119,2.298,0.816,3.004c0.338,0.338,0.806,0.587,1.492,0.587s1.154-0.249,1.492-0.587
		c0.697-0.707,0.816-1.671,0.816-3.004c0-1.333-0.119-2.309-0.816-3.015C147.543,221.462,147.076,221.224,146.389,221.224z
		 M147.245,227.312c-0.199,0.189-0.487,0.318-0.855,0.318s-0.657-0.129-0.855-0.318c-0.587-0.557-0.567-1.562-0.567-2.497
		c0-0.936-0.02-1.94,0.567-2.498c0.199-0.189,0.487-0.318,0.855-0.318s0.657,0.129,0.855,0.318c0.587,0.557,0.567,1.562,0.567,2.498
		C147.812,225.75,147.832,226.755,147.245,227.312z"/>
</g>
<g>
	<path fill="none" d="M8.786,192.957h127.467c3.011,0,5.46-2.449,5.46-5.46V8.46c0-3.011-2.449-5.46-5.46-5.46H8.786
		c-3.011,0-5.46,2.449-5.46,5.46v179.037C3.326,190.507,5.775,192.957,8.786,192.957z"/>
	<path fill="#FFFFFF" d="M8.786,194.957h127.467c4.12,0,7.46-3.34,7.46-7.46V8.46c0-4.12-3.34-7.46-7.46-7.46H8.786
		c-4.12,0-7.46,3.34-7.46,7.46v179.037C1.326,191.616,4.666,194.957,8.786,194.957z M3.326,8.46C3.326,5.449,5.775,3,8.786,3
		h127.467c3.011,0,5.46,2.449,5.46,5.46v179.037c0,3.011-2.449,5.46-5.46,5.46H8.786c-3.011,0-5.46-2.449-5.46-5.46V8.46z"/>
</g>
<g>
	<path fill="none" d="M130.139,177.241c-0.368,0-0.657,0.129-0.855,0.318c-0.587,0.557-0.567,1.562-0.567,2.498
		c0,0.935-0.02,1.94,0.567,2.497c0.199,0.189,0.487,0.318,0.855,0.318s0.657-0.129,0.855-0.318c0.587-0.557,0.567-1.562,0.567-2.497
		c0-0.936,0.02-1.94-0.567-2.498C130.796,177.37,130.507,177.241,130.139,177.241z"/>
	<path fill="none" d="M123.495,177.231c-0.438,0-0.736,0.159-0.955,0.398c-0.269,0.289-0.408,0.696-0.408,1.184
		c0,0.487,0.149,0.895,0.408,1.184c0.209,0.239,0.537,0.398,0.975,0.398c0.438,0,0.756-0.179,0.965-0.418
		c0.259-0.288,0.388-0.676,0.388-1.164c0-0.488-0.14-0.875-0.408-1.164C124.241,177.41,123.933,177.231,123.495,177.231z"/>
	<path fill="#FFFFFF" d="M116.94,182.882c-0.438,0-0.736-0.159-0.945-0.388c-0.229-0.239-0.338-0.567-0.358-0.955h-0.865
		c0.01,0.637,0.229,1.125,0.587,1.482c0.388,0.388,0.915,0.627,1.582,0.627c0.776,0,1.304-0.239,1.671-0.627
		c0.338-0.358,0.527-0.855,0.527-1.393c0-0.716-0.417-1.443-1.154-1.691c0.567-0.239,1.015-0.916,1.015-1.562
		c0-0.597-0.209-1.035-0.557-1.353c-0.368-0.348-0.896-0.557-1.472-0.557c-0.597,0-1.095,0.179-1.482,0.498
		c-0.408,0.338-0.657,0.835-0.667,1.522h0.866c0.01-0.418,0.149-0.756,0.418-0.975c0.209-0.169,0.467-0.279,0.846-0.279
		c0.378,0,0.657,0.149,0.846,0.338c0.219,0.209,0.328,0.487,0.328,0.806c0,0.727-0.478,1.164-1.273,1.164h-0.418v0.786h0.418
		c0.846,0,1.423,0.438,1.423,1.283c0,0.378-0.14,0.667-0.329,0.875C117.707,182.752,117.358,182.882,116.94,182.882z"/>
	<path fill="#FFFFFF" d="M99.903,178.335c0-0.438-0.109-0.776-0.318-1.075c-0.348-0.487-0.935-0.796-1.691-0.796
		c-1.224,0-2.04,0.816-2.04,2.02h0.875c0-0.915,0.557-1.253,1.174-1.253c0.726,0,1.134,0.408,1.134,1.114
		c0,0.358-0.12,0.667-0.378,0.995l-2.795,3.453v0.726h4.148v-0.796h-3.044l2.348-2.915C99.694,179.34,99.903,178.882,99.903,178.335
		z"/>
	<polygon fill="#FFFFFF" points="92.244,183.519 92.244,176.604 91.428,176.604 89.736,177.828 89.736,178.773 91.378,177.569 
		91.378,183.519 	"/>
	<polygon fill="#FFFFFF" points="106.128,183.519 107.441,181.539 108.765,183.519 109.779,183.519 108.028,180.952 
		109.729,178.484 108.755,178.484 107.491,180.385 106.178,178.484 105.183,178.484 106.875,180.952 105.163,183.519 	"/>
	<path fill="#FFFFFF" d="M123.525,182.882c-0.328,0-0.577-0.089-0.776-0.269c-0.209-0.179-0.368-0.438-0.388-0.776h-0.855
		c0.02,0.507,0.249,0.935,0.557,1.244c0.348,0.358,0.846,0.567,1.433,0.567c0.875,0,1.473-0.418,1.801-0.935
		c0.468-0.746,0.517-1.771,0.517-2.756c0-0.975-0.089-1.95-0.587-2.637c-0.338-0.458-0.915-0.855-1.691-0.855
		c-0.717,0-1.264,0.269-1.632,0.667c-0.388,0.428-0.627,0.995-0.627,1.691c0,0.736,0.249,1.363,0.697,1.791
		c0.328,0.318,0.826,0.538,1.452,0.538c0.657,0,1.313-0.329,1.532-0.806c-0.01,0.727-0.05,1.622-0.487,2.119
		C124.261,182.703,123.963,182.882,123.525,182.882z M124.48,179.977c-0.209,0.239-0.527,0.418-0.965,0.418
		c-0.438,0-0.766-0.159-0.975-0.398c-0.259-0.289-0.408-0.696-0.408-1.184c0-0.488,0.139-0.896,0.408-1.184
		c0.219-0.239,0.518-0.398,0.955-0.398s0.746,0.179,0.965,0.418c0.269,0.289,0.408,0.676,0.408,1.164
		C124.868,179.3,124.739,179.688,124.48,179.977z"/>
	<path fill="#FFFFFF" d="M84.734,182.882c-0.438,0-0.736-0.159-0.945-0.388c-0.229-0.239-0.338-0.567-0.358-0.955h-0.865
		c0.01,0.637,0.229,1.125,0.587,1.482c0.388,0.388,0.915,0.627,1.582,0.627c0.776,0,1.303-0.239,1.671-0.627
		c0.338-0.358,0.527-0.855,0.527-1.393c0-0.716-0.418-1.443-1.154-1.691c0.567-0.239,1.015-0.916,1.015-1.562
		c0-0.597-0.209-1.035-0.557-1.353c-0.368-0.348-0.896-0.557-1.473-0.557c-0.597,0-1.094,0.179-1.482,0.498
		c-0.408,0.338-0.657,0.835-0.667,1.522h0.865c0.01-0.418,0.149-0.756,0.418-0.975c0.209-0.169,0.468-0.279,0.846-0.279
		s0.656,0.149,0.846,0.338c0.219,0.209,0.328,0.487,0.328,0.806c0,0.727-0.478,1.164-1.273,1.164h-0.418v0.786h0.418
		c0.846,0,1.423,0.438,1.423,1.283c0,0.378-0.14,0.667-0.329,0.875C85.5,182.752,85.152,182.882,84.734,182.882z"/>
	<path fill="#FFFFFF" d="M130.139,176.465c-0.687,0-1.154,0.239-1.492,0.577c-0.697,0.706-0.816,1.681-0.816,3.015
		c0,1.333,0.119,2.298,0.816,3.004c0.338,0.338,0.806,0.587,1.492,0.587s1.154-0.249,1.492-0.587
		c0.697-0.707,0.816-1.671,0.816-3.004c0-1.333-0.119-2.309-0.816-3.015C131.293,176.704,130.826,176.465,130.139,176.465z
		 M130.995,182.554c-0.199,0.189-0.487,0.318-0.855,0.318s-0.657-0.129-0.855-0.318c-0.587-0.557-0.567-1.562-0.567-2.497
		c0-0.936-0.02-1.94,0.567-2.498c0.199-0.189,0.487-0.318,0.855-0.318s0.657,0.129,0.855,0.318c0.587,0.557,0.567,1.562,0.567,2.498
		C131.562,180.992,131.582,181.997,130.995,182.554z"/>
</g>
<g>
	<path fill="none" d="M8.786,168.09h120.353c3.01,0,5.459-2.449,5.459-5.459V8.46c0-3.011-2.449-5.46-5.459-5.46H8.786
		c-3.011,0-5.46,2.449-5.46,5.46v154.17C3.326,165.641,5.775,168.09,8.786,168.09z"/>
	<path fill="#F7F8F8" d="M8.786,170.09h120.353c4.12,0,7.459-3.339,7.459-7.459V8.46c0-4.12-3.34-7.46-7.459-7.46H8.786
		c-4.12,0-7.46,3.34-7.46,7.46v154.17C1.326,166.75,4.666,170.09,8.786,170.09z M3.326,8.46C3.326,5.449,5.775,3,8.786,3h120.353
		c3.01,0,5.459,2.449,5.459,5.46v154.17c0,3.01-2.449,5.459-5.459,5.459H8.786c-3.011,0-5.46-2.449-5.46-5.459V8.46z"/>
</g>
<g>
	<path fill="none" d="M123.176,152.375c-0.368,0-0.657,0.129-0.855,0.318c-0.587,0.557-0.567,1.562-0.567,2.498
		c0,0.935-0.02,1.94,0.567,2.497c0.199,0.189,0.487,0.318,0.855,0.318s0.657-0.129,0.855-0.318c0.587-0.557,0.567-1.562,0.567-2.497
		c0-0.936,0.02-1.94-0.567-2.498C123.833,152.504,123.544,152.375,123.176,152.375z"/>
	<path fill="#FFFFFF" d="M92.94,153.469c0-0.438-0.109-0.776-0.318-1.075c-0.348-0.487-0.935-0.796-1.691-0.796
		c-1.224,0-2.04,0.816-2.04,2.02h0.875c0-0.915,0.557-1.253,1.174-1.253c0.726,0,1.134,0.408,1.134,1.114
		c0,0.358-0.12,0.667-0.378,0.995l-2.795,3.453v0.726h4.148v-0.796h-3.044l2.348-2.915C92.731,154.474,92.94,154.016,92.94,153.469z
		"/>
	<polygon fill="#FFFFFF" points="99.166,158.652 100.479,156.672 101.802,158.652 102.816,158.652 101.065,156.085 102.767,153.618 
		101.792,153.618 100.528,155.519 99.215,153.618 98.22,153.618 99.912,156.085 98.2,158.652 	"/>
	<path fill="#FFFFFF" d="M79.811,153.469c0-0.438-0.109-0.776-0.318-1.075c-0.348-0.487-0.935-0.796-1.691-0.796
		c-1.224,0-2.039,0.816-2.039,2.02h0.875c0-0.915,0.557-1.253,1.174-1.253c0.726,0,1.134,0.408,1.134,1.114
		c0,0.358-0.12,0.667-0.378,0.995l-2.795,3.453v0.726h4.148v-0.796h-3.044l2.348-2.915
		C79.602,154.474,79.811,154.016,79.811,153.469z"/>
	<polygon fill="#FFFFFF" points="116.751,151.738 114.125,156.294 114.125,157.18 117.298,157.18 117.298,158.652 118.154,158.652 
		118.154,157.18 119.089,157.18 119.089,156.414 118.154,156.414 118.154,154.354 117.298,154.354 117.298,156.414 114.94,156.414 
		117.646,151.738 	"/>
	<path fill="#FFFFFF" d="M109.978,158.016c-0.438,0-0.736-0.159-0.945-0.388c-0.229-0.239-0.338-0.567-0.358-0.955h-0.865
		c0.01,0.637,0.229,1.125,0.587,1.482c0.388,0.388,0.915,0.627,1.582,0.627c0.776,0,1.304-0.239,1.671-0.627
		c0.338-0.358,0.527-0.855,0.527-1.393c0-0.716-0.417-1.443-1.154-1.691c0.567-0.239,1.015-0.916,1.015-1.562
		c0-0.597-0.209-1.035-0.557-1.353c-0.368-0.348-0.896-0.557-1.472-0.557c-0.597,0-1.095,0.179-1.482,0.498
		c-0.408,0.338-0.657,0.835-0.667,1.522h0.866c0.01-0.418,0.149-0.756,0.418-0.975c0.209-0.169,0.467-0.279,0.846-0.279
		c0.378,0,0.657,0.149,0.846,0.338c0.219,0.209,0.328,0.487,0.328,0.806c0,0.727-0.478,1.164-1.273,1.164h-0.418v0.786h0.418
		c0.846,0,1.423,0.438,1.423,1.283c0,0.378-0.14,0.667-0.329,0.875C110.744,157.886,110.396,158.016,109.978,158.016z"/>
	<polygon fill="#FFFFFF" points="83.699,158.652 86.554,152.504 86.554,151.738 82.117,151.738 82.117,152.504 85.659,152.504 
		82.784,158.652 	"/>
	<path fill="#FFFFFF" d="M123.176,151.599c-0.687,0-1.154,0.239-1.492,0.577c-0.697,0.706-0.816,1.681-0.816,3.015
		c0,1.333,0.119,2.298,0.816,3.004c0.338,0.338,0.806,0.587,1.492,0.587s1.154-0.249,1.492-0.587
		c0.697-0.707,0.816-1.671,0.816-3.004c0-1.333-0.119-2.309-0.816-3.015C124.33,151.837,123.863,151.599,123.176,151.599z
		 M124.032,157.688c-0.199,0.189-0.487,0.318-0.855,0.318s-0.657-0.129-0.855-0.318c-0.587-0.557-0.567-1.562-0.567-2.497
		c0-0.936-0.02-1.94,0.567-2.498c0.199-0.189,0.487-0.318,0.855-0.318s0.657,0.129,0.855,0.318c0.587,0.557,0.567,1.562,0.567,2.498
		C124.599,156.125,124.619,157.13,124.032,157.688z"/>
</g>
</svg>
