<?xml version="1.0" encoding="utf-8"?>
<!-- Generator: Adobe Illustrator 16.0.0, SVG Export Plug-In . SVG Version: 6.00 Build 0)  -->
<!DOCTYPE svg PUBLIC "-//W3C//DTD SVG 1.1//EN" "http://www.w3.org/Graphics/SVG/1.1/DTD/svg11.dtd">
<svg version="1.1" id="Layer_1" xmlns="http://www.w3.org/2000/svg" xmlns:xlink="http://www.w3.org/1999/xlink" x="0px" y="0px"
	 width="800px" height="597.789px" viewBox="0 0 800 597.789" enable-background="new 0 0 800 597.789" xml:space="preserve">
<g>
	<defs>
		<path id="SVGID_1_" d="M8.44,1h780.798c4.12,0,7.46,3.34,7.46,7.46v581.868c0,4.12-3.34,7.461-7.46,7.461H8.44
			c-4.12,0-7.46-3.341-7.46-7.461V8.46C0.98,4.34,4.32,1,8.44,1z"/>
	</defs>
	<clipPath id="SVGID_2_">
		<use xlink:href="#SVGID_1_"  overflow="visible"/>
	</clipPath>
	<g clip-path="url(#SVGID_2_)">
		<defs>
			<rect id="SVGID_3_" x="-2.003" y="-1.984" width="826.552" height="628.617"/>
		</defs>
		<clipPath id="SVGID_4_">
			<use xlink:href="#SVGID_3_"  overflow="visible"/>
		</clipPath>
		<path clip-path="url(#SVGID_4_)" fill="none" stroke="#FFFFFF" stroke-width="4" stroke-miterlimit="10" d="M8.44,1h780.798
			c4.12,0,7.46,3.34,7.46,7.46v581.868c0,4.12-3.34,7.461-7.46,7.461H8.44c-4.12,0-7.46-3.341-7.46-7.461V8.46
			C0.98,4.34,4.32,1,8.44,1z"/>
	</g>
</g>
<g>
	<defs>
		<rect id="SVGID_5_" x="713.646" y="578.393" width="73.604" height="8.454"/>
	</defs>
	<clipPath id="SVGID_6_">
		<use xlink:href="#SVGID_5_"  overflow="visible"/>
	</clipPath>
	<g clip-path="url(#SVGID_6_)">
		<path fill="#FFFFFF" d="M725.017,586.35V580.4l-1.642,1.204v-0.945l1.691-1.224h0.815v6.914H725.017z"/>
		<path fill="#FFFFFF" d="M733.283,585.812c-0.368,0.397-0.916,0.666-1.632,0.666c-0.776,0-1.353-0.388-1.691-0.855
			c-0.497-0.687-0.587-1.651-0.587-2.636c0-0.985,0.05-2.01,0.518-2.756c0.328-0.518,0.925-0.936,1.801-0.936
			c0.587,0,1.084,0.219,1.433,0.567c0.309,0.309,0.537,0.736,0.557,1.243h-0.855c-0.02-0.338-0.179-0.597-0.388-0.775
			c-0.199-0.17-0.448-0.269-0.776-0.269c-0.438,0-0.736,0.179-0.945,0.417c-0.438,0.498-0.478,1.394-0.487,2.119
			c0.219-0.478,0.876-0.806,1.532-0.806c0.627,0,1.124,0.219,1.452,0.537c0.448,0.428,0.697,1.064,0.697,1.791
			C733.91,584.817,733.671,585.385,733.283,585.812z M732.646,582.947c-0.209-0.239-0.537-0.398-0.976-0.398
			c-0.438,0-0.756,0.18-0.965,0.418c-0.259,0.289-0.388,0.677-0.388,1.164s0.139,0.876,0.408,1.164
			c0.219,0.239,0.527,0.418,0.965,0.418s0.736-0.159,0.955-0.398c0.269-0.288,0.407-0.696,0.407-1.184
			S732.905,583.235,732.646,582.947z"/>
		<path fill="#FFFFFF" d="M739.629,585.892c-0.339,0.339-0.807,0.587-1.492,0.587c-0.687,0-1.154-0.248-1.493-0.587
			c-0.696-0.706-0.815-1.671-0.815-3.004s0.119-2.309,0.815-3.015c0.339-0.338,0.807-0.577,1.493-0.577
			c0.686,0,1.153,0.239,1.492,0.577c0.696,0.706,0.815,1.682,0.815,3.015S740.325,585.186,739.629,585.892z M738.992,580.391
			c-0.199-0.189-0.488-0.318-0.855-0.318c-0.368,0-0.657,0.129-0.856,0.318c-0.587,0.557-0.566,1.562-0.566,2.497
			c0,0.935-0.021,1.939,0.566,2.497c0.199,0.188,0.488,0.318,0.856,0.318c0.367,0,0.656-0.13,0.855-0.318
			c0.587-0.558,0.566-1.562,0.566-2.497C739.559,581.952,739.579,580.947,738.992,580.391z"/>
		<path fill="#FFFFFF" d="M746.194,585.892c-0.339,0.339-0.807,0.587-1.493,0.587c-0.686,0-1.153-0.248-1.492-0.587
			c-0.696-0.706-0.815-1.671-0.815-3.004s0.119-2.309,0.815-3.015c0.339-0.338,0.807-0.577,1.492-0.577
			c0.687,0,1.154,0.239,1.493,0.577c0.696,0.706,0.815,1.682,0.815,3.015S746.891,585.186,746.194,585.892z M745.558,580.391
			c-0.199-0.189-0.488-0.318-0.856-0.318c-0.367,0-0.656,0.129-0.855,0.318c-0.587,0.557-0.566,1.562-0.566,2.497
			c0,0.935-0.021,1.939,0.566,2.497c0.199,0.188,0.488,0.318,0.855,0.318c0.368,0,0.657-0.13,0.856-0.318
			c0.587-0.558,0.566-1.562,0.566-2.497C746.124,581.952,746.145,580.947,745.558,580.391z"/>
		<path fill="#FFFFFF" d="M755.534,586.35l-1.323-1.979l-1.313,1.979h-0.965l1.711-2.566l-1.69-2.468h0.994l1.313,1.9l1.264-1.9
			h0.975l-1.701,2.468l1.751,2.566H755.534z"/>
		<path fill="#FFFFFF" d="M763.79,586.35V580.4l-1.642,1.204v-0.945l1.691-1.224h0.815v6.914H763.79z"/>
		<path fill="#FFFFFF" d="M768.266,586.35v-0.727l2.795-3.452c0.259-0.328,0.378-0.637,0.378-0.995c0-0.706-0.407-1.113-1.134-1.113
			c-0.617,0-1.174,0.338-1.174,1.253h-0.876c0-1.204,0.816-2.02,2.04-2.02c0.756,0,1.343,0.309,1.691,0.796
			c0.209,0.299,0.318,0.637,0.318,1.074c0,0.548-0.209,1.005-0.587,1.473l-2.349,2.915h3.045v0.796H768.266z"/>
		<path fill="#FFFFFF" d="M778.393,585.892c-0.339,0.339-0.807,0.587-1.492,0.587c-0.687,0-1.154-0.248-1.493-0.587
			c-0.696-0.706-0.815-1.671-0.815-3.004s0.119-2.309,0.815-3.015c0.339-0.338,0.807-0.577,1.493-0.577
			c0.686,0,1.153,0.239,1.492,0.577c0.696,0.706,0.815,1.682,0.815,3.015S779.089,585.186,778.393,585.892z M777.756,580.391
			c-0.199-0.189-0.488-0.318-0.855-0.318c-0.368,0-0.657,0.129-0.856,0.318c-0.587,0.557-0.566,1.562-0.566,2.497
			c0,0.935-0.021,1.939,0.566,2.497c0.199,0.188,0.488,0.318,0.856,0.318c0.367,0,0.656-0.13,0.855-0.318
			c0.587-0.558,0.566-1.562,0.566-2.497C778.322,581.952,778.343,580.947,777.756,580.391z"/>
		<path fill="#FFFFFF" d="M784.957,585.892c-0.339,0.339-0.807,0.587-1.492,0.587c-0.687,0-1.154-0.248-1.493-0.587
			c-0.696-0.706-0.815-1.671-0.815-3.004s0.119-2.309,0.815-3.015c0.339-0.338,0.807-0.577,1.493-0.577
			c0.686,0,1.153,0.239,1.492,0.577c0.696,0.706,0.815,1.682,0.815,3.015S785.653,585.186,784.957,585.892z M784.32,580.391
			c-0.199-0.189-0.488-0.318-0.855-0.318c-0.368,0-0.657,0.129-0.856,0.318c-0.587,0.557-0.566,1.562-0.566,2.497
			c0,0.935-0.021,1.939,0.566,2.497c0.199,0.188,0.488,0.318,0.856,0.318c0.367,0,0.656-0.13,0.855-0.318
			c0.587-0.558,0.566-1.562,0.566-2.497C784.887,581.952,784.907,580.947,784.32,580.391z"/>
	</g>
</g>
<g>
	<defs>
		<path id="SVGID_7_" d="M8.44,1h581.868c4.12,0,7.461,3.34,7.461,7.46v432.672c0,4.12-3.341,7.459-7.461,7.459H8.44
			c-4.12,0-7.46-3.339-7.46-7.459V8.46C0.98,4.34,4.32,1,8.44,1z"/>
	</defs>
	<clipPath id="SVGID_8_">
		<use xlink:href="#SVGID_7_"  overflow="visible"/>
	</clipPath>
	<g clip-path="url(#SVGID_8_)">
		<defs>
			<rect id="SVGID_9_" x="-2.003" y="-1.984" width="826.552" height="628.617"/>
		</defs>
		<clipPath id="SVGID_10_">
			<use xlink:href="#SVGID_9_"  overflow="visible"/>
		</clipPath>
		<path clip-path="url(#SVGID_10_)" fill="none" stroke="#FFFFFF" stroke-width="4" stroke-miterlimit="10" d="M8.44,1h581.868
			c4.12,0,7.461,3.34,7.461,7.46v432.672c0,4.12-3.341,7.459-7.461,7.459H8.44c-4.12,0-7.46-3.339-7.46-7.459V8.46
			C0.98,4.34,4.32,1,8.44,1z"/>
	</g>
</g>
<g>
	<defs>
		<rect id="SVGID_11_" x="514.716" y="429.195" width="73.604" height="8.455"/>
	</defs>
	<clipPath id="SVGID_12_">
		<use xlink:href="#SVGID_11_"  overflow="visible"/>
	</clipPath>
	<g clip-path="url(#SVGID_12_)">
		<path fill="#F7F8F8" d="M532.652,437.152v-5.949l-1.642,1.204v-0.945l1.691-1.224h0.815v6.914H532.652z"/>
		<path fill="#F7F8F8" d="M537.139,437.152v-0.727l2.795-3.452c0.259-0.328,0.378-0.637,0.378-0.995
			c0-0.706-0.407-1.113-1.134-1.113c-0.617,0-1.174,0.338-1.174,1.253h-0.876c0-1.204,0.816-2.02,2.04-2.02
			c0.756,0,1.343,0.309,1.691,0.796c0.209,0.299,0.318,0.637,0.318,1.074c0,0.548-0.209,1.005-0.587,1.473l-2.349,2.915h3.045v0.796
			H537.139z"/>
		<path fill="#F7F8F8" d="M547.265,436.694c-0.339,0.339-0.807,0.587-1.493,0.587c-0.686,0-1.153-0.248-1.492-0.587
			c-0.696-0.706-0.815-1.671-0.815-3.004s0.119-2.309,0.815-3.015c0.339-0.338,0.807-0.577,1.492-0.577
			c0.687,0,1.154,0.239,1.493,0.577c0.696,0.706,0.815,1.682,0.815,3.015S547.961,435.988,547.265,436.694z M546.628,431.193
			c-0.199-0.189-0.488-0.318-0.856-0.318c-0.367,0-0.656,0.129-0.855,0.318c-0.587,0.557-0.566,1.562-0.566,2.497
			c0,0.935-0.021,1.939,0.566,2.497c0.199,0.188,0.488,0.318,0.855,0.318c0.368,0,0.657-0.13,0.856-0.318
			c0.587-0.558,0.566-1.562,0.566-2.497C547.194,432.755,547.215,431.75,546.628,431.193z"/>
		<path fill="#F7F8F8" d="M553.83,436.694c-0.339,0.339-0.807,0.587-1.492,0.587c-0.687,0-1.154-0.248-1.493-0.587
			c-0.696-0.706-0.815-1.671-0.815-3.004s0.119-2.309,0.815-3.015c0.339-0.338,0.807-0.577,1.493-0.577
			c0.686,0,1.153,0.239,1.492,0.577c0.696,0.706,0.815,1.682,0.815,3.015S554.526,435.988,553.83,436.694z M553.193,431.193
			c-0.199-0.189-0.488-0.318-0.855-0.318c-0.368,0-0.657,0.129-0.856,0.318c-0.587,0.557-0.566,1.562-0.566,2.497
			c0,0.935-0.021,1.939,0.566,2.497c0.199,0.188,0.488,0.318,0.856,0.318c0.367,0,0.656-0.13,0.855-0.318
			c0.587-0.558,0.566-1.562,0.566-2.497C553.76,432.755,553.78,431.75,553.193,431.193z"/>
		<path fill="#F7F8F8" d="M563.17,437.152l-1.323-1.979l-1.313,1.979h-0.965l1.711-2.566l-1.69-2.468h0.994l1.313,1.9l1.264-1.9
			h0.975l-1.701,2.468l1.751,2.566H563.17z"/>
		<path fill="#F7F8F8" d="M573.137,436.347c-0.328,0.518-0.926,0.935-1.801,0.935c-0.587,0-1.084-0.209-1.433-0.566
			c-0.309-0.309-0.537-0.736-0.558-1.244h0.856c0.02,0.339,0.179,0.598,0.388,0.776c0.199,0.179,0.447,0.269,0.776,0.269
			c0.438,0,0.735-0.179,0.944-0.418c0.438-0.497,0.478-1.393,0.488-2.119c-0.22,0.478-0.876,0.806-1.532,0.806
			c-0.627,0-1.124-0.219-1.453-0.537c-0.447-0.428-0.696-1.055-0.696-1.79c0-0.697,0.239-1.264,0.627-1.691
			c0.368-0.398,0.915-0.667,1.632-0.667c0.775,0,1.353,0.398,1.691,0.855c0.497,0.687,0.587,1.661,0.587,2.637
			C573.654,434.575,573.604,435.601,573.137,436.347z M572.301,431.282c-0.219-0.238-0.527-0.417-0.965-0.417
			s-0.736,0.158-0.955,0.397c-0.269,0.288-0.408,0.696-0.408,1.184s0.149,0.896,0.408,1.185c0.209,0.238,0.537,0.397,0.975,0.397
			c0.438,0,0.757-0.179,0.966-0.418c0.258-0.288,0.388-0.677,0.388-1.164S572.569,431.571,572.301,431.282z"/>
		<path fill="#F7F8F8" d="M579.463,436.694c-0.339,0.339-0.807,0.587-1.492,0.587c-0.687,0-1.154-0.248-1.493-0.587
			c-0.696-0.706-0.815-1.671-0.815-3.004s0.119-2.309,0.815-3.015c0.339-0.338,0.807-0.577,1.493-0.577
			c0.686,0,1.153,0.239,1.492,0.577c0.696,0.706,0.815,1.682,0.815,3.015S580.159,435.988,579.463,436.694z M578.826,431.193
			c-0.199-0.189-0.488-0.318-0.855-0.318c-0.368,0-0.657,0.129-0.856,0.318c-0.587,0.557-0.566,1.562-0.566,2.497
			c0,0.935-0.021,1.939,0.566,2.497c0.199,0.188,0.488,0.318,0.856,0.318c0.367,0,0.656-0.13,0.855-0.318
			c0.587-0.558,0.566-1.562,0.566-2.497C579.393,432.755,579.413,431.75,578.826,431.193z"/>
		<path fill="#F7F8F8" d="M586.018,436.694c-0.339,0.339-0.807,0.587-1.492,0.587c-0.687,0-1.154-0.248-1.493-0.587
			c-0.696-0.706-0.815-1.671-0.815-3.004s0.119-2.309,0.815-3.015c0.339-0.338,0.807-0.577,1.493-0.577
			c0.686,0,1.153,0.239,1.492,0.577c0.696,0.706,0.815,1.682,0.815,3.015S586.714,435.988,586.018,436.694z M585.381,431.193
			c-0.199-0.189-0.488-0.318-0.855-0.318c-0.368,0-0.657,0.129-0.856,0.318c-0.587,0.557-0.566,1.562-0.566,2.497
			c0,0.935-0.021,1.939,0.566,2.497c0.199,0.188,0.488,0.318,0.856,0.318c0.367,0,0.656-0.13,0.855-0.318
			c0.587-0.558,0.566-1.562,0.566-2.497C585.947,432.755,585.968,431.75,585.381,431.193z"/>
	</g>
</g>
<g>
	<defs>
		<path id="SVGID_13_" d="M8.44,1h494.34c4.12,0,7.46,3.34,7.46,7.46v367.024c0,4.12-3.34,7.46-7.46,7.46H8.44
			c-4.12,0-7.46-3.34-7.46-7.46V8.46C0.98,4.34,4.32,1,8.44,1z"/>
	</defs>
	<clipPath id="SVGID_14_">
		<use xlink:href="#SVGID_13_"  overflow="visible"/>
	</clipPath>
	<g clip-path="url(#SVGID_14_)">
		<defs>
			<rect id="SVGID_15_" x="-2.003" y="-1.984" width="826.552" height="628.617"/>
		</defs>
		<clipPath id="SVGID_16_">
			<use xlink:href="#SVGID_15_"  overflow="visible"/>
		</clipPath>
		<path clip-path="url(#SVGID_16_)" fill="none" stroke="#FFFFFF" stroke-width="4" stroke-miterlimit="10" d="M8.44,1h494.34
			c4.12,0,7.46,3.34,7.46,7.46v367.024c0,4.12-3.34,7.46-7.46,7.46H8.44c-4.12,0-7.46-3.34-7.46-7.46V8.46C0.98,4.34,4.32,1,8.44,1z
			"/>
	</g>
</g>
<g>
	<defs>
		<rect id="SVGID_17_" x="427.187" y="363.549" width="73.604" height="8.455"/>
	</defs>
	<clipPath id="SVGID_18_">
		<use xlink:href="#SVGID_17_"  overflow="visible"/>
	</clipPath>
	<g clip-path="url(#SVGID_18_)">
		<path fill="#FFFFFF" d="M445.122,371.506v-5.949l-1.642,1.204v-0.945l1.691-1.224h0.815v6.915H445.122z"/>
		<path fill="#FFFFFF" d="M453.17,371.048c-0.339,0.338-0.807,0.587-1.492,0.587c-0.687,0-1.154-0.249-1.493-0.587
			c-0.696-0.707-0.815-1.671-0.815-3.004c0-1.333,0.119-2.309,0.815-3.015c0.339-0.338,0.807-0.577,1.493-0.577
			c0.686,0,1.153,0.239,1.492,0.577c0.696,0.706,0.815,1.681,0.815,3.015C453.985,369.377,453.866,370.342,453.17,371.048z
			 M452.533,365.546c-0.199-0.189-0.488-0.318-0.855-0.318c-0.368,0-0.657,0.129-0.856,0.318c-0.587,0.557-0.566,1.562-0.566,2.498
			c0,0.935-0.021,1.94,0.566,2.497c0.199,0.189,0.488,0.318,0.856,0.318c0.367,0,0.656-0.129,0.855-0.318
			c0.587-0.557,0.566-1.562,0.566-2.497C453.1,367.108,453.12,366.104,452.533,365.546z"/>
		<path fill="#FFFFFF" d="M456.172,371.506v-0.726l2.796-3.453c0.259-0.328,0.378-0.637,0.378-0.995
			c0-0.707-0.407-1.114-1.134-1.114c-0.617,0-1.174,0.338-1.174,1.253h-0.876c0-1.204,0.816-2.02,2.04-2.02
			c0.756,0,1.343,0.309,1.691,0.796c0.209,0.298,0.318,0.637,0.318,1.075c0,0.547-0.209,1.004-0.587,1.472l-2.349,2.915h3.045v0.796
			H456.172z"/>
		<path fill="#FFFFFF" d="M466.35,370.033v1.473h-0.856v-1.473h-3.173v-0.885l2.626-4.557h0.896l-2.706,4.676h2.357v-2.06h0.856
			v2.06h0.935v0.766H466.35z"/>
		<path fill="#FFFFFF" d="M475.64,371.506l-1.323-1.98l-1.313,1.98h-0.965l1.711-2.567l-1.69-2.467h0.994l1.313,1.9l1.264-1.9h0.975
			l-1.701,2.467l1.751,2.567H475.64z"/>
		<path fill="#FFFFFF" d="M483.179,371.506h-0.915l2.875-6.148h-3.542v-0.766h4.438v0.766L483.179,371.506z"/>
		<path fill="#FFFFFF" d="M492.151,370.969c-0.368,0.398-0.915,0.667-1.632,0.667c-0.776,0-1.354-0.388-1.691-0.855
			c-0.497-0.687-0.587-1.652-0.587-2.637s0.05-2.009,0.518-2.756c0.328-0.517,0.925-0.935,1.801-0.935
			c0.587,0,1.084,0.219,1.433,0.567c0.309,0.308,0.537,0.736,0.557,1.243h-0.855c-0.02-0.338-0.179-0.597-0.388-0.776
			c-0.199-0.169-0.448-0.269-0.776-0.269c-0.438,0-0.736,0.179-0.945,0.418c-0.438,0.498-0.478,1.393-0.487,2.119
			c0.219-0.478,0.876-0.806,1.532-0.806c0.627,0,1.124,0.219,1.452,0.537c0.448,0.428,0.697,1.065,0.697,1.791
			C492.778,369.974,492.539,370.541,492.151,370.969z M491.515,368.104c-0.209-0.239-0.537-0.398-0.976-0.398
			c-0.438,0-0.756,0.179-0.965,0.417c-0.259,0.289-0.388,0.677-0.388,1.164c0,0.488,0.14,0.875,0.408,1.164
			c0.219,0.239,0.526,0.418,0.965,0.418c0.438,0,0.736-0.159,0.955-0.398c0.269-0.289,0.407-0.696,0.407-1.184
			C491.922,368.8,491.773,368.392,491.515,368.104z"/>
		<path fill="#FFFFFF" d="M498.775,370.879c-0.408,0.488-1.055,0.756-1.781,0.756c-0.726,0-1.372-0.269-1.78-0.756
			c-0.278-0.328-0.458-0.746-0.458-1.273c0-0.756,0.448-1.413,1.085-1.701c-0.567-0.298-0.945-0.896-0.945-1.562
			c0-0.567,0.229-1.015,0.567-1.333c0.388-0.358,0.925-0.557,1.531-0.557c0.607,0,1.145,0.199,1.532,0.557
			c0.339,0.318,0.567,0.766,0.567,1.333c0,0.667-0.378,1.264-0.945,1.562c0.637,0.289,1.085,0.945,1.085,1.701
			C499.233,370.133,499.054,370.551,498.775,370.879z M496.994,368.272c-0.875,0-1.383,0.557-1.383,1.293
			c0,0.816,0.577,1.323,1.383,1.323c0.807,0,1.384-0.507,1.384-1.323C498.378,368.83,497.87,368.272,496.994,368.272z
			 M496.994,365.198c-0.686,0-1.243,0.438-1.243,1.144c0,0.637,0.448,1.194,1.243,1.194c0.797,0,1.244-0.557,1.244-1.194
			C498.238,365.636,497.681,365.198,496.994,365.198z"/>
	</g>
</g>
<g>
	<defs>
		<path id="SVGID_19_" d="M8.44,1h223.795c4.12,0,7.46,3.34,7.46,7.46v343.153c0,4.12-3.34,7.46-7.46,7.46H8.44
			c-4.12,0-7.46-3.34-7.46-7.46V8.46C0.98,4.34,4.32,1,8.44,1z"/>
	</defs>
	<clipPath id="SVGID_20_">
		<use xlink:href="#SVGID_19_"  overflow="visible"/>
	</clipPath>
	<g clip-path="url(#SVGID_20_)">
		<defs>
			<rect id="SVGID_21_" x="-2.003" y="-1.984" width="826.552" height="628.617"/>
		</defs>
		<clipPath id="SVGID_22_">
			<use xlink:href="#SVGID_21_"  overflow="visible"/>
		</clipPath>
		<path clip-path="url(#SVGID_22_)" fill="none" stroke="#FFFFFF" stroke-width="4" stroke-miterlimit="10" d="M8.44,1h223.795
			c4.12,0,7.46,3.34,7.46,7.46v343.153c0,4.12-3.34,7.46-7.46,7.46H8.44c-4.12,0-7.46-3.34-7.46-7.46V8.46C0.98,4.34,4.32,1,8.44,1z
			"/>
	</g>
</g>
<g>
	<defs>
		<rect id="SVGID_23_" x="156.146" y="339.678" width="73.604" height="8.454"/>
	</defs>
	<clipPath id="SVGID_24_">
		<use xlink:href="#SVGID_23_"  overflow="visible"/>
	</clipPath>
	<g clip-path="url(#SVGID_24_)">
		<path fill="#FFFFFF" d="M182.177,346.163v1.472h-0.855v-1.472h-3.174v-0.886l2.626-4.557h0.896l-2.706,4.676h2.358v-2.06h0.855
			v2.06h0.935v0.766H182.177z"/>
		<path fill="#FFFFFF" d="M188.98,347.008c-0.408,0.488-1.055,0.756-1.781,0.756s-1.373-0.269-1.781-0.756
			c-0.279-0.328-0.458-0.746-0.458-1.273c0-0.756,0.447-1.413,1.084-1.701c-0.567-0.298-0.945-0.895-0.945-1.562
			c0-0.567,0.229-1.015,0.567-1.333c0.388-0.358,0.925-0.557,1.532-0.557s1.144,0.199,1.532,0.557
			c0.338,0.318,0.567,0.766,0.567,1.333c0,0.667-0.378,1.264-0.945,1.562c0.637,0.289,1.084,0.945,1.084,1.701
			C189.438,346.262,189.259,346.68,188.98,347.008z M187.199,344.402c-0.875,0-1.383,0.557-1.383,1.293
			c0,0.816,0.577,1.323,1.383,1.323s1.383-0.507,1.383-1.323C188.582,344.959,188.075,344.402,187.199,344.402z M187.199,341.328
			c-0.687,0-1.244,0.438-1.244,1.144c0,0.637,0.448,1.194,1.244,1.194s1.244-0.557,1.244-1.194
			C188.443,341.766,187.886,341.328,187.199,341.328z"/>
		<path fill="#FFFFFF" d="M195.256,347.178c-0.338,0.338-0.806,0.587-1.492,0.587s-1.154-0.249-1.492-0.587
			c-0.696-0.707-0.816-1.671-0.816-3.005c0-1.333,0.12-2.308,0.816-3.014c0.338-0.338,0.806-0.577,1.492-0.577
			s1.154,0.239,1.492,0.577c0.696,0.707,0.816,1.681,0.816,3.014C196.072,345.506,195.952,346.471,195.256,347.178z
			 M194.619,341.676c-0.199-0.189-0.487-0.318-0.855-0.318s-0.657,0.129-0.855,0.318c-0.587,0.557-0.567,1.562-0.567,2.497
			c0,0.936-0.02,1.94,0.567,2.498c0.199,0.189,0.487,0.318,0.855,0.318s0.657-0.129,0.855-0.318
			c0.587-0.557,0.567-1.562,0.567-2.498C195.187,343.238,195.206,342.233,194.619,341.676z"/>
		<path fill="#FFFFFF" d="M204.595,347.635l-1.323-1.98l-1.313,1.98h-0.965l1.711-2.567l-1.691-2.467h0.995l1.313,1.9l1.264-1.9
			h0.975l-1.702,2.467l1.751,2.567H204.595z"/>
		<path fill="#FFFFFF" d="M212.134,347.635h-0.915l2.875-6.148h-3.542v-0.766h4.437v0.766L212.134,347.635z"/>
		<path fill="#FFFFFF" d="M217.335,347.635v-0.726l2.795-3.452c0.259-0.329,0.378-0.637,0.378-0.995
			c0-0.707-0.408-1.114-1.134-1.114c-0.617,0-1.174,0.338-1.174,1.253h-0.875c0-1.204,0.815-2.02,2.04-2.02
			c0.756,0,1.343,0.309,1.691,0.796c0.209,0.298,0.318,0.637,0.318,1.075c0,0.547-0.209,1.005-0.587,1.472l-2.348,2.915h3.044v0.796
			H217.335z"/>
		<path fill="#FFFFFF" d="M227.452,347.178c-0.338,0.338-0.806,0.587-1.492,0.587s-1.154-0.249-1.492-0.587
			c-0.697-0.707-0.816-1.671-0.816-3.005c0-1.333,0.119-2.308,0.816-3.014c0.338-0.338,0.806-0.577,1.492-0.577
			s1.154,0.239,1.492,0.577c0.697,0.707,0.816,1.681,0.816,3.014C228.268,345.506,228.148,346.471,227.452,347.178z
			 M226.815,341.676c-0.199-0.189-0.487-0.318-0.855-0.318s-0.657,0.129-0.855,0.318c-0.587,0.557-0.567,1.562-0.567,2.497
			c0,0.936-0.02,1.94,0.567,2.498c0.199,0.189,0.487,0.318,0.855,0.318s0.657-0.129,0.855-0.318
			c0.587-0.557,0.567-1.562,0.567-2.498C227.382,343.238,227.402,342.233,226.815,341.676z"/>
	</g>
</g>
<g>
	<defs>
		<path id="SVGID_25_" d="M8.44,1h144.224c4.12,0,7.46,3.34,7.46,7.46v223.795c0,4.12-3.34,7.46-7.46,7.46H8.44
			c-4.12,0-7.46-3.34-7.46-7.46V8.46C0.98,4.34,4.32,1,8.44,1z"/>
	</defs>
	<clipPath id="SVGID_26_">
		<use xlink:href="#SVGID_25_"  overflow="visible"/>
	</clipPath>
	<g clip-path="url(#SVGID_26_)">
		<defs>
			<rect id="SVGID_27_" x="-2.003" y="-1.984" width="826.552" height="628.617"/>
		</defs>
		<clipPath id="SVGID_28_">
			<use xlink:href="#SVGID_27_"  overflow="visible"/>
		</clipPath>
		<path clip-path="url(#SVGID_28_)" fill="none" stroke="#FFFFFF" stroke-width="4" stroke-miterlimit="10" d="M8.44,1h144.224
			c4.12,0,7.46,3.34,7.46,7.46v223.795c0,4.12-3.34,7.46-7.46,7.46H8.44c-4.12,0-7.46-3.34-7.46-7.46V8.46C0.98,4.34,4.32,1,8.44,1z
			"/>
		<use xlink:href="#SVGID_27_"  overflow="visible" fill="none" stroke="#FFFFFF" stroke-miterlimit="10"/>
	</g>
	
		<use xlink:href="#SVGID_25_"  overflow="visible" fill-rule="evenodd" clip-rule="evenodd" fill="none" stroke="#FFFFFF" stroke-miterlimit="10"/>
</g>
<g>
	<defs>
		<rect id="SVGID_29_" x="76.574" y="220.32" width="73.604" height="8.455"/>
	</defs>
	<clipPath id="SVGID_30_">
		<use xlink:href="#SVGID_29_"  overflow="visible"/>
	</clipPath>
	<g clip-path="url(#SVGID_30_)">
		<path fill="#FFFFFF" d="M102.665,227.78c-0.368,0.388-0.895,0.627-1.671,0.627c-0.667,0-1.194-0.239-1.582-0.627
			c-0.358-0.358-0.577-0.846-0.587-1.482h0.865c0.02,0.388,0.129,0.716,0.358,0.955c0.209,0.229,0.507,0.388,0.945,0.388
			c0.418,0,0.766-0.129,1.005-0.398c0.189-0.209,0.329-0.498,0.329-0.875c0-0.846-0.577-1.283-1.423-1.283h-0.418v-0.786h0.418
			c0.796,0,1.273-0.438,1.273-1.164c0-0.318-0.109-0.597-0.328-0.806c-0.189-0.189-0.468-0.338-0.846-0.338
			s-0.637,0.109-0.846,0.279c-0.269,0.219-0.408,0.557-0.418,0.975h-0.865c0.01-0.687,0.258-1.184,0.667-1.522
			c0.388-0.318,0.885-0.498,1.482-0.498c0.577,0,1.104,0.209,1.473,0.557c0.348,0.318,0.557,0.756,0.557,1.353
			c0,0.646-0.448,1.323-1.015,1.562c0.736,0.249,1.154,0.975,1.154,1.691C103.192,226.924,103.003,227.422,102.665,227.78z"/>
		<path fill="#FFFFFF" d="M105.559,228.277v-0.726l2.795-3.453c0.259-0.328,0.378-0.637,0.378-0.995
			c0-0.707-0.408-1.114-1.134-1.114c-0.617,0-1.174,0.338-1.174,1.253h-0.875c0-1.204,0.815-2.02,2.039-2.02
			c0.756,0,1.343,0.309,1.691,0.796c0.209,0.298,0.318,0.637,0.318,1.075c0,0.547-0.209,1.004-0.587,1.472l-2.348,2.915h3.044v0.796
			H105.559z"/>
		<path fill="#FFFFFF" d="M115.685,227.82c-0.338,0.338-0.806,0.587-1.492,0.587s-1.154-0.249-1.492-0.587
			c-0.696-0.707-0.816-1.671-0.816-3.004c0-1.333,0.12-2.309,0.816-3.015c0.338-0.338,0.806-0.577,1.492-0.577
			s1.154,0.239,1.492,0.577c0.696,0.706,0.816,1.681,0.816,3.015C116.5,226.148,116.381,227.113,115.685,227.82z M115.048,222.318
			c-0.199-0.189-0.487-0.318-0.855-0.318s-0.657,0.129-0.855,0.318c-0.587,0.557-0.567,1.562-0.567,2.498
			c0,0.935-0.02,1.94,0.567,2.497c0.199,0.189,0.487,0.318,0.855,0.318s0.657-0.129,0.855-0.318
			c0.587-0.557,0.567-1.562,0.567-2.497C115.615,223.88,115.635,222.875,115.048,222.318z"/>
		<path fill="#FFFFFF" d="M125.024,228.277l-1.323-1.98l-1.313,1.98h-0.965l1.711-2.567l-1.691-2.467h0.995l1.313,1.9l1.264-1.9
			h0.975l-1.702,2.467l1.751,2.567H125.024z"/>
		<path fill="#FFFFFF" d="M134.811,226.805v1.473h-0.855v-1.473h-3.174v-0.885l2.626-4.557h0.896l-2.706,4.676h2.358v-2.06h0.855
			v2.06h0.935v0.766H134.811z"/>
		<path fill="#FFFFFF" d="M141.614,227.65c-0.408,0.488-1.055,0.756-1.781,0.756s-1.373-0.269-1.781-0.756
			c-0.279-0.328-0.458-0.746-0.458-1.273c0-0.756,0.448-1.413,1.084-1.701c-0.567-0.298-0.945-0.896-0.945-1.562
			c0-0.567,0.229-1.015,0.567-1.333c0.388-0.358,0.925-0.557,1.532-0.557s1.144,0.199,1.532,0.557
			c0.338,0.318,0.567,0.766,0.567,1.333c0,0.667-0.378,1.264-0.945,1.562c0.637,0.289,1.084,0.945,1.084,1.701
			C142.072,226.904,141.893,227.322,141.614,227.65z M139.833,225.044c-0.875,0-1.383,0.557-1.383,1.293
			c0,0.816,0.577,1.323,1.383,1.323s1.383-0.507,1.383-1.323C141.216,225.601,140.709,225.044,139.833,225.044z M139.833,221.97
			c-0.687,0-1.244,0.438-1.244,1.144c0,0.637,0.448,1.194,1.244,1.194s1.244-0.557,1.244-1.194
			C141.077,222.408,140.52,221.97,139.833,221.97z"/>
		<path fill="#FFFFFF" d="M147.88,227.82c-0.338,0.338-0.806,0.587-1.492,0.587s-1.154-0.249-1.492-0.587
			c-0.697-0.707-0.816-1.671-0.816-3.004c0-1.333,0.119-2.309,0.816-3.015c0.338-0.338,0.806-0.577,1.492-0.577
			s1.154,0.239,1.492,0.577c0.697,0.706,0.816,1.681,0.816,3.015C148.696,226.148,148.577,227.113,147.88,227.82z M147.244,222.318
			c-0.199-0.189-0.487-0.318-0.855-0.318s-0.657,0.129-0.855,0.318c-0.587,0.557-0.567,1.562-0.567,2.498
			c0,0.935-0.02,1.94,0.567,2.497c0.199,0.189,0.487,0.318,0.855,0.318s0.657-0.129,0.855-0.318
			c0.587-0.557,0.567-1.562,0.567-2.497C147.811,223.88,147.831,222.875,147.244,222.318z"/>
	</g>
</g>
<g>
	<defs>
		<path id="SVGID_31_" d="M8.786,1h127.467c4.12,0,7.46,3.34,7.46,7.46v179.037c0,4.12-3.34,7.46-7.46,7.46H8.786
			c-4.12,0-7.46-3.34-7.46-7.46V8.46C1.326,4.34,4.666,1,8.786,1z"/>
	</defs>
	<clipPath id="SVGID_32_">
		<use xlink:href="#SVGID_31_"  overflow="visible"/>
	</clipPath>
	<g clip-path="url(#SVGID_32_)">
		<defs>
			<rect id="SVGID_33_" x="-2.003" y="-1.984" width="826.552" height="628.617"/>
		</defs>
		<clipPath id="SVGID_34_">
			<use xlink:href="#SVGID_33_"  overflow="visible"/>
		</clipPath>
		<path clip-path="url(#SVGID_34_)" fill="none" stroke="#FFFFFF" stroke-width="4" stroke-miterlimit="10" d="M8.786,1h127.467
			c4.12,0,7.46,3.34,7.46,7.46v179.037c0,4.12-3.34,7.46-7.46,7.46H8.786c-4.12,0-7.46-3.34-7.46-7.46V8.46
			C1.326,4.34,4.666,1,8.786,1z"/>
	</g>
</g>
<g>
	<defs>
		<rect id="SVGID_35_" x="54.194" y="175.561" width="79.724" height="8.455"/>
	</defs>
	<clipPath id="SVGID_36_">
		<use xlink:href="#SVGID_35_"  overflow="visible"/>
	</clipPath>
	<g clip-path="url(#SVGID_36_)">
		<path fill="#FFFFFF" d="M86.405,183.021c-0.368,0.388-0.895,0.627-1.671,0.627c-0.667,0-1.194-0.239-1.582-0.627
			c-0.358-0.358-0.577-0.846-0.587-1.482h0.865c0.02,0.388,0.129,0.716,0.358,0.955c0.209,0.229,0.507,0.388,0.945,0.388
			c0.418,0,0.766-0.129,1.005-0.398c0.189-0.209,0.329-0.498,0.329-0.875c0-0.846-0.577-1.283-1.423-1.283h-0.418v-0.786h0.418
			c0.796,0,1.273-0.438,1.273-1.164c0-0.318-0.109-0.597-0.328-0.806c-0.189-0.189-0.468-0.338-0.846-0.338
			s-0.637,0.109-0.846,0.279c-0.269,0.219-0.408,0.557-0.418,0.975h-0.865c0.01-0.687,0.258-1.184,0.667-1.522
			c0.388-0.318,0.885-0.498,1.482-0.498c0.577,0,1.104,0.209,1.473,0.557c0.348,0.318,0.557,0.756,0.557,1.353
			c0,0.646-0.448,1.323-1.015,1.562c0.736,0.249,1.154,0.975,1.154,1.691C86.933,182.166,86.744,182.663,86.405,183.021z"/>
		<path fill="#FFFFFF" d="M91.378,183.519v-5.949l-1.642,1.204v-0.945l1.691-1.224h0.816v6.915H91.378z"/>
		<path fill="#FFFFFF" d="M95.863,183.519v-0.726l2.795-3.453c0.259-0.328,0.378-0.637,0.378-0.995c0-0.707-0.408-1.114-1.134-1.114
			c-0.617,0-1.174,0.338-1.174,1.253h-0.875c0-1.204,0.815-2.02,2.039-2.02c0.756,0,1.343,0.309,1.691,0.796
			c0.209,0.298,0.318,0.637,0.318,1.075c0,0.547-0.209,1.004-0.587,1.472l-2.348,2.915h3.044v0.796H95.863z"/>
		<path fill="#FFFFFF" d="M108.764,183.519l-1.323-1.98l-1.313,1.98h-0.965l1.711-2.567l-1.691-2.467h0.995l1.313,1.9l1.264-1.9
			h0.975l-1.702,2.467l1.751,2.567H108.764z"/>
		<path fill="#FFFFFF" d="M118.611,183.021c-0.368,0.388-0.895,0.627-1.671,0.627c-0.667,0-1.194-0.239-1.582-0.627
			c-0.358-0.358-0.577-0.846-0.587-1.482h0.865c0.02,0.388,0.129,0.716,0.358,0.955c0.209,0.229,0.507,0.388,0.945,0.388
			c0.418,0,0.766-0.129,1.005-0.398c0.189-0.209,0.329-0.498,0.329-0.875c0-0.846-0.577-1.283-1.423-1.283h-0.418v-0.786h0.418
			c0.796,0,1.273-0.438,1.273-1.164c0-0.318-0.109-0.597-0.328-0.806c-0.189-0.189-0.468-0.338-0.846-0.338
			c-0.378,0-0.637,0.109-0.846,0.279c-0.269,0.219-0.408,0.557-0.418,0.975h-0.866c0.01-0.687,0.259-1.184,0.667-1.522
			c0.388-0.318,0.885-0.498,1.482-0.498c0.577,0,1.104,0.209,1.472,0.557c0.348,0.318,0.557,0.756,0.557,1.353
			c0,0.646-0.448,1.323-1.015,1.562c0.736,0.249,1.154,0.975,1.154,1.691C119.138,182.166,118.949,182.663,118.611,183.021z"/>
		<path fill="#FFFFFF" d="M125.295,182.713c-0.328,0.517-0.925,0.935-1.801,0.935c-0.587,0-1.084-0.209-1.433-0.567
			c-0.309-0.309-0.537-0.736-0.557-1.244h0.855c0.02,0.338,0.179,0.597,0.388,0.776c0.199,0.179,0.448,0.269,0.776,0.269
			c0.438,0,0.736-0.179,0.945-0.418c0.438-0.497,0.478-1.393,0.487-2.119c-0.219,0.478-0.875,0.806-1.532,0.806
			c-0.626,0-1.124-0.219-1.452-0.538c-0.448-0.428-0.697-1.054-0.697-1.791c0-0.696,0.239-1.264,0.627-1.691
			c0.368-0.398,0.915-0.667,1.632-0.667c0.776,0,1.353,0.398,1.691,0.855c0.498,0.687,0.587,1.662,0.587,2.637
			C125.812,180.942,125.763,181.967,125.295,182.713z M124.459,177.649c-0.219-0.239-0.527-0.418-0.965-0.418
			s-0.736,0.159-0.955,0.398c-0.269,0.289-0.408,0.696-0.408,1.184c0,0.487,0.149,0.895,0.408,1.184
			c0.209,0.239,0.537,0.398,0.975,0.398c0.438,0,0.756-0.179,0.965-0.418c0.259-0.288,0.388-0.676,0.388-1.164
			C124.867,178.325,124.728,177.938,124.459,177.649z"/>
		<path fill="#FFFFFF" d="M131.63,183.061c-0.338,0.338-0.806,0.587-1.492,0.587s-1.154-0.249-1.492-0.587
			c-0.697-0.707-0.816-1.671-0.816-3.004c0-1.333,0.119-2.309,0.816-3.015c0.338-0.338,0.806-0.577,1.492-0.577
			s1.154,0.239,1.492,0.577c0.697,0.706,0.816,1.681,0.816,3.015C132.446,181.39,132.327,182.354,131.63,183.061z M130.994,177.559
			c-0.199-0.189-0.487-0.318-0.855-0.318s-0.657,0.129-0.855,0.318c-0.587,0.557-0.567,1.562-0.567,2.498
			c0,0.935-0.02,1.94,0.567,2.497c0.199,0.189,0.487,0.318,0.855,0.318s0.657-0.129,0.855-0.318
			c0.587-0.557,0.567-1.562,0.567-2.497C131.561,179.121,131.581,178.116,130.994,177.559z"/>
	</g>
</g>
<g>
	<defs>
		<path id="SVGID_37_" d="M8.786,1h120.353c4.12,0,7.459,3.34,7.459,7.46v154.17c0,4.12-3.34,7.459-7.459,7.459H8.786
			c-4.12,0-7.46-3.339-7.46-7.459V8.46C1.326,4.34,4.666,1,8.786,1z"/>
	</defs>
	<clipPath id="SVGID_38_">
		<use xlink:href="#SVGID_37_"  overflow="visible"/>
	</clipPath>
	<g clip-path="url(#SVGID_38_)">
		<defs>
			<rect id="SVGID_39_" x="-2.003" y="-1.984" width="826.552" height="628.617"/>
		</defs>
		<clipPath id="SVGID_40_">
			<use xlink:href="#SVGID_39_"  overflow="visible"/>
		</clipPath>
		<path clip-path="url(#SVGID_40_)" fill="none" stroke="#FFFFFF" stroke-width="4" stroke-miterlimit="10" d="M8.786,1h120.353
			c4.12,0,7.459,3.34,7.459,7.46v154.17c0,4.12-3.34,7.459-7.459,7.459H8.786c-4.12,0-7.46-3.339-7.46-7.459V8.46
			C1.326,4.34,4.666,1,8.786,1z"/>
		<use xlink:href="#SVGID_39_"  overflow="visible" fill="none" stroke="#FFFFFF" stroke-miterlimit="10"/>
	</g>
	
		<use xlink:href="#SVGID_37_"  overflow="visible" fill-rule="evenodd" clip-rule="evenodd" fill="none" stroke="#FFFFFF" stroke-miterlimit="10"/>
</g>
<g>
	<defs>
		<rect id="SVGID_41_" x="47.231" y="150.695" width="79.724" height="8.454"/>
	</defs>
	<clipPath id="SVGID_42_">
		<use xlink:href="#SVGID_41_"  overflow="visible"/>
	</clipPath>
	<g clip-path="url(#SVGID_42_)">
		<path fill="#FFFFFF" d="M75.771,158.652v-0.726l2.795-3.453c0.259-0.328,0.378-0.637,0.378-0.995c0-0.707-0.408-1.114-1.134-1.114
			c-0.617,0-1.174,0.338-1.174,1.253h-0.875c0-1.204,0.815-2.02,2.039-2.02c0.756,0,1.343,0.309,1.691,0.796
			c0.209,0.298,0.318,0.637,0.318,1.075c0,0.547-0.209,1.004-0.587,1.472l-2.348,2.915h3.044v0.796H75.771z"/>
		<path fill="#FFFFFF" d="M83.699,158.652h-0.915l2.875-6.148h-3.542v-0.766h4.437v0.766L83.699,158.652z"/>
		<path fill="#FFFFFF" d="M88.9,158.652v-0.726l2.795-3.453c0.259-0.328,0.378-0.637,0.378-0.995c0-0.707-0.408-1.114-1.134-1.114
			c-0.617,0-1.174,0.338-1.174,1.253h-0.875c0-1.204,0.815-2.02,2.039-2.02c0.756,0,1.343,0.309,1.691,0.796
			c0.209,0.298,0.318,0.637,0.318,1.075c0,0.547-0.209,1.004-0.587,1.472l-2.348,2.915h3.044v0.796H88.9z"/>
		<path fill="#FFFFFF" d="M101.801,158.652l-1.323-1.98l-1.313,1.98H98.2l1.711-2.567l-1.691-2.467h0.995l1.313,1.9l1.264-1.9h0.975
			l-1.702,2.467l1.751,2.567H101.801z"/>
		<path fill="#FFFFFF" d="M111.648,158.155c-0.368,0.388-0.895,0.627-1.671,0.627c-0.667,0-1.194-0.239-1.582-0.627
			c-0.358-0.358-0.577-0.846-0.587-1.482h0.865c0.02,0.388,0.129,0.716,0.358,0.955c0.209,0.229,0.507,0.388,0.945,0.388
			c0.418,0,0.766-0.129,1.005-0.398c0.189-0.209,0.329-0.498,0.329-0.875c0-0.846-0.577-1.283-1.423-1.283h-0.418v-0.786h0.418
			c0.796,0,1.273-0.438,1.273-1.164c0-0.318-0.109-0.597-0.328-0.806c-0.189-0.189-0.468-0.338-0.846-0.338
			c-0.378,0-0.637,0.109-0.846,0.279c-0.269,0.219-0.408,0.557-0.418,0.975h-0.866c0.01-0.687,0.259-1.184,0.667-1.522
			c0.388-0.318,0.885-0.498,1.482-0.498c0.577,0,1.104,0.209,1.472,0.557c0.348,0.318,0.557,0.756,0.557,1.353
			c0,0.646-0.448,1.323-1.015,1.562c0.736,0.249,1.154,0.975,1.154,1.691C112.175,157.299,111.986,157.797,111.648,158.155z"/>
		<path fill="#FFFFFF" d="M118.153,157.18v1.473h-0.855v-1.473h-3.174v-0.885l2.626-4.557h0.896l-2.706,4.676h2.358v-2.06h0.855
			v2.06h0.935v0.766H118.153z"/>
		<path fill="#FFFFFF" d="M124.667,158.195c-0.338,0.338-0.806,0.587-1.492,0.587s-1.154-0.249-1.492-0.587
			c-0.697-0.707-0.816-1.671-0.816-3.004c0-1.333,0.119-2.309,0.816-3.015c0.338-0.338,0.806-0.577,1.492-0.577
			s1.154,0.239,1.492,0.577c0.697,0.706,0.816,1.681,0.816,3.015C125.483,156.523,125.364,157.488,124.667,158.195z
			 M124.031,152.693c-0.199-0.189-0.487-0.318-0.855-0.318s-0.657,0.129-0.855,0.318c-0.587,0.557-0.567,1.562-0.567,2.498
			c0,0.935-0.02,1.94,0.567,2.497c0.199,0.189,0.487,0.318,0.855,0.318s0.657-0.129,0.855-0.318
			c0.587-0.557,0.567-1.562,0.567-2.497C124.598,154.255,124.618,153.25,124.031,152.693z"/>
	</g>
</g>
</svg>
