<?xml version="1.0" encoding="utf-8"?>
<!-- Generator: Adobe Illustrator 16.0.0, SVG Export Plug-In . SVG Version: 6.00 Build 0)  -->
<!DOCTYPE svg PUBLIC "-//W3C//DTD SVG 1.1//EN" "http://www.w3.org/Graphics/SVG/1.1/DTD/svg11.dtd">
<svg version="1.1" id="Layer_1" xmlns="http://www.w3.org/2000/svg" xmlns:xlink="http://www.w3.org/1999/xlink" x="0px" y="0px"
	 width="30px" height="30px" viewBox="0 0 30 30" enable-background="new 0 0 30 30" xml:space="preserve">
<g id="Layer_1_1_" display="none">
	<path display="inline" d="M29.35,29.348c-1.029,1.03-2.701,1.034-3.729,0L0.664,4.396c-1.031-1.03-1.03-2.703,0-3.731l0,0
		c1.03-1.031,2.701-1.031,3.731-0.001L29.35,25.617C30.38,26.646,30.38,28.318,29.35,29.348L29.35,29.348z"/>
	<path display="inline" d="M29.35,0.664c1.028,1.03,1.03,2.701-0.002,3.732L4.395,29.35c-1.03,1.03-2.702,1.028-3.731,0l0,0
		c-1.03-1.029-1.03-2.701,0-3.729L25.617,0.665C26.646-0.367,28.318-0.366,29.35,0.664L29.35,0.664z"/>
</g>
<g id="Layer_1_copy" display="none">
	<path display="inline" d="M27.473,12.633H8.466l8.127-8.128c1.032-1.031,1.03-2.703,0.003-3.732
		c-1.031-1.03-2.703-1.03-3.733,0.001l-12.09,12.09c-0.584,0.585-0.826,1.375-0.747,2.139c-0.078,0.763,0.162,1.552,0.746,2.136
		l12.091,12.09c1.031,1.03,2.702,1.028,3.733,0.002c1.029-1.029,1.029-2.703-0.002-3.73L9.01,17.912l18.461-0.002
		c1.461,0.002,2.641-1.182,2.639-2.64C30.109,13.814,28.93,12.632,27.473,12.633z"/>
</g>
<rect y="13.297" fill="#FFFFFF" width="30" height="1.796"/>
<rect y="4.194" fill="#FFFFFF" width="30" height="1.795"/>
<rect y="22.521" fill="#FFFFFF" width="30" height="1.795"/>
</svg>
