<?xml version="1.0" encoding="utf-8"?>
<!-- Generator: Adobe Illustrator 16.0.0, SVG Export Plug-In . SVG Version: 6.00 Build 0)  -->
<!DOCTYPE svg PUBLIC "-//W3C//DTD SVG 1.1//EN" "http://www.w3.org/Graphics/SVG/1.1/DTD/svg11.dtd">
<svg version="1.1" id="Layer_1" xmlns="http://www.w3.org/2000/svg" xmlns:xlink="http://www.w3.org/1999/xlink" x="0px" y="0px"
	 width="30px" height="30px" viewBox="0 0 30 30" enable-background="new 0 0 30 30" xml:space="preserve">
<g id="Layer_1_1_" display="none">
	<path display="inline" d="M29.35,29.348c-1.029,1.03-2.701,1.034-3.731,0L0.664,4.396c-1.031-1.03-1.03-2.703,0-3.731l0,0
		c1.03-1.031,2.701-1.031,3.731-0.001L29.35,25.617C30.38,26.646,30.38,28.318,29.35,29.348L29.35,29.348z"/>
	<path display="inline" d="M29.35,0.664c1.028,1.03,1.03,2.701-0.002,3.732L4.395,29.35c-1.03,1.03-2.702,1.028-3.731,0l0,0
		c-1.03-1.029-1.03-2.701,0-3.731L25.617,0.665C26.646-0.367,28.318-0.366,29.35,0.664L29.35,0.664z"/>
</g>
<g id="Layer_1_copy_2" display="none">
	<path display="inline" d="M30,2.637c0.001,1.458-1.18,2.643-2.641,2.64L2.639,5.279C1.182,5.279-0.001,4.096,0,2.64l0,0
		C0,1.183,1.181,0,2.638,0h24.725C28.818,0,30.001,1.182,30,2.637L30,2.637z"/>
	<path display="inline" d="M30,27.357c0.001,1.459-1.18,2.643-2.641,2.641L2.639,30C1.182,30-0.001,28.816,0,27.361l0,0
		c0-1.457,1.181-2.641,2.638-2.641h24.725C28.818,24.721,30.001,25.902,30,27.357L30,27.357z"/>
	<path display="inline" d="M30,14.997c0.001,1.459-1.18,2.644-2.641,2.642l-24.72,0.002c-1.457,0-2.64-1.185-2.639-2.64l0,0
		c0-1.458,1.181-2.64,2.638-2.64l24.725-0.001C28.818,12.36,30.001,13.542,30,14.997L30,14.997z"/>
</g>
<polygon points="30,14.102 3.435,14.102 13.47,4.068 12.201,2.799 1.269,13.731 0.37,14.63 0,15 12.2,27.201 13.47,25.932 
	3.436,15.898 30,15.898 "/>
</svg>
