<?xml version="1.0" encoding="utf-8"?>
<!-- Generator: Adobe Illustrator 16.0.0, SVG Export Plug-In . SVG Version: 6.00 Build 0)  -->
<!DOCTYPE svg PUBLIC "-//W3C//DTD SVG 1.1//EN" "http://www.w3.org/Graphics/SVG/1.1/DTD/svg11.dtd">
<svg version="1.1" id="Layer_1" xmlns="http://www.w3.org/2000/svg" xmlns:xlink="http://www.w3.org/1999/xlink" x="0px" y="0px"
	 width="1044px" height="433.667px" viewBox="0 0 1044 433.667" enable-background="new 0 0 1044 433.667" xml:space="preserve">
<rect x="265.07" y="382.858" fill="none" width="113.006" height="31.559"/>
<text transform="matrix(1 0 0 1 308.1089 391.522)" font-family="'Akkurat-Bold'" font-size="12">IPAD</text>
<rect x="690.108" y="382.858" fill="none" width="113.006" height="31.559"/>
<text transform="matrix(1 0 0 1 710.4194 391.522)" font-family="'Akkurat-Bold'" font-size="12">SOBREMESA</text>
<rect x="56.269" y="382.858" fill="none" width="96.542" height="27.352"/>
<text transform="matrix(1 0 0 1 86.1743 391.522)" font-family="'Akkurat-Bold'" font-size="12">MÓBIL</text>
<g>
	<g>
		<line fill="none" stroke="#000000" stroke-miterlimit="10" x1="159.997" y1="410.209" x2="48.381" y2="410.209"/>
		<g>
			<path d="M153.163,405.41c-0.148,0.232-0.08,0.542,0.153,0.69l6.453,4.109l-6.453,4.109c-0.233,0.148-0.302,0.458-0.153,0.69
				s0.459,0.3,0.69,0.153l7.115-4.531c0.144-0.092,0.231-0.251,0.231-0.422s-0.087-0.33-0.231-0.422l-7.115-4.531
				c-0.083-0.053-0.176-0.078-0.268-0.078C153.42,405.178,153.258,405.26,153.163,405.41z"/>
		</g>
		<g>
			<rect x="47.881" y="406.959" width="1" height="6.5"/>
		</g>
	</g>
</g>
<path fill="none" stroke="#000000" stroke-miterlimit="10" d="M157.938,354.084c0,3.021-2.192,5.47-4.897,5.47H56.039
	c-2.705,0-4.897-2.448-4.897-5.47V169.501c0-3.021,2.192-5.471,4.897-5.471h97.002c2.705,0,4.897,2.449,4.897,5.471V354.084z"/>
<rect x="51.16" y="191.679" fill="none" stroke="#000000" stroke-miterlimit="10" width="106.76" height="136.29"/>
<circle fill="none" stroke="#000000" stroke-miterlimit="10" cx="104.54" cy="343.105" r="9.313"/>
<g>
	<g>
		<line fill="none" stroke="#000000" stroke-miterlimit="10" x1="488.986" y1="410.209" x2="176.935" y2="410.209"/>
		<g>
			<path d="M482.152,405.41c-0.148,0.232-0.08,0.542,0.153,0.69l6.453,4.109l-6.453,4.109c-0.233,0.148-0.302,0.458-0.153,0.69
				s0.459,0.3,0.69,0.153l7.115-4.531c0.144-0.092,0.231-0.251,0.231-0.422s-0.087-0.33-0.231-0.422l-7.115-4.531
				c-0.083-0.053-0.176-0.078-0.268-0.078C482.409,405.178,482.248,405.26,482.152,405.41z"/>
		</g>
		<g>
			<rect x="176.435" y="406.959" width="1" height="6.5"/>
		</g>
	</g>
</g>
<g>
	<g>
		<line fill="none" stroke="#000000" stroke-miterlimit="10" x1="987.125" y1="410.209" x2="505.073" y2="410.209"/>
		<g>
			<path d="M980.291,405.41c-0.148,0.232-0.08,0.542,0.152,0.69l6.453,4.109l-6.453,4.109c-0.232,0.148-0.301,0.458-0.152,0.69
				s0.459,0.3,0.689,0.153l7.115-4.531c0.145-0.092,0.231-0.251,0.231-0.422s-0.087-0.33-0.231-0.422l-7.115-4.531
				c-0.082-0.053-0.176-0.078-0.268-0.078C980.547,405.178,980.386,405.26,980.291,405.41z"/>
		</g>
		<g>
			<rect x="504.573" y="406.959" width="1" height="6.5"/>
		</g>
	</g>
</g>
<path fill="none" stroke="#000000" stroke-miterlimit="10" d="M182.423,361.267c-3.239,0-5.864-2.352-5.864-5.25V134.789
	c0-2.899,2.625-5.249,5.864-5.249h296.562c3.239,0,5.865,2.35,5.865,5.249v221.229c0,2.898-2.626,5.25-5.865,5.25H182.423z"/>
<rect x="205.188" y="135.617" fill="none" stroke="#000000" stroke-miterlimit="10" width="250.02" height="219.572"/>
<circle fill="none" stroke="#000000" stroke-miterlimit="10" cx="470.876" cy="245.403" r="9.313"/>
<path fill="none" stroke="#000000" stroke-miterlimit="10" d="M990,355.797c0,3.021-2.191,5.47-4.896,5.47H508.119
	c-2.705,0-4.897-2.448-4.897-5.47V45.317c0-3.021,2.192-5.471,4.897-5.471h476.984c2.705,0,4.896,2.449,4.896,5.471V355.797z"/>
<path fill="none" stroke="#000000" stroke-miterlimit="10" d="M980,347.276c0,2.841-2.102,5.142-4.696,5.142H517.846
	c-2.595,0-4.696-2.301-4.696-5.142V55.444c0-2.84,2.102-5.142,4.696-5.142h457.457c2.595,0,4.696,2.302,4.696,5.142V347.276z"/>
</svg>
