<?xml version="1.0" encoding="utf-8"?>
<!-- Generator: Adobe Illustrator 16.0.0, SVG Export Plug-In . SVG Version: 6.00 Build 0)  -->
<!DOCTYPE svg PUBLIC "-//W3C//DTD SVG 1.1//EN" "http://www.w3.org/Graphics/SVG/1.1/DTD/svg11.dtd">
<svg version="1.1" id="Layer_1" xmlns="http://www.w3.org/2000/svg" xmlns:xlink="http://www.w3.org/1999/xlink" x="0px" y="0px"
	 width="864.906px" height="374.5px" viewBox="0 0 864.906 374.5" enable-background="new 0 0 864.906 374.5" xml:space="preserve">
<rect x="137.125" y="260.752" fill="none" stroke="#9B9A9A" stroke-miterlimit="10" width="101.537" height="32.005"/>
<rect x="243.993" y="260.752" fill="none" stroke="#9B9A9A" stroke-miterlimit="10" width="101.537" height="32.005"/>
<rect x="137.125" y="82.349" fill="#BCBEC0" width="207.956" height="82.345"/>
<rect x="137.125" y="169.713" fill="#9B9A9A" width="101.537" height="83.357"/>
<rect x="243.993" y="169.713" fill="#9B9A9A" width="101.537" height="83.357"/>
<rect x="137.161" y="48.554" width="84.436" height="27.776"/>
<g>
	<rect x="437.731" y="262.194" fill="none" stroke="#9B9A9A" stroke-miterlimit="10" width="116.996" height="53.075"/>
	<rect x="560.869" y="262.194" fill="none" stroke="#9B9A9A" stroke-miterlimit="10" width="116.996" height="53.075"/>
	<rect x="437.731" y="53.673" fill="#BCBEC0" width="363.791" height="109.365"/>
	<rect x="437.731" y="170.616" fill="#9B9A9A" width="116.996" height="83.851"/>
	<rect x="560.869" y="170.616" fill="#9B9A9A" width="116.996" height="83.851"/>
	<rect x="684.525" y="262.194" fill="none" stroke="#9B9A9A" stroke-miterlimit="10" width="116.996" height="53.075"/>
	<rect x="684.525" y="170.616" fill="#9B9A9A" width="116.996" height="83.851"/>
	<rect x="437.772" y="19.678" width="116.955" height="27.94"/>
</g>
<rect x="5.895" y="251.345" fill="#9B9A9A" width="96.542" height="39.958"/>
<g>
	<path d="M220.857,335.989v7.067h-1.548v-7.067h-2.52v-1.44h6.588v1.44H220.857z"/>
	<path d="M228.657,343.057l-0.552-1.631h-3.384l-0.553,1.631h-1.56l2.988-8.508h1.691l2.988,8.508H228.657z M226.413,336.445
		l-1.212,3.588h2.424L226.413,336.445z"/>
	<path d="M237.789,340.585c0,0.384-0.067,0.74-0.204,1.068c-0.136,0.328-0.355,0.608-0.659,0.84
		c-0.337,0.256-0.696,0.416-1.08,0.479c-0.385,0.064-0.78,0.097-1.188,0.097h-3.384v-8.521h3.384c0.344,0,0.686,0.032,1.026,0.096
		c0.34,0.064,0.653,0.188,0.941,0.373c0.312,0.207,0.555,0.476,0.727,0.804s0.258,0.676,0.258,1.044c0,0.176-0.021,0.352-0.06,0.527
		c-0.041,0.177-0.104,0.347-0.192,0.511s-0.198,0.312-0.33,0.444c-0.132,0.131-0.286,0.238-0.462,0.317
		c0.408,0.185,0.714,0.45,0.918,0.798S237.789,340.186,237.789,340.585z M236.037,336.961c0-0.199-0.036-0.369-0.107-0.51
		c-0.072-0.141-0.168-0.252-0.288-0.336s-0.261-0.145-0.42-0.18c-0.16-0.037-0.328-0.055-0.504-0.055h-1.908v2.137h1.943
		c0.177,0,0.343-0.019,0.498-0.055c0.156-0.035,0.292-0.094,0.408-0.174s0.208-0.188,0.276-0.324
		C236.003,337.329,236.037,337.161,236.037,336.961z M236.218,340.549c0-0.455-0.141-0.775-0.421-0.959
		c-0.279-0.185-0.623-0.277-1.031-0.277h-1.956v2.365h1.908c0.176,0,0.354-0.019,0.533-0.055c0.181-0.036,0.343-0.098,0.486-0.186
		s0.26-0.205,0.348-0.348C236.173,340.945,236.218,340.766,236.218,340.549z"/>
	<path d="M239.241,343.057v-8.508h1.548v7.045h3.948v1.463H239.241z"/>
	<path d="M245.841,343.057v-8.508h6.06v1.404h-4.512v1.98h3.972v1.392h-3.972v2.328h4.512v1.403H245.841z"/>
	<path d="M256.521,335.989v7.067h-1.548v-7.067h-2.52v-1.44h6.588v1.44H256.521z"/>
	<path d="M264.32,343.057l-0.552-1.631h-3.384l-0.553,1.631h-1.56l2.988-8.508h1.691l2.988,8.508H264.32z M262.076,336.445
		l-1.212,3.588h2.424L262.076,336.445z"/>
	<path d="M228.995,357.287l-3.28-3.27l3.271-3.271l0.3,0.31l-2.96,2.961l2.97,2.97L228.995,357.287z"/>
	<path d="M234.096,357.057h-0.54l3.02-6.47h-3.83v-0.479h4.34v0.529L234.096,357.057z"/>
	<path d="M242.985,354.857c0,0.32-0.049,0.619-0.146,0.9c-0.097,0.279-0.236,0.525-0.42,0.739s-0.408,0.382-0.675,0.505
		s-0.57,0.186-0.91,0.186c-0.387,0-0.719-0.087-0.995-0.26c-0.276-0.174-0.491-0.371-0.645-0.591
		c-0.127-0.18-0.23-0.378-0.311-0.595s-0.142-0.445-0.185-0.686c-0.044-0.24-0.073-0.486-0.09-0.74
		c-0.017-0.252-0.025-0.502-0.025-0.75c0-0.266,0.009-0.535,0.025-0.809s0.053-0.539,0.109-0.796s0.136-0.498,0.235-0.725
		s0.229-0.431,0.39-0.61c0.16-0.174,0.36-0.326,0.601-0.46c0.239-0.134,0.533-0.2,0.88-0.2c0.28,0,0.538,0.044,0.774,0.131
		c0.237,0.086,0.442,0.208,0.615,0.364c0.174,0.157,0.313,0.347,0.42,0.57s0.167,0.472,0.181,0.745h-0.521
		c-0.026-0.4-0.168-0.722-0.425-0.965c-0.257-0.244-0.605-0.365-1.045-0.365c-0.254,0-0.47,0.045-0.65,0.135
		c-0.18,0.09-0.33,0.201-0.45,0.335c-0.146,0.16-0.262,0.353-0.345,0.575s-0.145,0.459-0.185,0.705s-0.065,0.496-0.075,0.75
		s-0.015,0.483-0.015,0.689c0.14-0.32,0.363-0.581,0.67-0.785c0.307-0.203,0.656-0.305,1.05-0.305c0.34,0,0.645,0.057,0.915,0.17
		c0.27,0.113,0.496,0.271,0.68,0.475c0.184,0.204,0.323,0.447,0.42,0.73S242.985,354.518,242.985,354.857z M242.475,354.857
		c0-0.24-0.031-0.472-0.095-0.695c-0.063-0.223-0.161-0.42-0.295-0.59s-0.304-0.307-0.51-0.41c-0.207-0.104-0.454-0.154-0.74-0.154
		c-0.227,0-0.427,0.037-0.6,0.114c-0.174,0.077-0.327,0.179-0.46,0.306c-0.354,0.34-0.53,0.81-0.53,1.409
		c0,0.24,0.033,0.472,0.1,0.695s0.167,0.423,0.3,0.601c0.134,0.176,0.301,0.316,0.5,0.42c0.2,0.104,0.434,0.154,0.7,0.154
		c0.287,0,0.532-0.051,0.735-0.154s0.371-0.24,0.505-0.41s0.231-0.367,0.295-0.59C242.443,355.328,242.475,355.098,242.475,354.857z
		"/>
	<path d="M248.585,355.227c0,0.314-0.061,0.592-0.181,0.836c-0.119,0.243-0.279,0.448-0.479,0.615c-0.2,0.166-0.434,0.293-0.7,0.379
		c-0.267,0.087-0.547,0.131-0.84,0.131c-0.294,0-0.572-0.044-0.835-0.131c-0.264-0.086-0.495-0.213-0.695-0.379
		c-0.2-0.167-0.358-0.372-0.475-0.615c-0.117-0.244-0.175-0.521-0.175-0.836c0-0.193,0.028-0.383,0.085-0.569
		s0.138-0.36,0.245-0.521c0.106-0.16,0.236-0.301,0.39-0.425c0.153-0.123,0.323-0.218,0.51-0.284
		c-0.326-0.127-0.587-0.341-0.78-0.641s-0.29-0.623-0.29-0.971c0-0.293,0.054-0.555,0.16-0.784s0.252-0.423,0.436-0.58
		c0.183-0.157,0.399-0.276,0.649-0.36c0.25-0.083,0.516-0.125,0.795-0.125c0.28,0,0.544,0.042,0.79,0.125
		c0.247,0.084,0.462,0.203,0.646,0.36s0.326,0.351,0.43,0.58s0.155,0.491,0.155,0.784c0,0.348-0.097,0.671-0.29,0.971
		s-0.453,0.514-0.78,0.641c0.187,0.066,0.356,0.161,0.51,0.284c0.153,0.124,0.284,0.265,0.391,0.425s0.188,0.334,0.245,0.521
		S248.585,355.033,248.585,355.227z M248.064,355.197c0-0.246-0.043-0.467-0.13-0.66s-0.205-0.355-0.354-0.484
		c-0.15-0.131-0.329-0.23-0.535-0.301c-0.207-0.07-0.427-0.105-0.66-0.105s-0.452,0.035-0.655,0.105s-0.38,0.17-0.53,0.301
		c-0.149,0.129-0.267,0.291-0.35,0.484s-0.125,0.414-0.125,0.66s0.043,0.465,0.13,0.654c0.087,0.19,0.205,0.351,0.355,0.48
		c0.149,0.13,0.328,0.229,0.535,0.295c0.206,0.066,0.426,0.1,0.659,0.1s0.452-0.033,0.655-0.1s0.38-0.165,0.53-0.295
		c0.149-0.13,0.267-0.29,0.35-0.48C248.023,355.662,248.064,355.443,248.064,355.197z M247.904,351.797
		c0-0.22-0.04-0.416-0.119-0.59c-0.08-0.174-0.188-0.318-0.325-0.436c-0.137-0.115-0.299-0.205-0.485-0.264
		c-0.187-0.061-0.384-0.091-0.59-0.091c-0.214,0-0.41,0.03-0.59,0.091c-0.181,0.059-0.339,0.148-0.476,0.264
		c-0.137,0.117-0.243,0.262-0.319,0.436c-0.077,0.174-0.115,0.37-0.115,0.59c0,0.227,0.038,0.429,0.115,0.605
		c0.076,0.176,0.183,0.324,0.319,0.445c0.137,0.119,0.299,0.209,0.485,0.27s0.387,0.09,0.6,0.09c0.214,0,0.412-0.029,0.596-0.09
		c0.183-0.061,0.341-0.15,0.475-0.27c0.134-0.121,0.238-0.27,0.315-0.445C247.866,352.226,247.904,352.023,247.904,351.797z"/>
	<path d="M254.534,354.547c0,0.414-0.063,0.807-0.189,1.18c-0.127,0.374-0.324,0.688-0.591,0.94c-0.166,0.16-0.361,0.286-0.585,0.38
		c-0.223,0.094-0.481,0.141-0.774,0.141c-0.18,0-0.355-0.023-0.525-0.07s-0.328-0.113-0.475-0.2s-0.278-0.19-0.396-0.31
		c-0.116-0.12-0.208-0.25-0.274-0.391v2.84h-0.5v-7h0.439l0.061,0.881c0.066-0.154,0.16-0.293,0.279-0.42
		c0.12-0.127,0.254-0.234,0.4-0.32c0.146-0.087,0.305-0.153,0.475-0.2c0.171-0.046,0.339-0.069,0.506-0.069
		c0.286,0,0.538,0.041,0.755,0.125c0.216,0.083,0.408,0.197,0.575,0.344c0.279,0.248,0.486,0.559,0.619,0.936
		C254.468,353.709,254.534,354.113,254.534,354.547z M254.024,354.557c0-0.359-0.052-0.696-0.155-1.01
		c-0.104-0.312-0.271-0.573-0.505-0.779c-0.127-0.113-0.27-0.201-0.43-0.26c-0.16-0.061-0.347-0.091-0.561-0.091
		c-0.22,0-0.413,0.036-0.58,0.11c-0.166,0.073-0.313,0.17-0.439,0.289c-0.227,0.221-0.39,0.479-0.49,0.775
		c-0.1,0.297-0.149,0.619-0.149,0.965c0,0.374,0.046,0.705,0.14,0.996c0.093,0.289,0.257,0.541,0.49,0.754
		c0.126,0.121,0.274,0.215,0.444,0.285s0.372,0.105,0.605,0.105s0.437-0.04,0.609-0.12c0.174-0.08,0.327-0.187,0.461-0.319
		c0.192-0.214,0.335-0.471,0.425-0.771S254.024,354.877,254.024,354.557z"/>
	<path d="M258.824,357.057l-1.54-2.229l-1.551,2.229h-0.59l1.8-2.59l-1.77-2.47h0.6l1.521,2.14l1.53-2.14h0.58l-1.78,2.47l1.8,2.59
		H258.824z"/>
</g>
<g>
	<path d="M590.458,340.573c0,0.403-0.066,0.75-0.2,1.04c-0.133,0.29-0.304,0.54-0.514,0.75c-0.331,0.33-0.731,0.566-1.203,0.707
		c-0.472,0.142-0.974,0.212-1.506,0.212c-0.459,0-0.913-0.066-1.36-0.199c-0.447-0.134-0.849-0.361-1.203-0.684
		c-0.258-0.233-0.472-0.521-0.641-0.864c-0.17-0.343-0.254-0.72-0.254-1.131h1.596c0,0.209,0.042,0.405,0.127,0.586
		c0.085,0.182,0.191,0.337,0.32,0.466c0.186,0.186,0.409,0.309,0.672,0.369c0.262,0.061,0.518,0.091,0.768,0.091
		c0.298,0,0.58-0.034,0.847-0.104c0.266-0.068,0.479-0.188,0.641-0.356c0.097-0.104,0.178-0.216,0.242-0.332
		c0.064-0.117,0.097-0.28,0.097-0.49c0-0.314-0.103-0.55-0.309-0.707c-0.205-0.157-0.441-0.261-0.707-0.309
		c-0.291-0.057-0.609-0.097-0.956-0.121s-0.661-0.061-0.943-0.108c-0.298-0.049-0.578-0.134-0.84-0.255
		c-0.263-0.12-0.492-0.279-0.689-0.478c-0.197-0.197-0.354-0.435-0.472-0.713s-0.176-0.595-0.176-0.949
		c0-0.339,0.068-0.649,0.206-0.932c0.137-0.282,0.318-0.536,0.544-0.762c0.282-0.282,0.646-0.504,1.089-0.665
		s0.919-0.242,1.427-0.242c0.46,0,0.901,0.071,1.324,0.212s0.78,0.349,1.07,0.623c0.258,0.241,0.466,0.516,0.623,0.822
		s0.239,0.641,0.247,1.004h-1.596c-0.008-0.153-0.047-0.305-0.115-0.454s-0.155-0.28-0.26-0.393
		c-0.138-0.146-0.331-0.258-0.58-0.339c-0.25-0.081-0.492-0.121-0.726-0.121c-0.242,0-0.49,0.032-0.744,0.097
		s-0.47,0.189-0.647,0.375c-0.088,0.097-0.159,0.202-0.211,0.314c-0.053,0.113-0.079,0.25-0.079,0.411
		c0,0.282,0.081,0.498,0.242,0.647c0.161,0.148,0.371,0.243,0.629,0.284c0.273,0.04,0.582,0.076,0.925,0.108
		s0.655,0.068,0.938,0.108c0.322,0.049,0.627,0.136,0.913,0.261s0.536,0.29,0.75,0.495c0.213,0.206,0.383,0.454,0.508,0.744
		S590.458,340.211,590.458,340.573z"/>
	<path d="M598.476,338.844c0,0.355-0.013,0.689-0.037,1.004c-0.023,0.314-0.076,0.617-0.157,0.907
		c-0.08,0.29-0.191,0.564-0.332,0.822c-0.142,0.258-0.329,0.504-0.562,0.737c-0.331,0.331-0.709,0.575-1.137,0.732
		c-0.428,0.156-0.871,0.235-1.33,0.235c-0.46,0-0.903-0.079-1.33-0.235c-0.428-0.157-0.807-0.401-1.137-0.732
		c-0.234-0.233-0.422-0.479-0.562-0.737c-0.142-0.258-0.252-0.532-0.333-0.822c-0.08-0.29-0.133-0.593-0.157-0.907
		s-0.036-0.648-0.036-1.004c0-0.347,0.012-0.681,0.036-1.004c0.024-0.322,0.077-0.629,0.157-0.919
		c0.081-0.29,0.191-0.563,0.333-0.822c0.141-0.258,0.328-0.504,0.562-0.737c0.33-0.331,0.709-0.574,1.137-0.731
		c0.427-0.157,0.87-0.236,1.33-0.236c0.459,0,0.902,0.079,1.33,0.236s0.806,0.4,1.137,0.731c0.233,0.233,0.421,0.479,0.562,0.737
		c0.141,0.259,0.252,0.532,0.332,0.822c0.081,0.29,0.134,0.597,0.157,0.919C598.463,338.163,598.476,338.497,598.476,338.844z
		 M596.891,338.844c0-0.193-0.004-0.402-0.012-0.629c-0.008-0.226-0.032-0.449-0.072-0.671c-0.041-0.222-0.104-0.434-0.188-0.635
		c-0.085-0.201-0.2-0.379-0.345-0.532c-0.17-0.186-0.375-0.326-0.617-0.423c-0.241-0.097-0.487-0.146-0.737-0.146
		s-0.496,0.049-0.738,0.146c-0.241,0.097-0.447,0.237-0.616,0.423c-0.146,0.153-0.26,0.331-0.345,0.532s-0.147,0.413-0.188,0.635
		s-0.064,0.445-0.072,0.671c-0.009,0.227-0.013,0.436-0.013,0.629s0.004,0.403,0.013,0.629c0.008,0.226,0.032,0.447,0.072,0.665
		s0.103,0.428,0.188,0.629c0.085,0.202,0.199,0.379,0.345,0.532c0.169,0.186,0.375,0.326,0.616,0.424
		c0.242,0.097,0.488,0.145,0.738,0.145s0.496-0.048,0.737-0.145c0.242-0.098,0.447-0.238,0.617-0.424
		c0.145-0.153,0.26-0.33,0.345-0.532c0.084-0.201,0.146-0.411,0.188-0.629c0.04-0.218,0.064-0.439,0.072-0.665
		S596.891,339.037,596.891,338.844z"/>
	<path d="M606.554,340.634c0,0.387-0.068,0.746-0.205,1.076c-0.138,0.331-0.359,0.613-0.666,0.847
		c-0.338,0.258-0.701,0.419-1.088,0.483s-0.786,0.097-1.197,0.097h-3.41v-8.586h3.41c0.347,0,0.691,0.032,1.034,0.097
		s0.659,0.189,0.949,0.375c0.314,0.21,0.558,0.479,0.731,0.811c0.173,0.33,0.26,0.682,0.26,1.052c0,0.178-0.02,0.355-0.061,0.532
		c-0.04,0.178-0.104,0.349-0.193,0.514c-0.089,0.166-0.199,0.314-0.332,0.447c-0.134,0.134-0.289,0.24-0.466,0.321
		c0.411,0.186,0.72,0.453,0.925,0.804C606.451,339.854,606.554,340.23,606.554,340.634z M604.788,336.981
		c0-0.201-0.036-0.373-0.108-0.514c-0.073-0.141-0.17-0.254-0.291-0.339c-0.12-0.085-0.262-0.145-0.423-0.182
		c-0.161-0.036-0.331-0.054-0.508-0.054h-1.923v2.152h1.959c0.178,0,0.345-0.019,0.502-0.055s0.294-0.095,0.411-0.175
		c0.117-0.081,0.21-0.189,0.278-0.327C604.754,337.353,604.788,337.184,604.788,336.981z M604.97,340.598
		c0-0.46-0.142-0.782-0.424-0.968s-0.629-0.278-1.04-0.278h-1.971v2.383h1.923c0.177,0,0.356-0.019,0.538-0.055
		s0.345-0.099,0.489-0.188c0.146-0.089,0.263-0.205,0.352-0.351C604.925,340.997,604.97,340.815,604.97,340.598z"/>
	<path d="M612.914,343.125l-1.427-3.241h-1.898v3.241h-1.572v-8.574h3.615c0.509,0,0.95,0.075,1.324,0.224
		c0.375,0.149,0.686,0.347,0.932,0.593s0.427,0.528,0.544,0.847s0.176,0.651,0.176,0.997c0,0.581-0.144,1.083-0.43,1.506
		c-0.286,0.424-0.667,0.724-1.143,0.901l1.572,3.507H612.914z M613.047,337.211c0-0.169-0.032-0.332-0.097-0.489
		s-0.157-0.296-0.278-0.417c-0.12-0.121-0.27-0.216-0.447-0.284c-0.177-0.068-0.375-0.104-0.593-0.104h-2.056v2.564h2.08
		c0.443,0,0.786-0.109,1.028-0.327S613.047,337.623,613.047,337.211z"/>
	<path d="M615.986,343.125v-8.574h6.106v1.415h-4.547v1.995h4.003v1.403h-4.003v2.346h4.547v1.415H615.986z"/>
	<path d="M630.68,343.125v-6.119l-2.226,5.998h-1.148l-2.213-6.07v6.191h-1.512v-8.574h2.104l2.249,6.107l2.262-6.107h1.995v8.574
		H630.68z"/>
	<path d="M634.199,343.125v-8.574h6.106v1.415h-4.547v1.995h4.003v1.403h-4.003v2.346h4.547v1.415H634.199z"/>
	<path d="M647.974,340.573c0,0.403-0.066,0.75-0.2,1.04c-0.133,0.29-0.304,0.54-0.514,0.75c-0.331,0.33-0.731,0.566-1.203,0.707
		c-0.472,0.142-0.974,0.212-1.506,0.212c-0.459,0-0.913-0.066-1.36-0.199c-0.447-0.134-0.849-0.361-1.203-0.684
		c-0.258-0.233-0.472-0.521-0.641-0.864c-0.17-0.343-0.254-0.72-0.254-1.131h1.596c0,0.209,0.042,0.405,0.127,0.586
		c0.085,0.182,0.191,0.337,0.32,0.466c0.186,0.186,0.409,0.309,0.672,0.369c0.262,0.061,0.518,0.091,0.768,0.091
		c0.298,0,0.58-0.034,0.847-0.104c0.266-0.068,0.479-0.188,0.641-0.356c0.097-0.104,0.178-0.216,0.242-0.332
		c0.064-0.117,0.097-0.28,0.097-0.49c0-0.314-0.103-0.55-0.309-0.707c-0.205-0.157-0.441-0.261-0.707-0.309
		c-0.291-0.057-0.609-0.097-0.956-0.121s-0.661-0.061-0.943-0.108c-0.298-0.049-0.578-0.134-0.84-0.255
		c-0.263-0.12-0.492-0.279-0.689-0.478c-0.197-0.197-0.354-0.435-0.472-0.713s-0.176-0.595-0.176-0.949
		c0-0.339,0.068-0.649,0.206-0.932c0.137-0.282,0.318-0.536,0.544-0.762c0.282-0.282,0.646-0.504,1.089-0.665
		s0.919-0.242,1.427-0.242c0.46,0,0.901,0.071,1.324,0.212s0.78,0.349,1.07,0.623c0.258,0.241,0.466,0.516,0.623,0.822
		s0.239,0.641,0.247,1.004h-1.596c-0.008-0.153-0.047-0.305-0.115-0.454s-0.155-0.28-0.26-0.393
		c-0.138-0.146-0.331-0.258-0.58-0.339c-0.25-0.081-0.492-0.121-0.726-0.121c-0.242,0-0.49,0.032-0.744,0.097
		s-0.47,0.189-0.647,0.375c-0.088,0.097-0.159,0.202-0.211,0.314c-0.053,0.113-0.079,0.25-0.079,0.411
		c0,0.282,0.081,0.498,0.242,0.647c0.161,0.148,0.371,0.243,0.629,0.284c0.273,0.04,0.582,0.076,0.925,0.108
		s0.655,0.068,0.938,0.108c0.322,0.049,0.627,0.136,0.913,0.261s0.536,0.29,0.75,0.495c0.213,0.206,0.383,0.454,0.508,0.744
		S647.974,340.211,647.974,340.573z"/>
	<path d="M654.406,343.125l-0.556-1.645h-3.411l-0.556,1.645h-1.572l3.011-8.574h1.706l3.011,8.574H654.406z M652.146,336.462
		l-1.222,3.615h2.442L652.146,336.462z"/>
	<path d="M603.151,357.355l-3.28-3.271l3.271-3.27l0.3,0.31l-2.96,2.96l2.97,2.97L603.151,357.355z"/>
	<path d="M609.281,357.125v-6.33l-1.729,1.271v-0.561l1.78-1.33h0.449v6.95H609.281z"/>
	<path d="M613.021,357.125v-0.54l2.779-3.47c0.141-0.174,0.269-0.382,0.386-0.625c0.116-0.243,0.175-0.481,0.175-0.715
		c0-0.2-0.035-0.379-0.105-0.535c-0.069-0.157-0.166-0.288-0.29-0.396c-0.123-0.106-0.268-0.188-0.435-0.245
		s-0.344-0.085-0.53-0.085c-0.479,0-0.843,0.148-1.09,0.445s-0.37,0.675-0.37,1.135h-0.529c0-0.3,0.045-0.575,0.135-0.825
		s0.222-0.466,0.395-0.649c0.174-0.184,0.382-0.327,0.625-0.43c0.243-0.104,0.521-0.155,0.835-0.155c0.267,0,0.516,0.04,0.745,0.12
		c0.23,0.08,0.427,0.194,0.59,0.345c0.164,0.15,0.292,0.333,0.386,0.55c0.093,0.217,0.14,0.459,0.14,0.726
		c0,0.3-0.068,0.592-0.205,0.875s-0.295,0.534-0.475,0.755l-2.601,3.239h3.47v0.48H613.021z"/>
	<path d="M622.041,355.535v1.59h-0.51v-1.59h-3.28v-0.55l2.83-4.811h0.57l-2.86,4.86h2.74v-2.15h0.51v2.15h0.97v0.5H622.041z"/>
	<path d="M628.461,353.645c0,0.273-0.009,0.554-0.025,0.841c-0.017,0.286-0.055,0.564-0.115,0.835c-0.06,0.27-0.144,0.523-0.25,0.76
		s-0.25,0.441-0.43,0.615c-0.16,0.153-0.355,0.285-0.585,0.395c-0.23,0.11-0.505,0.165-0.825,0.165s-0.595-0.055-0.825-0.165
		c-0.229-0.109-0.425-0.241-0.585-0.395c-0.18-0.174-0.323-0.379-0.43-0.615s-0.19-0.49-0.25-0.76
		c-0.06-0.271-0.099-0.549-0.115-0.835c-0.017-0.287-0.024-0.567-0.024-0.841c0-0.272,0.008-0.553,0.024-0.84
		c0.017-0.286,0.056-0.564,0.115-0.835c0.06-0.27,0.144-0.523,0.25-0.76s0.25-0.441,0.43-0.615c0.16-0.153,0.355-0.285,0.585-0.395
		c0.23-0.11,0.505-0.165,0.825-0.165s0.595,0.055,0.825,0.165c0.229,0.109,0.425,0.241,0.585,0.395
		c0.18,0.174,0.323,0.379,0.43,0.615s0.19,0.49,0.25,0.76c0.061,0.271,0.099,0.549,0.115,0.835
		C628.452,353.092,628.461,353.372,628.461,353.645z M627.95,353.645c0-0.227-0.005-0.466-0.015-0.72
		c-0.01-0.253-0.035-0.503-0.075-0.75c-0.04-0.246-0.104-0.479-0.189-0.7c-0.087-0.22-0.21-0.406-0.37-0.56
		c-0.127-0.12-0.275-0.217-0.445-0.29s-0.378-0.11-0.625-0.11c-0.246,0-0.455,0.037-0.625,0.11s-0.318,0.17-0.445,0.29
		c-0.159,0.153-0.283,0.34-0.369,0.56c-0.087,0.221-0.15,0.454-0.19,0.7c-0.04,0.247-0.065,0.497-0.075,0.75
		c-0.01,0.254-0.015,0.493-0.015,0.72c0,0.228,0.005,0.467,0.015,0.721c0.01,0.253,0.035,0.503,0.075,0.75
		c0.04,0.246,0.104,0.479,0.19,0.7c0.086,0.22,0.21,0.406,0.369,0.56c0.127,0.12,0.275,0.217,0.445,0.29s0.379,0.11,0.625,0.11
		c0.247,0,0.455-0.037,0.625-0.11s0.318-0.17,0.445-0.29c0.16-0.153,0.283-0.34,0.37-0.56c0.086-0.221,0.149-0.454,0.189-0.7
		c0.04-0.247,0.065-0.497,0.075-0.75C627.945,354.111,627.95,353.872,627.95,353.645z"/>
	<path d="M634.82,354.615c0,0.413-0.063,0.807-0.189,1.18c-0.127,0.373-0.324,0.687-0.591,0.94c-0.166,0.159-0.361,0.286-0.585,0.38
		c-0.223,0.093-0.481,0.14-0.774,0.14c-0.18,0-0.355-0.023-0.525-0.07c-0.17-0.046-0.328-0.113-0.475-0.199
		c-0.146-0.087-0.278-0.19-0.396-0.311c-0.116-0.12-0.208-0.25-0.274-0.39v2.84h-0.5v-7h0.439l0.061,0.88
		c0.066-0.153,0.16-0.293,0.279-0.42c0.12-0.127,0.254-0.233,0.4-0.32c0.146-0.086,0.305-0.153,0.475-0.199
		c0.171-0.047,0.339-0.07,0.506-0.07c0.286,0,0.538,0.042,0.755,0.125c0.216,0.083,0.408,0.198,0.575,0.345
		c0.279,0.247,0.486,0.559,0.619,0.936C634.754,353.776,634.82,354.182,634.82,354.615z M634.311,354.625
		c0-0.36-0.052-0.696-0.155-1.01s-0.271-0.573-0.505-0.78c-0.127-0.113-0.27-0.2-0.43-0.26c-0.16-0.061-0.347-0.09-0.561-0.09
		c-0.22,0-0.413,0.036-0.58,0.109c-0.166,0.073-0.313,0.17-0.439,0.29c-0.227,0.221-0.39,0.479-0.49,0.775
		c-0.1,0.297-0.149,0.618-0.149,0.965c0,0.373,0.046,0.705,0.14,0.995c0.093,0.29,0.257,0.542,0.49,0.755
		c0.126,0.12,0.274,0.215,0.444,0.285s0.372,0.104,0.605,0.104s0.437-0.04,0.609-0.12c0.174-0.079,0.327-0.187,0.461-0.319
		c0.192-0.214,0.335-0.47,0.425-0.771C634.266,355.255,634.311,354.945,634.311,354.625z"/>
	<path d="M639.11,357.125l-1.54-2.23l-1.551,2.23h-0.59l1.8-2.59l-1.77-2.47h0.6l1.521,2.14l1.53-2.14h0.58l-1.78,2.47l1.8,2.59
		H639.11z"/>
</g>
<g>
	<path d="M44.404,343.058v-6.071l-2.208,5.951h-1.14l-2.196-6.023v6.144h-1.5v-8.508h2.088l2.232,6.06l2.244-6.06h1.98v8.508H44.404
		z"/>
	<path d="M54.459,338.81c0,0.353-0.012,0.685-0.036,0.996s-0.076,0.612-0.156,0.899c-0.08,0.289-0.19,0.561-0.33,0.816
		c-0.14,0.256-0.326,0.5-0.558,0.732c-0.328,0.328-0.704,0.57-1.128,0.726c-0.424,0.156-0.864,0.233-1.32,0.233
		c-0.456,0-0.896-0.077-1.32-0.233c-0.424-0.155-0.8-0.397-1.128-0.726c-0.232-0.232-0.418-0.477-0.558-0.732
		s-0.25-0.527-0.33-0.816c-0.08-0.287-0.132-0.588-0.156-0.899s-0.036-0.644-0.036-0.996c0-0.344,0.012-0.676,0.036-0.996
		c0.024-0.319,0.076-0.624,0.156-0.911c0.08-0.289,0.19-0.561,0.33-0.816s0.326-0.5,0.558-0.732c0.328-0.328,0.704-0.57,1.128-0.727
		c0.424-0.155,0.864-0.233,1.32-0.233c0.456,0,0.896,0.078,1.32,0.233c0.424,0.156,0.8,0.398,1.128,0.727
		c0.232,0.232,0.418,0.477,0.558,0.732c0.14,0.256,0.25,0.527,0.33,0.816c0.08,0.287,0.132,0.592,0.156,0.911
		C54.447,338.134,54.459,338.466,54.459,338.81z M52.887,338.81c0-0.192-0.004-0.399-0.012-0.624
		c-0.008-0.224-0.032-0.445-0.072-0.666c-0.04-0.22-0.102-0.43-0.186-0.63s-0.198-0.376-0.342-0.528
		c-0.168-0.184-0.372-0.324-0.612-0.42c-0.24-0.096-0.484-0.144-0.732-0.144c-0.248,0-0.492,0.048-0.732,0.144
		c-0.24,0.096-0.444,0.236-0.612,0.42c-0.144,0.152-0.258,0.328-0.342,0.528s-0.146,0.41-0.186,0.63
		c-0.04,0.221-0.064,0.442-0.072,0.666c-0.008,0.225-0.012,0.432-0.012,0.624s0.004,0.4,0.012,0.624
		c0.008,0.225,0.032,0.443,0.072,0.66c0.04,0.216,0.102,0.424,0.186,0.624s0.198,0.376,0.342,0.528
		c0.168,0.184,0.372,0.324,0.612,0.42c0.24,0.096,0.484,0.144,0.732,0.144c0.248,0,0.492-0.048,0.732-0.144
		c0.24-0.096,0.444-0.236,0.612-0.42c0.144-0.152,0.258-0.328,0.342-0.528s0.146-0.408,0.186-0.624
		c0.04-0.217,0.064-0.436,0.072-0.66C52.883,339.21,52.887,339.002,52.887,338.81z M49.839,333.89l-0.48-0.78l2.208-1.656
		l0.672,1.092L49.839,333.89z"/>
	<path d="M59.307,343.058h-1.704l-2.82-8.508h1.644l2.064,6.491l2.052-6.491h1.56L59.307,343.058z"/>
	<path d="M63.099,343.058v-8.508h1.572v8.508H63.099z"/>
	<path d="M66.663,343.058v-8.508h1.548v7.044h3.948v1.464H66.663z"/>
	<path d="M40.531,357.287l-3.28-3.27l3.27-3.27l0.3,0.31l-2.96,2.96l2.97,2.971L40.531,357.287z"/>
	<path d="M48.61,355.238c0,0.293-0.057,0.56-0.17,0.799c-0.113,0.24-0.269,0.445-0.465,0.615c-0.197,0.17-0.425,0.302-0.685,0.396
		c-0.26,0.093-0.537,0.14-0.83,0.14c-0.333,0-0.63-0.055-0.89-0.165c-0.26-0.11-0.481-0.26-0.665-0.45
		c-0.183-0.189-0.323-0.416-0.42-0.68s-0.148-0.549-0.155-0.855h0.51c0,0.227,0.033,0.44,0.1,0.641
		c0.066,0.199,0.168,0.377,0.305,0.529c0.136,0.154,0.305,0.275,0.505,0.365s0.437,0.135,0.71,0.135
		c0.493,0,0.888-0.131,1.185-0.395c0.296-0.264,0.445-0.621,0.445-1.074c0-0.521-0.148-0.91-0.445-1.171
		c-0.297-0.26-0.695-0.39-1.195-0.39h-0.37v-0.48h0.37c0.453,0,0.815-0.116,1.085-0.35s0.405-0.584,0.405-1.05
		c0-0.207-0.039-0.394-0.115-0.56c-0.077-0.167-0.182-0.309-0.315-0.426c-0.133-0.116-0.288-0.207-0.465-0.27
		c-0.177-0.063-0.362-0.096-0.555-0.096c-0.48,0-0.865,0.144-1.155,0.43c-0.29,0.287-0.438,0.668-0.445,1.141h-0.52
		c0.006-0.307,0.063-0.586,0.17-0.84c0.106-0.254,0.255-0.471,0.445-0.65s0.414-0.318,0.67-0.414
		c0.257-0.098,0.535-0.146,0.835-0.146c0.267,0,0.52,0.044,0.76,0.13c0.24,0.087,0.45,0.209,0.63,0.365
		c0.18,0.156,0.322,0.348,0.425,0.574c0.103,0.227,0.155,0.48,0.155,0.761c0,0.38-0.093,0.72-0.28,1.02
		c-0.187,0.3-0.47,0.507-0.85,0.62c0.207,0.061,0.388,0.148,0.545,0.266c0.157,0.116,0.29,0.253,0.4,0.41
		c0.11,0.156,0.193,0.331,0.25,0.524S48.61,355.031,48.61,355.238z"/>
	<path d="M53.74,355.468v1.59h-0.51v-1.59h-3.28v-0.55l2.83-4.811h0.57l-2.86,4.86h2.74v-2.15h0.51v2.15h0.97v0.5H53.74z"/>
	<path d="M60.16,353.578c0,0.273-0.008,0.553-0.025,0.84c-0.017,0.286-0.055,0.564-0.115,0.834c-0.06,0.271-0.144,0.523-0.25,0.761
		c-0.107,0.237-0.25,0.441-0.43,0.614c-0.16,0.154-0.355,0.285-0.585,0.396s-0.505,0.165-0.825,0.165
		c-0.32,0-0.595-0.055-0.825-0.165s-0.425-0.241-0.585-0.396c-0.18-0.173-0.324-0.377-0.43-0.614c-0.107-0.237-0.19-0.49-0.25-0.761
		c-0.06-0.27-0.099-0.548-0.115-0.834c-0.017-0.287-0.025-0.566-0.025-0.84s0.008-0.554,0.025-0.84
		c0.017-0.287,0.055-0.565,0.115-0.836c0.06-0.27,0.143-0.523,0.25-0.76c0.106-0.236,0.25-0.441,0.43-0.615
		c0.16-0.152,0.355-0.285,0.585-0.395c0.23-0.11,0.505-0.165,0.825-0.165c0.32,0,0.595,0.055,0.825,0.165
		c0.23,0.109,0.425,0.242,0.585,0.395c0.18,0.174,0.323,0.379,0.43,0.615c0.106,0.236,0.19,0.49,0.25,0.76
		c0.06,0.271,0.098,0.549,0.115,0.836C60.151,353.024,60.16,353.305,60.16,353.578z M59.65,353.578c0-0.227-0.005-0.467-0.015-0.721
		c-0.01-0.253-0.035-0.503-0.075-0.75c-0.04-0.246-0.104-0.48-0.19-0.699c-0.086-0.221-0.21-0.407-0.37-0.561
		c-0.127-0.12-0.275-0.217-0.445-0.29s-0.378-0.11-0.625-0.11s-0.455,0.037-0.625,0.11s-0.318,0.17-0.445,0.29
		c-0.16,0.153-0.284,0.34-0.37,0.561c-0.086,0.219-0.15,0.453-0.19,0.699c-0.04,0.247-0.065,0.497-0.075,0.75
		c-0.01,0.254-0.015,0.494-0.015,0.721s0.005,0.467,0.015,0.72c0.01,0.253,0.035,0.503,0.075,0.75s0.104,0.479,0.19,0.7
		c0.086,0.22,0.21,0.406,0.37,0.56c0.126,0.12,0.275,0.217,0.445,0.29s0.378,0.109,0.625,0.109s0.455-0.036,0.625-0.109
		s0.318-0.17,0.445-0.29c0.16-0.153,0.283-0.34,0.37-0.56c0.087-0.221,0.15-0.453,0.19-0.7c0.04-0.247,0.065-0.497,0.075-0.75
		C59.645,354.045,59.65,353.805,59.65,353.578z"/>
	<path d="M66.52,354.548c0,0.413-0.063,0.807-0.19,1.18c-0.126,0.374-0.323,0.687-0.59,0.94c-0.167,0.16-0.362,0.286-0.585,0.38
		c-0.224,0.093-0.482,0.14-0.775,0.14c-0.18,0-0.355-0.023-0.525-0.07c-0.17-0.047-0.328-0.113-0.475-0.199
		c-0.147-0.087-0.279-0.19-0.395-0.311c-0.117-0.119-0.208-0.25-0.275-0.39v2.84h-0.5v-7h0.44l0.06,0.88
		c0.066-0.153,0.16-0.293,0.28-0.42s0.253-0.233,0.4-0.32c0.146-0.086,0.305-0.152,0.475-0.199s0.338-0.07,0.505-0.07
		c0.287,0,0.539,0.041,0.755,0.125c0.217,0.084,0.409,0.198,0.575,0.345c0.28,0.247,0.487,0.559,0.62,0.935
		C66.453,353.709,66.52,354.114,66.52,354.548z M66.01,354.558c0-0.36-0.052-0.696-0.155-1.01c-0.103-0.313-0.271-0.573-0.505-0.78
		c-0.126-0.113-0.27-0.2-0.43-0.26c-0.16-0.061-0.347-0.09-0.56-0.09c-0.22,0-0.414,0.036-0.58,0.109
		c-0.167,0.074-0.313,0.17-0.44,0.29c-0.227,0.22-0.39,0.479-0.49,0.775c-0.1,0.296-0.15,0.618-0.15,0.965
		c0,0.374,0.046,0.705,0.14,0.995c0.093,0.29,0.256,0.541,0.49,0.755c0.126,0.12,0.275,0.215,0.445,0.285
		c0.17,0.069,0.372,0.104,0.605,0.104c0.233,0,0.437-0.039,0.61-0.119s0.327-0.188,0.46-0.32c0.193-0.213,0.335-0.471,0.425-0.77
		C65.965,355.188,66.01,354.877,66.01,354.558z"/>
	<path d="M70.809,357.058l-1.54-2.229l-1.55,2.229h-0.59l1.8-2.59l-1.77-2.47h0.6l1.52,2.14l1.53-2.14h0.58l-1.78,2.47l1.8,2.59
		H70.809z"/>
</g>
<g>
	<g>
		<line fill="none" stroke="#000000" stroke-miterlimit="10" x1="109.623" y1="369.043" x2="0.5" y2="369.043"/>
		<g>
			<path d="M102.788,364.243c-0.148,0.232-0.08,0.542,0.153,0.69l6.453,4.109l-6.453,4.109c-0.233,0.148-0.302,0.458-0.153,0.69
				s0.459,0.3,0.69,0.153l7.115-4.531c0.144-0.092,0.231-0.251,0.231-0.422s-0.087-0.33-0.231-0.422l-7.115-4.531
				c-0.083-0.053-0.176-0.078-0.268-0.078C103.045,364.012,102.884,364.094,102.788,364.243z"/>
		</g>
		<g>
			<rect y="365.793" width="1" height="6.5"/>
		</g>
	</g>
</g>
<path fill="none" stroke="#000000" stroke-miterlimit="10" d="M107.563,317.418c0,3.021-2.192,5.47-4.897,5.47H5.665
	c-2.705,0-4.897-2.448-4.897-5.47V132.835c0-3.021,2.192-5.471,4.897-5.471h97.002c2.705,0,4.897,2.449,4.897,5.471V317.418z"/>
<rect x="0.786" y="155.013" fill="none" stroke="#000000" stroke-miterlimit="10" width="106.76" height="136.29"/>
<circle fill="none" stroke="#000000" stroke-miterlimit="10" cx="54.166" cy="306.438" r="9.313"/>
<g>
	<g>
		<line fill="none" stroke="#000000" stroke-miterlimit="10" x1="355.991" y1="369.043" x2="126.56" y2="369.043"/>
		<g>
			<path d="M349.157,364.243c-0.148,0.232-0.08,0.542,0.153,0.69l6.453,4.109l-6.453,4.109c-0.233,0.148-0.302,0.458-0.153,0.69
				s0.459,0.3,0.69,0.153l7.115-4.531c0.144-0.092,0.231-0.251,0.231-0.422s-0.087-0.33-0.231-0.422l-7.115-4.531
				c-0.083-0.053-0.176-0.078-0.268-0.078C349.414,364.012,349.252,364.094,349.157,364.243z"/>
		</g>
		<g>
			<rect x="126.06" y="365.793" width="1" height="6.5"/>
		</g>
	</g>
</g>
<g>
	<g>
		<line fill="none" stroke="#000000" stroke-miterlimit="10" x1="863.704" y1="369.043" x2="374.847" y2="369.043"/>
		<g>
			<path d="M856.869,364.243c-0.148,0.232-0.079,0.542,0.154,0.69l6.452,4.109l-6.452,4.109c-0.233,0.148-0.303,0.458-0.154,0.69
				s0.46,0.3,0.691,0.153l7.114-4.531c0.144-0.092,0.231-0.251,0.231-0.422s-0.088-0.33-0.231-0.422l-7.114-4.531
				c-0.084-0.053-0.177-0.078-0.269-0.078C857.127,364.012,856.965,364.094,856.869,364.243z"/>
		</g>
		<g>
			<rect x="374.347" y="365.793" width="1" height="6.5"/>
		</g>
	</g>
</g>
<path fill="none" stroke="#000000" stroke-miterlimit="10" d="M125.466,19.955c0-3.239,2.352-5.864,5.25-5.864h221.229
	c2.899,0,5.249,2.625,5.249,5.864v296.562c0,3.239-2.35,5.865-5.249,5.865H130.716c-2.898,0-5.25-2.626-5.25-5.865V19.955z"/>
<rect x="131.544" y="42.72" fill="none" stroke="#000000" stroke-miterlimit="10" width="219.572" height="250.02"/>
<circle fill="none" stroke="#000000" stroke-miterlimit="10" cx="241.33" cy="308.408" r="9.313"/>
<path fill="none" stroke="#000000" stroke-miterlimit="10" d="M864.906,318.676c0,3.045-2.208,5.512-4.935,5.512H379.282
	c-2.726,0-4.935-2.467-4.935-5.512V5.783c0-3.045,2.209-5.513,4.935-5.513h480.689c2.727,0,4.935,2.468,4.935,5.513V318.676z"/>
<path fill="none" stroke="#000000" stroke-miterlimit="10" d="M854.829,310.088c0,2.863-2.118,5.182-4.733,5.182h-461.01
	c-2.615,0-4.733-2.318-4.733-5.182V15.989c0-2.862,2.118-5.182,4.733-5.182h461.01c2.615,0,4.733,2.32,4.733,5.182V310.088z"/>
<rect x="5.895" y="160.973" width="96.542" height="27.724"/>
<rect x="5.895" y="195.83" fill="#BCBEC0" width="96.542" height="49.32"/>
</svg>
