<?xml version="1.0" encoding="utf-8"?>
<!-- Generator: Adobe Illustrator 16.0.0, SVG Export Plug-In . SVG Version: 6.00 Build 0)  -->
<!DOCTYPE svg PUBLIC "-//W3C//DTD SVG 1.1//EN" "http://www.w3.org/Graphics/SVG/1.1/DTD/svg11.dtd">
<svg version="1.1" id="Capa_1" xmlns="http://www.w3.org/2000/svg" xmlns:xlink="http://www.w3.org/1999/xlink" x="0px" y="0px"
	 width="85.04px" height="24.901px" viewBox="0 0 85.04 24.901" enable-background="new 0 0 85.04 24.901" xml:space="preserve">
<g>
	<path d="M6.812,17.33H6.786c-0.34,0-0.462-0.148-0.462-0.501l0.013-2.852c0-0.107-0.023-0.166-0.144-0.166
		c-0.031,0-0.103,0.008-0.212,0.02c-0.25,0.029-0.711,0.07-1.265,0.086l-0.024,0.002v0.357h0.025c0.291,0,0.484,0.078,0.484,0.416
		l-0.011,0.83c0,1.377-0.551,1.643-0.954,1.643c-0.329,0-0.453-0.341-0.453-0.627L3.8,13.978c0-0.107-0.023-0.166-0.143-0.166
		c-0.032,0-0.105,0.008-0.214,0.02c-0.249,0.029-0.658,0.07-1.209,0.086l-0.025,0.002v0.357h0.026c0.291,0,0.484,0.078,0.484,0.416
		L2.704,16.42c0,1.126,0.582,1.361,1.069,1.361c0.728,0,1.145-0.476,1.371-0.728c0.062-0.072,0.127-0.145,0.149-0.145
		c0.012,0,0.045,0,0.045,0.053v0.7c0,0.104,0.07,0.119,0.112,0.119c0.032,0,0.102-0.009,0.208-0.024
		c0.256-0.035,0.688-0.07,1.127-0.07h0.025V17.33z"/>
	<path d="M14.518,13.962h-0.905l0.075-0.586c0.112-0.801,0.257-1.143,0.486-1.143c0.092,0,0.148,0.047,0.148,0.125
		c0,0.051-0.006,0.076-0.014,0.103c-0.008,0.031-0.018,0.063-0.018,0.125c0,0.132,0.083,0.286,0.317,0.286
		c0.282,0,0.409-0.219,0.409-0.435c0-0.355-0.255-0.559-0.7-0.559c-0.992,0-1.261,1.392-1.39,2.083h-0.799l-0.073,0.354h0.818
		l-0.053,0.347c-0.036,0.232-0.072,0.465-0.107,0.701l-0.061,0.398c-0.349,2.303-0.525,3.326-0.906,3.326
		c-0.042,0-0.053-0.014-0.053-0.062c0-0.016,0.005-0.035,0.011-0.059c0.011-0.033,0.021-0.076,0.021-0.13
		c0-0.157-0.117-0.269-0.284-0.269c-0.25,0-0.363,0.18-0.363,0.347c0,0.312,0.227,0.529,0.552,0.529c0.582,0,1.297-0.672,1.94-5.129
		h0.887L14.518,13.962z"/>
	<path d="M14.878,16.836c-0.256,0-0.465,0.208-0.465,0.466c0,0.256,0.209,0.465,0.465,0.465c0.258,0,0.466-0.209,0.466-0.465
		C15.344,17.044,15.136,16.836,14.878,16.836"/>
	<path d="M0.955,8.104h15.842v15.842H0.955V8.104z M0,24.901h17.751V7.15H0V24.901z"/>
	<path d="M9.503,17.287c-0.506,0-0.686-0.513-0.686-0.954c0-0.85,0.404-2.027,1.166-2.027c0.605,0,0.732,0.515,0.732,0.945
		C10.716,15.89,10.41,17.287,9.503,17.287 M10.196,13.812c-0.713,0-1.098,0.494-1.265,0.731c-0.01-0.472-0.185-0.691-0.551-0.691
		c-0.591,0-0.937,0.806-1.123,1.241l-0.009,0.02l0.279,0.158l0.012-0.023c0.013-0.027,0.029-0.064,0.051-0.11
		c0.12-0.269,0.371-0.827,0.633-0.827c0.143,0,0.163,0.176,0.163,0.28c0,0.151-0.045,0.391-0.125,0.749l-0.738,3.166
		c-0.107,0.471-0.158,0.545-0.627,0.545H6.875l-0.064,0.357h1.982l0.083-0.357H8.845c-0.612,0-0.714-0.006-0.714-0.241
		c0-0.05,0.027-0.166,0.049-0.262l0.35-1.484c0.191,0.397,0.423,0.719,1.13,0.719c1.216,0,1.864-1.368,1.864-2.356
		C11.524,14.62,11.114,13.812,10.196,13.812"/>
	<path d="M20.796,10.336v1.36c0,0.688,0.458,1.164,1.407,1.164c1.028,0,1.332-0.557,1.332-1.258v-1.28
		c0-0.341,0.047-0.513,0.43-0.513V9.593h-1.164v0.216c0.29,0,0.5,0.088,0.5,0.513v1.28c0,0.127-0.01,0.342-0.065,0.482
		c-0.121,0.3-0.374,0.49-0.855,0.49c-0.519,0-0.776-0.304-0.776-0.879v-1.561c0-0.195,0.08-0.326,0.388-0.326h0.112V9.593h-1.767
		v0.216C20.703,9.809,20.796,9.836,20.796,10.336"/>
	<path d="M24.312,11.038v1.271c0,0.233-0.094,0.301-0.313,0.301v0.181h1.23v-0.181c-0.145,0-0.271-0.024-0.271-0.22v-0.828
		c0-0.436,0.242-0.697,0.481-0.697c0.14,0,0.271,0.089,0.271,0.369v1.16c0,0.188-0.131,0.216-0.276,0.216v0.181h1.206v-0.181
		c-0.186,0-0.285-0.053-0.285-0.23V11.3c0-0.487-0.229-0.772-0.687-0.772c-0.496,0-0.692,0.5-0.743,0.5
		c-0.023,0-0.029-0.033-0.029-0.098v-0.328c0-0.042-0.005-0.075-0.041-0.075c-0.065,0-0.486,0.061-0.879,0.07v0.182
		C24.186,10.78,24.312,10.809,24.312,11.038"/>
	<path d="M27.441,10.051c0.196,0,0.36-0.159,0.36-0.355c0-0.195-0.164-0.355-0.36-0.355c-0.196,0-0.36,0.16-0.36,0.355
		C27.082,9.892,27.246,10.051,27.441,10.051"/>
	<path d="M28.151,12.609c-0.196,0-0.308,0-0.308-0.239v-1.711c0-0.112-0.019-0.131-0.071-0.131c-0.135,0-0.42,0.051-0.911,0.07
		v0.182c0.206,0,0.336,0.033,0.336,0.327v1.263c0,0.239-0.117,0.239-0.336,0.239v0.181h1.29V12.609z"/>
	<path d="M28.514,11.084l0.743,1.735h0.392l0.706-1.74c0.098-0.243,0.163-0.284,0.275-0.299v-0.182h-0.813v0.182
		c0.183,0,0.295,0.07,0.295,0.238c0,0.159-0.089,0.393-0.154,0.557l-0.21,0.533c-0.019,0.047-0.028,0.093-0.052,0.093
		c-0.014,0-0.028-0.028-0.056-0.093l-0.281-0.646c-0.102-0.238-0.163-0.393-0.163-0.501c0-0.163,0.149-0.182,0.281-0.182v-0.182
		h-1.286v0.182C28.383,10.78,28.407,10.832,28.514,11.084"/>
	<path d="M31.39,11.374c0-0.457,0.126-0.664,0.317-0.664c0.215,0,0.318,0.224,0.318,0.64v0.094c0,0.032-0.01,0.047-0.038,0.047
		H31.39V11.374z M31.73,12.86c0.477,0,0.851-0.279,0.996-0.752h-0.211c-0.098,0.238-0.266,0.467-0.598,0.467
		c-0.262,0-0.528-0.211-0.528-0.813v-0.089h1.323c0-0.658-0.346-1.145-0.968-1.145c-0.569,0-1.074,0.491-1.074,1.168
		C30.67,12.37,31.175,12.86,31.73,12.86"/>
	<path d="M34.343,12.609c-0.304,0-0.468,0-0.468-0.286v-0.715c0-0.459,0.173-0.66,0.243-0.66c0.065,0,0.014,0.346,0.332,0.346
		c0.215,0,0.317-0.172,0.317-0.363c0-0.239-0.126-0.403-0.364-0.403c-0.374,0-0.519,0.5-0.589,0.5c-0.023,0-0.023-0.033-0.023-0.052
		v-0.383c0-0.042-0.01-0.065-0.042-0.065c-0.052,0-0.565,0.061-0.902,0.07v0.182c0.257,0,0.383,0.028,0.383,0.258v1.285
		c0,0.286-0.173,0.286-0.397,0.286v0.181h1.51V12.609z"/>
	<path d="M36.237,12.394c0,0.172-0.149,0.285-0.369,0.285c-0.328,0-0.612-0.248-0.664-0.58h-0.177
		c0.004,0.126,0.014,0.248,0.014,0.374c0,0.127-0.01,0.253-0.014,0.378h0.167c0.02-0.074,0.071-0.116,0.126-0.116
		c0.104,0,0.276,0.126,0.566,0.126c0.449,0,0.781-0.309,0.781-0.715c0-0.852-1.248-0.744-1.248-1.154
		c0-0.196,0.14-0.281,0.336-0.281c0.323,0,0.514,0.177,0.612,0.476h0.154c-0.004-0.107-0.014-0.215-0.014-0.322
		s0.01-0.214,0.014-0.321h-0.145c-0.023,0.06-0.079,0.079-0.154,0.079c-0.121,0-0.187-0.094-0.463-0.094
		c-0.396,0-0.771,0.225-0.771,0.626C34.989,12.01,36.237,11.832,36.237,12.394"/>
	<path d="M38.151,12.609c-0.197,0-0.309,0-0.309-0.239v-1.711c0-0.112-0.019-0.131-0.07-0.131c-0.136,0-0.421,0.051-0.912,0.07
		v0.182c0.206,0,0.337,0.033,0.337,0.327v1.263c0,0.239-0.117,0.239-0.337,0.239v0.181h1.29V12.609z"/>
	<path d="M37.441,10.051c0.195,0,0.359-0.159,0.359-0.355c0-0.195-0.164-0.355-0.359-0.355c-0.197,0-0.36,0.16-0.36,0.355
		C37.081,9.892,37.245,10.051,37.441,10.051"/>
	<path d="M38.558,12.229c0,0.43,0.183,0.631,0.565,0.631c0.365,0,0.576-0.201,0.707-0.523l-0.155-0.068
		c-0.065,0.11-0.145,0.256-0.294,0.256c-0.089,0-0.178-0.043-0.178-0.247V10.78h0.528v-0.182h-0.528V9.691H39.03
		c-0.145,0.402-0.365,0.809-0.828,0.935v0.154h0.355V12.229z"/>
	<path d="M40.992,12.575c-0.192,0-0.28-0.135-0.28-0.388c0-0.435,0.519-0.528,0.696-0.528c0.023,0,0.023,0.027,0.023,0.211
		C41.431,12.343,41.254,12.575,40.992,12.575 M40.066,12.313c0,0.309,0.22,0.547,0.607,0.547c0.393,0,0.683-0.256,0.771-0.327
		c0.047,0.079,0.145,0.327,0.467,0.327c0.178,0,0.397-0.084,0.397-0.304c0-0.028-0.014-0.047-0.032-0.047
		c-0.019,0-0.047,0.015-0.089,0.015c-0.07,0-0.112-0.038-0.112-0.135v-0.885c0-0.641-0.285-0.977-1.094-0.977
		c-0.453,0-0.818,0.179-0.818,0.514c0,0.183,0.117,0.352,0.318,0.352c0.233,0,0.327-0.146,0.327-0.301
		c0-0.215-0.136-0.182-0.136-0.28c0-0.056,0.065-0.103,0.252-0.103c0.328,0,0.505,0.14,0.505,0.491v0.309
		C40.945,11.534,40.066,11.659,40.066,12.313"/>
	<path d="M42.727,12.229c0,0.43,0.183,0.631,0.565,0.631c0.365,0,0.575-0.201,0.706-0.523l-0.154-0.068
		c-0.065,0.11-0.145,0.256-0.294,0.256c-0.09,0-0.178-0.043-0.178-0.247V10.78H43.9v-0.182h-0.528V9.691h-0.173
		c-0.145,0.402-0.365,0.809-0.828,0.935v0.154h0.355V12.229z"/>
	<path d="M21.651,15.032c0-0.235,0.099-0.32,0.29-0.32c0.379,0,0.496,0.263,0.496,0.6c0,0.533-0.192,0.674-0.706,0.674
		c-0.061,0-0.08-0.016-0.08-0.052V15.032z M22.185,17.495h-0.094c-0.331,0-0.439-0.02-0.439-0.258v-1.001
		c0-0.036,0.019-0.05,0.08-0.05h0.294c0.575,0,1.305-0.15,1.305-0.848c0-0.49-0.342-0.826-1.221-0.826h-1.687v0.215
		c0.281,0,0.42,0.014,0.42,0.318v2.191c0,0.148-0.075,0.258-0.289,0.258h-0.131v0.214h1.762V17.495z"/>
	<path d="M24.514,17.598c-0.238,0-0.411-0.122-0.411-0.982c0-0.873,0.201-0.985,0.411-0.985c0.211,0,0.412,0.112,0.412,0.985
		C24.926,17.476,24.752,17.598,24.514,17.598 M24.514,15.448c-0.598,0-1.13,0.49-1.13,1.167c0,0.675,0.505,1.163,1.13,1.163
		c0.627,0,1.131-0.488,1.131-1.163C25.646,15.938,25.113,15.448,24.514,15.448"/>
	<path d="M25.8,15.518v0.181c0.164,0,0.285,0.029,0.285,0.259v1.284c0,0.267-0.131,0.285-0.285,0.285v0.183h1.21v-0.183
		c-0.21,0-0.28-0.051-0.28-0.285v-0.672c0-0.417,0.187-0.785,0.43-0.785c0.192,0,0.303,0.135,0.303,0.546v0.911
		c0,0.267-0.131,0.285-0.275,0.285v0.183h1.201v-0.183c-0.21,0-0.28-0.051-0.28-0.285v-0.672c0-0.417,0.187-0.785,0.43-0.785
		c0.192,0,0.305,0.135,0.305,0.546v0.911c0,0.267-0.131,0.285-0.276,0.285v0.183h1.202v-0.183c-0.211,0-0.281-0.051-0.281-0.285
		v-0.98c0-0.514-0.262-0.812-0.678-0.812c-0.565,0-0.669,0.509-0.725,0.509c-0.061,0-0.07-0.509-0.659-0.509
		c-0.51,0-0.687,0.5-0.748,0.5c-0.029,0-0.029-0.047-0.029-0.127v-0.309c0-0.041-0.009-0.064-0.041-0.064
		C26.529,15.448,26.123,15.499,25.8,15.518"/>
	<path d="M31.204,15.733c0.313,0,0.402,0.256,0.402,0.9c0,0.547-0.126,0.861-0.411,0.861s-0.412-0.351-0.412-0.861
		C30.782,16.218,30.839,15.733,31.204,15.733 M29.801,15.698c0.211,0,0.337,0.029,0.337,0.259v2.239
		c0,0.196-0.182,0.242-0.337,0.242v0.184h1.454v-0.184c-0.337,0-0.473-0.02-0.473-0.232V17.54c0-0.027,0.01-0.056,0.033-0.056
		c0.047,0,0.154,0.294,0.589,0.294c0.589,0,0.92-0.527,0.92-1.209c0-0.707-0.406-1.121-0.911-1.121
		c-0.477,0-0.646,0.393-0.692,0.393c-0.014,0-0.024-0.023-0.024-0.099v-0.229c0-0.032-0.009-0.064-0.042-0.064
		c-0.051,0-0.547,0.061-0.856,0.069V15.698z"/>
	<path d="M33.348,16.294c0-0.459,0.126-0.664,0.318-0.664c0.215,0,0.318,0.225,0.318,0.641v0.094c0,0.032-0.009,0.047-0.038,0.047
		h-0.598V16.294z M34.685,17.028h-0.209c-0.099,0.238-0.266,0.467-0.599,0.467c-0.261,0-0.528-0.211-0.528-0.813v-0.089h1.323
		c0-0.659-0.346-1.145-0.968-1.145c-0.57,0-1.074,0.489-1.074,1.167c0,0.675,0.504,1.163,1.061,1.163
		C34.166,17.778,34.54,17.499,34.685,17.028"/>
	<path d="M37.455,17.526c-0.22,0-0.29-0.088-0.29-0.299V15.53c0-0.064-0.014-0.082-0.071-0.082c-0.06,0-0.411,0.056-0.878,0.069
		v0.181c0.159,0,0.304,0.035,0.304,0.259v0.664c0,0.519-0.252,0.823-0.514,0.823c-0.187,0-0.252-0.169-0.252-0.39V15.53
		c0-0.064-0.014-0.082-0.07-0.082c-0.061,0-0.411,0.056-0.878,0.069v0.181c0.159,0,0.304,0.035,0.304,0.259v1.028
		c0,0.574,0.262,0.793,0.622,0.793c0.58,0,0.762-0.518,0.837-0.518c0.028,0,0.042,0.02,0.042,0.047v0.416
		c0,0.028,0.009,0.055,0.052,0.055c0.061,0,0.425-0.069,0.794-0.069V17.526z"/>
	<path d="M40.67,14.712c0.519,0,0.897,0.25,0.953,0.777h0.215l-0.019-0.977h-2.898v0.215c0.267,0,0.407,0.014,0.407,0.318v2.191
		c0,0.148-0.075,0.258-0.291,0.258h-0.117v0.214h1.734v-0.214h-0.08c-0.332,0-0.438-0.02-0.438-0.258v-1.014
		c0-0.062,0.022-0.07,0.111-0.07c0.43,0,0.566,0.174,0.594,0.604h0.206v-1.385h-0.215c0,0.486-0.238,0.58-0.626,0.58
		c-0.057,0-0.07-0.019-0.07-0.079v-0.917C40.138,14.765,40.198,14.712,40.67,14.712"/>
	<path d="M42.867,17.495c-0.192,0-0.281-0.136-0.281-0.389c0-0.434,0.519-0.529,0.696-0.529c0.024,0,0.024,0.029,0.024,0.212
		C43.307,17.261,43.129,17.495,42.867,17.495 M44.152,17.43c-0.02,0-0.048,0.015-0.09,0.015c-0.069,0-0.111-0.039-0.111-0.137
		v-0.883c0-0.641-0.286-0.977-1.094-0.977c-0.454,0-0.817,0.176-0.817,0.514c0,0.182,0.117,0.351,0.318,0.351
		c0.233,0,0.326-0.146,0.326-0.3c0-0.215-0.135-0.182-0.135-0.279c0-0.057,0.066-0.104,0.253-0.104c0.328,0,0.505,0.141,0.505,0.49
		v0.309c-0.486,0.023-1.366,0.148-1.366,0.803c0,0.309,0.221,0.547,0.608,0.547c0.393,0,0.682-0.256,0.772-0.325
		c0.046,0.078,0.145,0.325,0.467,0.325c0.177,0,0.397-0.084,0.397-0.303C44.185,17.448,44.171,17.43,44.152,17.43"/>
	<path d="M45.684,17.598c-0.294,0-0.444-0.37-0.444-0.939c0-0.626,0.15-0.925,0.444-0.925c0.243,0,0.384,0.178,0.384,1.004
		C46.067,17.331,45.937,17.598,45.684,17.598 M45.886,15.448c-0.464,0-0.562,0.346-0.613,0.346c-0.028,0-0.033-0.023-0.033-0.136
		v-1.347c0-0.037-0.019-0.051-0.042-0.051c-0.079,0-0.438,0.073-0.948,0.092v0.184h0.042c0.22,0,0.304,0.065,0.304,0.318v1.594
		c0,0.537,0,0.977-0.019,1.33h0.177c0.043-0.069,0.234-0.378,0.285-0.378c0.066,0,0.268,0.378,0.678,0.378
		c0.66,0,1.071-0.537,1.071-1.181C46.787,16.009,46.464,15.448,45.886,15.448"/>
	<path d="M48.505,15.448c-0.375,0-0.521,0.5-0.59,0.5c-0.023,0-0.023-0.033-0.023-0.052v-0.384c0-0.041-0.01-0.064-0.042-0.064
		c-0.052,0-0.565,0.061-0.902,0.069v0.181c0.257,0,0.384,0.029,0.384,0.259v1.284c0,0.285-0.174,0.285-0.397,0.285v0.183h1.51
		v-0.183c-0.304,0-0.467,0-0.467-0.285v-0.714c0-0.458,0.173-0.66,0.242-0.66c0.066,0,0.015,0.347,0.332,0.347
		c0.215,0,0.317-0.172,0.317-0.364C48.868,15.611,48.742,15.448,48.505,15.448"/>
	<path d="M49.96,17.495c-0.191,0-0.28-0.136-0.28-0.389c0-0.434,0.519-0.529,0.696-0.529c0.023,0,0.023,0.029,0.023,0.212
		C50.399,17.261,50.222,17.495,49.96,17.495 M51.245,17.43c-0.018,0-0.046,0.015-0.088,0.015c-0.07,0-0.112-0.039-0.112-0.137
		v-0.883c0-0.641-0.285-0.977-1.095-0.977c-0.452,0-0.817,0.176-0.817,0.514c0,0.182,0.117,0.351,0.317,0.351
		c0.234,0,0.328-0.146,0.328-0.3c0-0.215-0.137-0.182-0.137-0.279c0-0.057,0.066-0.104,0.253-0.104c0.327,0,0.505,0.141,0.505,0.49
		v0.309c-0.486,0.023-1.364,0.148-1.364,0.803c0,0.309,0.22,0.547,0.606,0.547c0.394,0,0.683-0.256,0.771-0.325
		c0.048,0.078,0.146,0.325,0.468,0.325c0.177,0,0.397-0.084,0.397-0.303C51.278,17.448,51.265,17.43,51.245,17.43"/>
	<path d="M22.049,20.813h-0.359l0.21-0.914c0.051-0.217,0.089-0.259,0.543-0.259c0.583,0,0.845,0.118,0.845,0.505
		C23.288,20.805,22.512,20.813,22.049,20.813 M23.096,21.669c0,0.51-0.304,0.748-1.215,0.748c-0.435,0-0.472-0.07-0.472-0.215
		c0-0.042,0.009-0.107,0.023-0.173l0.215-1.005h0.234C22.502,21.024,23.096,21.048,23.096,21.669 M23.727,20.104
		c0-0.528-0.467-0.673-1.052-0.673h-1.608l-0.046,0.21h0.093c0.257,0,0.36,0.037,0.36,0.169c0,0.07-0.013,0.141-0.038,0.238
		l-0.449,2.08c-0.042,0.205-0.088,0.289-0.369,0.289h-0.122l-0.047,0.211h1.734c1.02,0,1.402-0.506,1.402-1.006
		c0-0.521-0.528-0.645-0.762-0.681v-0.011C23.063,20.874,23.727,20.796,23.727,20.104"/>
	<path d="M24.818,22.474c-0.28,0-0.365-0.258-0.365-0.496c0-0.393,0.286-1.402,0.767-1.402c0.314,0,0.351,0.285,0.351,0.482
		C25.57,21.436,25.309,22.474,24.818,22.474 M25.8,22.431c-0.076,0-0.103-0.056-0.103-0.148c0-0.252,0.275-1.301,0.444-1.848H25.79
		l-0.093,0.285l-0.009,0.01c-0.038-0.097-0.145-0.363-0.505-0.363c-0.701,0-1.112,0.93-1.112,1.532c0,0.411,0.183,0.8,0.608,0.8
		c0.355,0,0.606-0.328,0.686-0.416l0.009,0.009c0.01,0.155,0.034,0.407,0.299,0.407c0.318,0,0.566-0.407,0.678-0.66l-0.144-0.098
		C26.159,22.058,25.954,22.431,25.8,22.431"/>
	<path d="M28.111,20.366c-0.313,0-0.57,0.471-0.682,0.668l-0.009-0.01c0.009-0.043,0.032-0.141,0.032-0.281
		c0-0.218-0.103-0.377-0.299-0.377c-0.341,0-0.542,0.467-0.654,0.729l0.14,0.078c0.056-0.112,0.229-0.565,0.421-0.565
		c0.061,0,0.102,0.061,0.102,0.164c0,0.2-0.117,0.715-0.243,1.149l-0.206,0.706h0.355c0.336-1.385,0.72-1.963,0.855-1.963
		c0.037,0,0.061,0.02,0.061,0.046c0,0.052-0.023,0.056-0.023,0.136c0,0.104,0.094,0.168,0.206,0.168c0.14,0,0.257-0.089,0.257-0.318
		C28.425,20.515,28.318,20.366,28.111,20.366"/>
	<path d="M29.792,20.366c-0.752,0-1.267,0.682-1.267,1.396c0,0.416,0.229,0.936,0.944,0.936c0.36,0,0.682-0.225,0.902-0.496
		l-0.136-0.145c-0.163,0.229-0.43,0.416-0.72,0.416c-0.397,0-0.552-0.322-0.552-0.688c0-0.7,0.37-1.238,0.818-1.238
		c0.182,0,0.304,0.064,0.304,0.131c0,0.094-0.173,0.098-0.173,0.314c0,0.131,0.103,0.218,0.243,0.218
		c0.206,0,0.322-0.168,0.322-0.337C30.479,20.521,30.11,20.366,29.792,20.366"/>
	<path d="M31.976,20.548c0.173,0,0.299,0.104,0.299,0.299c0,0.453-0.65,0.705-1.104,0.775l-0.008-0.009
		C31.191,21.255,31.471,20.548,31.976,20.548 M32.688,20.847c0-0.369-0.332-0.48-0.632-0.48c-0.762,0-1.332,0.775-1.332,1.496
		c0,0.48,0.257,0.836,0.799,0.836c0.542,0,0.86-0.328,1.062-0.51l-0.112-0.141c-0.262,0.254-0.552,0.426-0.832,0.426
		c-0.346,0-0.505-0.225-0.505-0.552c0-0.042,0.004-0.094,0.009-0.126C32.131,21.591,32.688,21.352,32.688,20.847"/>
	<path d="M33.487,22.431c-0.075,0-0.126-0.061-0.126-0.187c0-0.099,0.033-0.191,0.07-0.346l0.646-2.593l-0.038-0.053
		c-0.219,0.033-0.496,0.062-0.836,0.066l-0.042,0.182h0.107c0.224,0,0.303,0.027,0.303,0.177c0,0.117-0.045,0.327-0.102,0.562
		l-0.332,1.351c-0.075,0.3-0.13,0.515-0.13,0.673c0,0.22,0.112,0.412,0.392,0.412c0.351,0,0.622-0.477,0.743-0.758l-0.154-0.068
		C33.908,22.011,33.688,22.431,33.487,22.431"/>
	<path d="M35.328,22.515c-0.364,0-0.495-0.289-0.495-0.607c0-0.467,0.233-1.359,0.804-1.359c0.393,0,0.533,0.271,0.533,0.641
		S35.964,22.515,35.328,22.515 M35.669,20.366c-0.738,0-1.248,0.658-1.248,1.42c0,0.496,0.29,0.912,0.897,0.912
		c0.767,0,1.263-0.695,1.263-1.37C36.581,20.776,36.235,20.366,35.669,20.366"/>
	<path d="M38.851,22.431c-0.093,0-0.135-0.074-0.135-0.154c0-0.14,0.076-0.312,0.23-0.701c0.084-0.21,0.186-0.467,0.186-0.701
		c0-0.309-0.192-0.508-0.496-0.508c-0.401,0-0.691,0.415-0.845,0.668l-0.01-0.01c0.01-0.043,0.033-0.141,0.033-0.281
		c0-0.218-0.103-0.377-0.299-0.377c-0.341,0-0.542,0.467-0.654,0.729L37,21.174c0.055-0.112,0.229-0.565,0.421-0.565
		c0.06,0,0.102,0.061,0.102,0.164c0,0.2-0.117,0.715-0.243,1.149l-0.206,0.706h0.374l0.21-0.779c0.206-0.748,0.496-1.24,0.902-1.24
		c0.113,0,0.215,0.076,0.215,0.233c0,0.163-0.061,0.29-0.182,0.591c-0.141,0.349-0.234,0.574-0.234,0.793
		c0,0.252,0.107,0.449,0.36,0.449c0.379,0,0.607-0.407,0.771-0.711l-0.164-0.084C39.249,22.035,39.042,22.431,38.851,22.431"/>
	<path d="M40.52,22.474c-0.28,0-0.364-0.258-0.364-0.496c0-0.393,0.285-1.402,0.767-1.402c0.312,0,0.35,0.285,0.35,0.482
		C41.272,21.436,41.011,22.474,40.52,22.474 M41.501,22.431c-0.074,0-0.103-0.056-0.103-0.148c0-0.252,0.276-1.301,0.444-1.848
		h-0.351l-0.094,0.285l-0.009,0.01c-0.038-0.097-0.145-0.363-0.505-0.363c-0.701,0-1.112,0.93-1.112,1.532
		c0,0.411,0.182,0.8,0.607,0.8c0.354,0,0.607-0.328,0.688-0.416l0.009,0.009c0.01,0.155,0.032,0.407,0.3,0.407
		c0.317,0,0.564-0.407,0.677-0.66l-0.145-0.098C41.861,22.058,41.655,22.431,41.501,22.431"/>
</g>
</svg>
